<?xml version="1.0" encoding="utf-8" standalone="no"?>
<!DOCTYPE svg PUBLIC "-//W3C//DTD SVG 1.1//EN"
  "http://www.w3.org/Graphics/SVG/1.1/DTD/svg11.dtd">
<svg xmlns:xlink="http://www.w3.org/1999/xlink" width="360pt" height="216pt" viewBox="0 0 360 216" xmlns="http://www.w3.org/2000/svg" version="1.1">
 <metadata>
  <rdf:RDF xmlns:dc="http://purl.org/dc/elements/1.1/" xmlns:cc="http://creativecommons.org/ns#" xmlns:rdf="http://www.w3.org/1999/02/22-rdf-syntax-ns#">
   <cc:Work>
    <dc:type rdf:resource="http://purl.org/dc/dcmitype/StillImage"/>
    <dc:date>2024-06-16T18:58:35.775557</dc:date>
    <dc:format>image/svg+xml</dc:format>
    <dc:creator>
     <cc:Agent>
      <dc:title>Matplotlib v3.8.0, https://matplotlib.org/</dc:title>
     </cc:Agent>
    </dc:creator>
   </cc:Work>
  </rdf:RDF>
 </metadata>
 <defs>
  <style type="text/css">*{stroke-linejoin: round; stroke-linecap: butt}</style>
 </defs>
 <g id="figure_1">
  <g id="patch_1">
   <path d="M 0 216 
L 360 216 
L 360 0 
L 0 0 
z
" style="fill: #ffffff"/>
  </g>
  <g id="axes_1">
   <g id="line2d_1">
    <path d="M 258.627273 107.46 
L 258.479526 102.782152 
L 258.036876 98.122951 
L 257.301085 93.50097 
L 256.275089 88.934634 
L 254.962976 84.442145 
L 253.369976 80.041413 
L 251.502441 75.749979 
L 249.367814 71.58495 
L 246.974606 67.56293 
L 244.332355 63.699951 
L 241.451595 60.011413 
L 238.343809 56.512018 
L 235.021386 53.215718 
L 231.497569 50.135651 
L 227.786407 47.284095 
L 223.902692 44.672418 
L 219.861907 42.311032 
L 215.680159 40.209348 
L 211.374117 38.375744 
L 206.960948 36.817531 
L 202.458242 35.54092 
L 197.88395 34.550999 
L 193.256305 33.851715 
L 188.593755 33.445855 
L 183.914886 33.335037 
L 179.23835 33.519702 
L 174.582788 33.999116 
L 169.966759 34.771366 
L 165.408664 35.833375 
L 160.926672 37.180908 
L 156.538651 38.808594 
L 152.262092 40.709945 
L 148.114042 42.877381 
L 144.111038 45.302263 
L 140.269036 47.974923 
L 136.603351 50.884709 
L 133.128597 54.02002 
L 129.858624 57.368358 
L 126.806467 60.916377 
L 123.984294 64.649932 
L 121.403355 68.554141 
L 119.073937 72.613439 
L 117.005326 76.811647 
L 115.205769 81.132027 
L 113.682439 85.557359 
L 112.441409 90.070001 
L 111.487626 94.651965 
L 110.824891 99.284985 
L 110.455847 103.950593 
L 110.381964 108.630191 
L 110.603538 113.305124 
L 111.119685 117.956757 
L 111.928347 122.566546 
L 113.026301 127.116117 
L 114.40917 131.587332 
L 116.071442 135.962369 
L 118.00649 140.223787 
L 120.206601 144.354599 
L 122.663004 148.338338 
L 125.365908 152.159124 
L 128.304537 155.801726 
L 131.467178 159.251624 
L 134.841223 162.495066 
L 138.413223 165.519121 
L 142.168938 168.311736 
L 146.093398 170.861778 
L 150.170957 173.159082 
L 154.385362 175.19449 
L 158.719812 176.959888 
L 163.15703 178.44824 
L 167.679328 179.653612 
L 172.268677 180.571198 
L 176.906784 181.197342 
L 181.57516 181.529548 
L 186.255195 181.56649 
L 190.928234 181.308022 
L 195.575648 180.755174 
L 200.17891 179.910151 
L 204.719673 178.776319 
L 209.179833 177.3582 
L 213.541613 175.661446 
L 217.787624 173.692822 
L 221.900941 171.460173 
L 225.865167 168.972402 
L 229.664499 166.239424 
L 233.283792 163.272133 
L 236.708618 160.08236 
L 239.925326 156.682818 
L 242.921092 153.087059 
L 245.683975 149.309418 
L 248.20296 145.364952 
L 250.468007 141.269387 
L 252.470086 137.039047 
L 254.201216 132.690796 
L 255.654496 128.241969 
L 256.824134 123.710298 
L 257.705467 119.113848 
L 258.294981 114.470943 
L 258.590327 109.80009 
L 258.627273 107.46 
L 258.627273 107.46 
" clip-path="url(#p620a6dc0e2)" style="fill: none; stroke: #ff0000; stroke-width: 2; stroke-linecap: square"/>
   </g>
   <g id="line2d_2">
    <path d="M 258.627273 107.46 
L 258.504151 103.561793 
L 258.135275 99.679125 
L 257.522117 95.827475 
L 256.667119 92.022195 
L 255.573692 88.278454 
L 254.246192 84.611177 
L 252.689913 81.034982 
L 250.911057 77.564125 
L 248.916717 74.212441 
L 246.714841 70.993293 
L 244.314208 67.919511 
L 241.724386 65.003349 
L 238.9557 62.256431 
L 236.019187 59.689709 
L 232.926551 57.313413 
L 229.690122 55.137015 
L 226.322801 53.169193 
L 222.838011 51.41779 
L 219.249643 49.889787 
L 215.572002 48.591276 
L 211.819747 47.527433 
L 208.007837 46.702499 
L 204.151466 46.119762 
L 200.266008 45.781545 
L 196.366951 45.689197 
L 192.469837 45.843085 
L 188.590202 46.242597 
L 184.743511 46.886139 
L 180.945099 47.771146 
L 177.210106 48.89409 
L 173.553421 50.250495 
L 169.989622 51.834954 
L 166.532914 53.641151 
L 163.197077 55.661886 
L 159.995408 57.889103 
L 156.940671 60.313924 
L 154.045043 62.926683 
L 151.320065 65.716965 
L 148.776602 68.673647 
L 146.424791 71.784943 
L 144.274008 75.03845 
L 142.332826 78.421199 
L 140.608984 81.919706 
L 139.109353 85.520023 
L 137.839912 89.207799 
L 136.80572 92.968334 
L 136.0109 96.786637 
L 135.458621 100.647487 
L 135.151084 104.535494 
L 135.089516 108.435159 
L 135.274161 112.330937 
L 135.704283 116.207297 
L 136.378168 120.048789 
L 137.29313 123.840097 
L 138.445521 127.56611 
L 139.830747 131.211974 
L 141.443287 134.763156 
L 143.276713 138.205499 
L 145.323716 141.525282 
L 147.576135 144.70927 
L 150.024993 147.744772 
L 152.660527 150.619687 
L 155.472232 153.322555 
L 158.448898 155.842601 
L 161.578661 158.16978 
L 164.849043 160.294815 
L 168.247009 162.209235 
L 171.759014 163.905408 
L 175.371056 165.376574 
L 179.068737 166.616867 
L 182.837319 167.621343 
L 186.661776 168.385999 
L 190.526866 168.907785 
L 194.417179 169.184623 
L 198.317208 169.215408 
L 202.211407 169.000018 
L 206.084252 168.539312 
L 209.920304 167.835126 
L 213.704273 166.890266 
L 217.421073 165.7085 
L 221.055889 164.294539 
L 224.594232 162.654018 
L 228.021996 160.793478 
L 231.325518 158.720335 
L 234.491628 156.442853 
L 237.507705 153.970111 
L 240.361727 151.311966 
L 243.042317 148.479015 
L 245.538789 145.482549 
L 247.841191 142.334515 
L 249.940346 139.04746 
L 251.827885 135.634489 
L 253.496283 132.109206 
L 254.938892 128.485664 
L 256.149959 124.778307 
L 257.124657 121.001915 
L 257.859101 117.17154 
L 258.350363 113.302453 
L 258.596485 109.410075 
L 258.627273 107.46 
L 258.627273 107.46 
" clip-path="url(#p620a6dc0e2)" style="fill: none; stroke: #ff0000; stroke-linecap: square"/>
   </g>
   <g id="line2d_3">
    <path d="M 258.627273 107.46 
L 258.528775 104.341434 
L 258.233675 101.2353 
L 257.743148 98.15398 
L 257.05915 95.109756 
L 256.184408 92.114763 
L 255.122408 89.180942 
L 253.877385 86.319986 
L 252.4543 83.5433 
L 250.858828 80.861953 
L 249.097327 78.286634 
L 247.176821 75.827608 
L 245.104963 73.494679 
L 242.890015 71.297145 
L 240.540804 69.243767 
L 238.066696 67.34273 
L 235.477552 65.601612 
L 232.783696 64.027354 
L 229.995863 62.626232 
L 227.125169 61.40383 
L 224.183056 60.365021 
L 221.181252 59.513947 
L 218.131724 58.853999 
L 215.046628 58.38781 
L 211.938261 58.117236 
L 208.819015 58.043358 
L 205.701324 58.166468 
L 202.597616 58.486077 
L 199.520264 59.000911 
L 196.481533 59.708917 
L 193.493539 60.607272 
L 190.568191 61.692396 
L 187.717152 62.959963 
L 184.951786 64.404921 
L 182.283116 66.021509 
L 179.721781 67.803282 
L 177.277992 69.743139 
L 174.961489 71.833347 
L 172.781507 74.065572 
L 170.746736 76.430918 
L 168.865287 78.919955 
L 167.144661 81.52276 
L 165.591715 84.22896 
L 164.212642 87.027764 
L 163.012937 89.908018 
L 161.997384 92.858239 
L 161.17003 95.866667 
L 160.534175 98.92131 
L 160.092352 102.00999 
L 159.846322 105.120396 
L 159.797067 108.240127 
L 159.944783 111.356749 
L 160.288881 114.457838 
L 160.827989 117.531031 
L 161.559958 120.564078 
L 162.481871 123.544888 
L 163.590052 126.461579 
L 164.880084 129.302525 
L 166.346825 132.056399 
L 167.984427 134.712225 
L 169.786363 137.259416 
L 171.745449 139.687818 
L 173.853876 141.98775 
L 176.10324 144.150044 
L 178.484573 146.166081 
L 180.988383 148.027824 
L 183.604689 149.727852 
L 186.323062 151.259388 
L 189.132665 152.616327 
L 192.022299 153.793259 
L 194.980444 154.785493 
L 197.995309 155.589074 
L 201.054876 156.200799 
L 204.146947 156.618228 
L 207.259198 156.839698 
L 210.379221 156.864327 
L 213.49458 156.692015 
L 216.592856 156.32345 
L 219.661698 155.7601 
L 222.688873 155.004213 
L 225.662313 154.0588 
L 228.570166 152.927631 
L 231.40084 151.615214 
L 234.143051 150.126782 
L 236.785869 148.468268 
L 239.318757 146.646282 
L 241.731619 144.668089 
L 244.014837 142.541573 
L 246.159308 140.275212 
L 248.156486 137.878039 
L 249.998408 135.359612 
L 251.677731 132.729968 
L 253.187762 129.999591 
L 254.522481 127.179365 
L 255.676568 124.280531 
L 256.645422 121.314646 
L 257.42518 118.293532 
L 258.012736 115.229232 
L 258.405745 112.133962 
L 258.602642 109.02006 
L 258.627273 107.46 
L 258.627273 107.46 
" clip-path="url(#p620a6dc0e2)" style="fill: none; stroke: #ff0000; stroke-linecap: square"/>
   </g>
   <g id="line2d_4">
    <path d="M 258.627273 107.46 
L 258.461127 103.954528 
L 257.964179 100.480485 
L 257.140885 97.069016 
L 255.998624 93.750706 
L 254.54764 90.555307 
L 252.800939 87.511465 
L 250.774183 84.64647 
L 248.485541 81.986009 
L 245.955532 79.553933 
L 243.20684 77.372048 
L 240.264107 75.459913 
L 237.153716 73.834674 
L 233.903553 72.5109 
L 230.542757 71.50046 
L 227.10146 70.812413 
L 223.610514 70.452927 
L 220.101216 70.425226 
L 216.60503 70.729558 
L 213.1533 71.363194 
L 209.776972 72.320454 
L 206.506317 73.592755 
L 203.370657 75.168691 
L 200.398106 77.034132 
L 197.615312 79.172354 
L 195.047225 81.564188 
L 192.71687 84.188188 
L 190.645138 87.020831 
L 188.850605 90.03672 
L 187.349357 93.208816 
L 186.154856 96.50868 
L 185.27781 99.906727 
L 184.726082 103.372492 
L 184.504619 106.874904 
L 184.615405 110.382562 
L 185.057449 113.864018 
L 185.826787 117.288058 
L 186.916521 120.623986 
L 188.316882 123.841893 
L 190.015314 126.91293 
L 191.99659 129.809562 
L 194.242948 132.505821 
L 196.734248 134.977533 
L 199.448154 137.202538 
L 202.360335 139.160889 
L 205.444682 140.835027 
L 208.673543 142.209944 
L 212.017968 143.273313 
L 215.447975 144.015599 
L 218.932811 144.430149 
L 222.441234 144.513245 
L 225.941789 144.264143 
L 229.403092 143.685075 
L 232.79411 142.781234 
L 236.084443 141.560723 
L 239.24459 140.034484 
L 242.24622 138.216201 
L 245.062421 136.122175 
L 247.667946 133.77118 
L 250.039434 131.184294 
L 252.155624 128.384709 
L 253.997544 125.397525 
L 255.548679 122.249523 
L 256.795124 118.968927 
L 257.725703 115.585149 
L 258.332074 112.128525 
L 258.6088 108.630045 
L 258.627273 107.46 
L 258.627273 107.46 
" clip-path="url(#p620a6dc0e2)" style="fill: none; stroke: #ff0000; stroke-width: 2; stroke-linecap: square"/>
   </g>
   <g id="line2d_5">
    <path d="M 258.627273 107.46 
L 258.516509 105.123019 
L 258.18521 102.80699 
L 257.636347 100.532677 
L 256.874841 98.320471 
L 255.907517 96.190204 
L 254.74305 94.160977 
L 253.391879 92.25098 
L 251.866118 90.477339 
L 250.179446 88.855956 
L 248.346984 87.401365 
L 246.385162 86.126609 
L 244.311568 85.043116 
L 242.144793 84.1606 
L 239.904263 83.486973 
L 237.610064 83.028275 
L 235.282767 82.788618 
L 232.943235 82.770151 
L 230.612444 82.973039 
L 228.311291 83.395463 
L 226.060406 84.033636 
L 223.879969 84.881837 
L 221.789529 85.93246 
L 219.807828 87.176088 
L 217.952632 88.60157 
L 216.240574 90.196125 
L 214.687004 91.945459 
L 213.30585 93.833887 
L 212.109494 95.84448 
L 211.108663 97.95921 
L 210.312328 100.15912 
L 209.727631 102.424485 
L 209.359812 104.734995 
L 209.21217 107.069936 
L 209.286028 109.408375 
L 209.580724 111.729345 
L 210.093616 114.012039 
L 210.820105 116.235991 
L 211.753679 118.381262 
L 212.885967 120.42862 
L 214.206818 122.359708 
L 215.70439 124.157214 
L 217.365256 125.805022 
L 219.174527 127.288359 
L 221.115981 128.593926 
L 223.172212 129.710018 
L 225.324786 130.626629 
L 227.554403 131.335542 
L 229.841074 131.830399 
L 232.164298 132.106766 
L 234.503247 132.162163 
L 236.83695 131.996095 
L 239.144485 131.61005 
L 241.405164 131.00749 
L 243.598719 130.193815 
L 245.705484 129.176323 
L 247.706571 127.964134 
L 249.584038 126.568116 
L 251.321055 125.000787 
L 252.902047 123.276196 
L 254.31284 121.409806 
L 255.540787 119.41835 
L 256.574877 117.319682 
L 257.40584 115.132618 
L 258.026227 112.876766 
L 258.430474 110.57235 
L 258.614957 108.24003 
L 258.627273 107.46 
L 258.627273 107.46 
" clip-path="url(#p620a6dc0e2)" style="fill: none; stroke: #ff0000; stroke-linecap: square"/>
   </g>
   <g id="line2d_6">
    <path d="M 258.627273 107.46 
L 258.528873 105.903825 
L 258.235242 104.372439 
L 257.751057 102.890235 
L 257.08403 101.480825 
L 256.244786 100.166659 
L 255.246695 98.96867 
L 254.105655 97.905942 
L 252.839843 96.995403 
L 251.46942 96.251558 
L 250.016219 95.686255 
L 248.503386 95.3085 
L 246.95502 95.124309 
L 245.395786 95.136617 
L 243.85052 95.345228 
L 242.343839 95.746818 
L 240.899743 96.334991 
L 239.541234 97.100377 
L 238.289952 98.030785 
L 237.165831 99.111393 
L 236.186776 100.324989 
L 235.368383 101.65224 
L 234.723689 103.072005 
L 234.262962 104.561667 
L 233.993542 106.097497 
L 233.919721 107.655032 
L 234.042675 109.209459 
L 234.360444 110.736019 
L 234.867968 112.210395 
L 235.557161 113.6091 
L 236.417045 114.909854 
L 237.433924 116.091937 
L 238.591598 117.13652 
L 239.871627 118.026963 
L 241.253621 118.749082 
L 242.715566 119.291373 
L 244.234173 119.6452 
L 245.785254 119.804925 
L 247.3441 119.768004 
L 248.885879 119.535025 
L 250.386033 119.1097 
L 251.820665 118.498804 
L 253.166922 117.712067 
L 254.403359 116.762022 
L 255.510282 115.663803 
L 256.470056 114.434903 
L 257.267395 113.094898 
L 257.889597 111.665133 
L 258.32675 110.168383 
L 258.571891 108.628491 
L 258.627273 107.46 
L 258.627273 107.46 
" clip-path="url(#p620a6dc0e2)" style="fill: none; stroke: #ff0000; stroke-linecap: square"/>
   </g>
   <g id="line2d_7">
    <path d="M 184.5 107.46 
L 184.333854 103.954528 
L 183.836906 100.480485 
L 183.013612 97.069016 
L 181.871352 93.750706 
L 180.420367 90.555307 
L 178.673666 87.511465 
L 176.64691 84.64647 
L 174.358268 81.986009 
L 171.82826 79.553933 
L 169.079567 77.372048 
L 166.136834 75.459913 
L 163.026443 73.834674 
L 159.77628 72.5109 
L 156.415485 71.50046 
L 152.974187 70.812413 
L 149.483241 70.452927 
L 145.973944 70.425226 
L 142.477758 70.729558 
L 139.026027 71.363194 
L 135.6497 72.320454 
L 132.379044 73.592755 
L 129.243385 75.168691 
L 126.270833 77.034132 
L 123.488039 79.172354 
L 120.919953 81.564188 
L 118.589597 84.188188 
L 116.517866 87.020831 
L 114.723332 90.03672 
L 113.222085 93.208816 
L 112.027583 96.50868 
L 111.150537 99.906727 
L 110.598809 103.372492 
L 110.377346 106.874904 
L 110.488133 110.382562 
L 110.930177 113.864018 
L 111.699514 117.288058 
L 112.789248 120.623986 
L 114.189609 123.841893 
L 115.888041 126.91293 
L 117.869317 129.809562 
L 120.115675 132.505821 
L 122.606975 134.977533 
L 125.320881 137.202538 
L 128.233062 139.160889 
L 131.317409 140.835027 
L 134.54627 142.209944 
L 137.890695 143.273313 
L 141.320702 144.015599 
L 144.805539 144.430149 
L 148.313961 144.513245 
L 151.814516 144.264143 
L 155.275819 143.685075 
L 158.666837 142.781234 
L 161.95717 141.560723 
L 165.117317 140.034484 
L 168.118947 138.216201 
L 170.935148 136.122175 
L 173.540673 133.77118 
L 175.912161 131.184294 
L 178.028351 128.384709 
L 179.870271 125.397525 
L 181.421406 122.249523 
L 182.667851 118.968927 
L 183.598431 115.585149 
L 184.204801 112.128525 
L 184.481527 108.630045 
L 184.5 107.46 
L 184.5 107.46 
" clip-path="url(#p620a6dc0e2)" style="fill: none; stroke: #bf00bf; stroke-linecap: square"/>
   </g>
   <g id="line2d_8">
    <path d="M 258.627273 107.46 
L 249.64589 107.568836 
L 240.669782 107.89528 
L 231.70422 108.43914 
L 222.75447 109.200096 
L 213.825788 110.177703 
L 204.923417 111.371385 
L 196.052586 112.780442 
L 187.218505 114.404046 
L 178.426362 116.241244 
L 169.68132 118.290956 
L 160.988515 120.551979 
L 152.353052 123.022985 
L 143.780004 125.702523 
L 135.274405 128.589019 
L 126.841249 131.680778 
L 118.485491 134.975984 
L 116.074825 135.97049 
L 116.074825 135.97049 
" clip-path="url(#p620a6dc0e2)" style="fill: none; stroke: #0000ff; stroke-linecap: square"/>
   </g>
   <g id="line2d_9">
    <path d="M 258.627273 107.46 
L 252.847049 107.572724 
L 247.075614 107.910725 
L 241.321746 108.473488 
L 235.594195 109.260158 
L 229.901669 110.269539 
L 224.252826 111.500095 
L 218.656255 112.949956 
L 213.120468 114.616916 
L 207.653882 116.498441 
L 202.26481 118.59167 
L 196.961448 120.893418 
L 191.75186 123.400187 
L 186.643968 126.108164 
L 181.64554 129.013231 
L 176.764176 132.110971 
L 172.007301 135.396672 
L 167.382146 138.865338 
L 162.895747 142.511695 
L 158.554925 146.330198 
L 154.366281 150.315039 
L 150.336185 154.46016 
L 146.470765 158.759256 
L 142.7759 163.205791 
L 140.023636 166.761818 
L 140.023636 166.761818 
" clip-path="url(#p620a6dc0e2)" style="fill: none; stroke: #0000ff; stroke-linecap: square"/>
   </g>
   <g id="line2d_10">
    <path d="M 258.627273 107.46 
L 257.703179 107.46576 
L 256.779229 107.48304 
L 255.855565 107.511837 
L 254.932333 107.552146 
L 254.009675 107.603961 
L 253.087735 107.667275 
L 252.166655 107.742077 
L 251.24658 107.828355 
L 250.327651 107.926097 
L 249.410013 108.035286 
L 248.493807 108.155907 
L 247.579176 108.28794 
L 246.666262 108.431365 
L 245.755207 108.58616 
L 244.846152 108.7523 
L 243.93924 108.929759 
L 243.034609 109.118511 
L 242.132403 109.318525 
L 241.23276 109.529772 
L 240.33582 109.752216 
L 239.441723 109.985826 
L 238.550607 110.230563 
L 237.662612 110.48639 
L 236.777876 110.753267 
L 235.896534 111.031153 
L 235.018726 111.320004 
L 234.144587 111.619776 
L 233.274252 111.930422 
L 232.407858 112.251893 
L 231.545539 112.58414 
L 230.687429 112.927112 
L 229.833661 113.280754 
L 228.984368 113.645012 
L 228.139681 114.01983 
L 227.299734 114.405148 
L 226.464654 114.800908 
L 225.634574 115.207047 
L 224.809621 115.623502 
L 223.989924 116.05021 
L 223.17561 116.487103 
L 222.366805 116.934113 
L 221.563636 117.391171 
L 220.766228 117.858207 
L 219.974703 118.335147 
L 219.189186 118.821917 
L 218.409798 119.318442 
L 217.63666 119.824644 
L 216.869893 120.340446 
L 216.109616 120.865766 
L 215.355946 121.400523 
L 214.609002 121.944634 
L 213.868899 122.498014 
L 213.135751 123.060578 
L 212.409674 123.632237 
L 211.69078 124.212904 
L 210.97918 124.802487 
L 210.274986 125.400896 
L 209.578306 126.008037 
L 208.889249 126.623816 
L 208.207923 127.248137 
L 207.534432 127.880903 
L 206.868882 128.522016 
L 206.211376 129.171376 
L 205.562016 129.828882 
L 204.920903 130.494432 
L 204.288137 131.167923 
L 203.663816 131.849249 
L 203.048037 132.538306 
L 202.440896 133.234986 
L 201.842487 133.93918 
L 201.252904 134.65078 
L 200.672237 135.369674 
L 200.100578 136.095751 
L 199.538014 136.828899 
L 198.984634 137.569002 
L 198.440523 138.315946 
L 197.905766 139.069616 
L 197.380446 139.829893 
L 196.864644 140.59666 
L 196.358442 141.369798 
L 195.861917 142.149186 
L 195.375147 142.934703 
L 194.898207 143.726228 
L 194.431171 144.523636 
L 193.974113 145.326805 
L 193.527103 146.13561 
L 193.09021 146.949924 
L 192.663502 147.769621 
L 192.247047 148.594574 
L 191.840908 149.424654 
L 191.445148 150.259734 
L 191.05983 151.099681 
L 190.685012 151.944368 
L 190.320754 152.793661 
L 189.967112 153.647429 
L 189.62414 154.505539 
L 189.291893 155.367858 
L 188.970422 156.234252 
L 188.659776 157.104587 
L 188.360004 157.978726 
L 188.071153 158.856534 
L 187.793267 159.737876 
L 187.52639 160.622612 
L 187.270563 161.510607 
L 187.025826 162.401723 
L 186.792216 163.29582 
L 186.569772 164.19276 
L 186.358525 165.092403 
L 186.158511 165.994609 
L 185.969759 166.89924 
L 185.7923 167.806152 
L 185.62616 168.715207 
L 185.471365 169.626262 
L 185.32794 170.539176 
L 185.195907 171.453807 
L 185.075286 172.370013 
L 184.966097 173.287651 
L 184.868355 174.20658 
L 184.782077 175.126655 
L 184.707275 176.047735 
L 184.643961 176.969675 
L 184.592146 177.892333 
L 184.551837 178.815565 
L 184.52304 179.739229 
L 184.50576 180.663179 
L 184.5 181.587273 
" clip-path="url(#p620a6dc0e2)" style="fill: none; stroke: #0000ff; stroke-linecap: square"/>
   </g>
   <g id="line2d_11">
    <path d="M 258.627273 107.46 
L 257.705234 107.471471 
L 256.783766 107.505875 
L 255.863439 107.563193 
L 254.944823 107.643388 
L 254.028486 107.746411 
L 253.114995 107.872198 
L 252.204917 108.020671 
L 251.298814 108.191738 
L 250.397247 108.385294 
L 249.500774 108.601218 
L 248.60995 108.839377 
L 247.725326 109.099623 
L 246.847451 109.381796 
L 245.976866 109.685721 
L 245.114113 110.011209 
L 244.259723 110.358059 
L 243.414226 110.726057 
L 242.578146 111.114975 
L 241.752 111.524571 
L 240.936299 111.954593 
L 240.131548 112.404774 
L 239.338245 112.874836 
L 238.556882 113.364488 
L 237.787942 113.873426 
L 237.0319 114.401335 
L 236.289226 114.94789 
L 235.560378 115.51275 
L 234.845808 116.095568 
L 234.145958 116.695982 
L 233.461261 117.31362 
L 232.792141 117.948101 
L 232.139012 118.599031 
L 231.502279 119.266007 
L 230.882335 119.948617 
L 230.279564 120.646439 
L 229.69434 121.35904 
L 229.127025 122.085978 
L 228.577969 122.826805 
L 228.047513 123.581062 
L 227.535984 124.348282 
L 227.043701 125.127989 
L 226.570966 125.919702 
L 226.118074 126.72293 
L 225.685304 127.537177 
L 225.272923 128.361937 
L 224.881189 129.196701 
L 224.510342 130.040952 
L 224.160612 130.894167 
L 223.832216 131.755818 
L 223.525357 132.625373 
L 223.240226 133.502292 
L 222.976997 134.386033 
L 222.735836 135.276048 
L 222.51689 136.171788 
L 222.320295 137.072697 
L 222.146173 137.978218 
L 221.994632 138.887791 
L 221.865765 139.800852 
L 221.759653 140.716836 
L 221.67636 141.635177 
L 221.615939 142.555305 
L 221.578427 143.476652 
L 221.563847 144.398647 
L 221.572208 145.320719 
L 221.603505 146.242298 
L 221.657719 147.162813 
L 221.734816 148.081694 
L 221.834748 148.998373 
L 221.957454 149.912283 
L 222.102857 150.822857 
L 222.270867 151.729532 
L 222.461381 152.631747 
L 222.674281 153.528943 
L 222.909435 154.420565 
L 223.166697 155.306061 
L 223.445907 156.184883 
L 223.746894 157.056487 
L 224.069471 157.920334 
L 224.413438 158.775888 
L 224.778583 159.622621 
L 225.164679 160.460008 
L 225.571487 161.287531 
L 225.998756 162.104678 
L 226.44622 162.910942 
L 226.913604 163.705825 
L 227.400618 164.488835 
L 227.90696 165.259487 
L 228.432317 166.017305 
L 228.976364 166.761818 
" clip-path="url(#p620a6dc0e2)" style="fill: none; stroke: #0000ff; stroke-linecap: square"/>
   </g>
   <g id="line2d_12">
    <path d="M 258.627273 107.46 
L 258.053858 107.471093 
L 257.481302 107.504357 
L 256.910461 107.55974 
L 256.342189 107.637161 
L 255.777336 107.736504 
L 255.216749 107.857619 
L 254.661265 108.000326 
L 254.111717 108.164411 
L 253.568927 108.349629 
L 253.033706 108.555702 
L 252.506856 108.782321 
L 251.989166 109.029149 
L 251.481409 109.295815 
L 250.984347 109.58192 
L 250.498723 109.887036 
L 250.025263 110.210707 
L 249.564676 110.552448 
L 249.117651 110.911748 
L 248.684858 111.288069 
L 248.266944 111.680847 
L 247.864535 112.089496 
L 247.478232 112.513403 
L 247.108614 112.951934 
L 246.756234 113.404433 
L 246.421619 113.870223 
L 246.10527 114.348607 
L 245.807661 114.838868 
L 245.529237 115.340273 
L 245.270414 115.852071 
L 245.03158 116.373498 
L 244.813092 116.903771 
L 244.615278 117.442099 
L 244.438432 117.987675 
L 244.282821 118.539682 
L 244.148677 119.097295 
L 244.0362 119.65968 
L 243.945559 120.225994 
L 243.876889 120.79539 
L 243.830294 121.367015 
L 243.805843 121.940016 
L 243.803573 122.513533 
L 243.823486 123.086709 
L 243.865554 123.658685 
L 243.929713 124.228607 
L 244.015867 124.795621 
L 244.123888 125.358878 
L 244.253613 125.917536 
L 244.404849 126.470758 
L 244.577369 127.017717 
L 244.770915 127.557594 
L 244.985197 128.089581 
L 245.219896 128.612882 
L 245.474658 129.126714 
L 245.749104 129.630308 
L 246.042822 130.12291 
L 246.355373 130.603783 
L 246.68629 131.072207 
L 247.035076 131.527482 
L 247.40121 131.968926 
L 247.784145 132.395879 
L 248.183306 132.807701 
L 248.598097 133.203776 
L 249.027897 133.583512 
L 249.472063 133.946339 
L 249.929929 134.291716 
L 250.400812 134.619126 
L 250.884005 134.928077 
L 251.378787 135.218109 
L 251.884416 135.488787 
L 252.400136 135.739706 
L 252.925175 135.97049 
" clip-path="url(#p620a6dc0e2)" style="fill: none; stroke: #0000ff; stroke-linecap: square"/>
   </g>
   <g id="line2d_13">
    <path d="M 116.074825 78.94951 
L 124.407192 82.303425 
L 132.818386 85.454441 
L 141.303466 88.40071 
L 149.857449 91.1405 
L 158.475312 93.672202 
L 167.151994 95.99433 
L 175.882398 98.10552 
L 184.661398 100.004533 
L 193.483837 101.690251 
L 202.344534 103.161687 
L 211.238286 104.417975 
L 220.159869 105.458378 
L 229.104044 106.282285 
L 238.065557 106.889211 
L 247.039146 107.278801 
L 256.019541 107.450826 
L 258.627273 107.46 
L 258.627273 107.46 
" clip-path="url(#p620a6dc0e2)" style="fill: none; stroke: #0000ff; stroke-linecap: square"/>
   </g>
   <g id="line2d_14">
    <path d="M 140.023636 48.158182 
L 143.58195 52.714727 
L 147.315211 57.129074 
L 151.217743 61.39451 
L 155.28361 65.504549 
L 159.50663 69.452942 
L 163.880381 73.233682 
L 168.398212 76.841022 
L 173.053252 80.269476 
L 177.838424 83.51383 
L 182.74645 86.56915 
L 187.769866 89.430791 
L 192.901034 92.0944 
L 198.132151 94.555927 
L 203.455261 96.81163 
L 208.862271 98.858077 
L 214.344957 100.692156 
L 219.894983 102.31108 
L 225.503908 103.712385 
L 231.163203 104.893941 
L 236.864263 105.853951 
L 242.598417 106.590956 
L 248.356946 107.103834 
L 254.131093 107.391806 
L 258.627273 107.46 
L 258.627273 107.46 
" clip-path="url(#p620a6dc0e2)" style="fill: none; stroke: #0000ff; stroke-linecap: square"/>
   </g>
   <g id="line2d_15">
    <path d="M 184.5 33.332727 
L 184.50576 34.256821 
L 184.52304 35.180771 
L 184.551837 36.104435 
L 184.592146 37.027667 
L 184.643961 37.950325 
L 184.707275 38.872265 
L 184.782077 39.793345 
L 184.868355 40.71342 
L 184.966097 41.632349 
L 185.075286 42.549987 
L 185.195907 43.466193 
L 185.32794 44.380824 
L 185.471365 45.293738 
L 185.62616 46.204793 
L 185.7923 47.113848 
L 185.969759 48.02076 
L 186.158511 48.925391 
L 186.358525 49.827597 
L 186.569772 50.72724 
L 186.792216 51.62418 
L 187.025826 52.518277 
L 187.270563 53.409393 
L 187.52639 54.297388 
L 187.793267 55.182124 
L 188.071153 56.063466 
L 188.360004 56.941274 
L 188.659776 57.815413 
L 188.970422 58.685748 
L 189.291893 59.552142 
L 189.62414 60.414461 
L 189.967112 61.272571 
L 190.320754 62.126339 
L 190.685012 62.975632 
L 191.05983 63.820319 
L 191.445148 64.660266 
L 191.840908 65.495346 
L 192.247047 66.325426 
L 192.663502 67.150379 
L 193.09021 67.970076 
L 193.527103 68.78439 
L 193.974113 69.593195 
L 194.431171 70.396364 
L 194.898207 71.193772 
L 195.375147 71.985297 
L 195.861917 72.770814 
L 196.358442 73.550202 
L 196.864644 74.32334 
L 197.380446 75.090107 
L 197.905766 75.850384 
L 198.440523 76.604054 
L 198.984634 77.350998 
L 199.538014 78.091101 
L 200.100578 78.824249 
L 200.672237 79.550326 
L 201.252904 80.26922 
L 201.842487 80.98082 
L 202.440896 81.685014 
L 203.048037 82.381694 
L 203.663816 83.070751 
L 204.288137 83.752077 
L 204.920903 84.425568 
L 205.562016 85.091118 
L 206.211376 85.748624 
L 206.868882 86.397984 
L 207.534432 87.039097 
L 208.207923 87.671863 
L 208.889249 88.296184 
L 209.578306 88.911963 
L 210.274986 89.519104 
L 210.97918 90.117513 
L 211.69078 90.707096 
L 212.409674 91.287763 
L 213.135751 91.859422 
L 213.868899 92.421986 
L 214.609002 92.975366 
L 215.355946 93.519477 
L 216.109616 94.054234 
L 216.869893 94.579554 
L 217.63666 95.095356 
L 218.409798 95.601558 
L 219.189186 96.098083 
L 219.974703 96.584853 
L 220.766228 97.061793 
L 221.563636 97.528829 
L 222.366805 97.985887 
L 223.17561 98.432897 
L 223.989924 98.86979 
L 224.809621 99.296498 
L 225.634574 99.712953 
L 226.464654 100.119092 
L 227.299734 100.514852 
L 228.139681 100.90017 
L 228.984368 101.274988 
L 229.833661 101.639246 
L 230.687429 101.992888 
L 231.545539 102.33586 
L 232.407858 102.668107 
L 233.274252 102.989578 
L 234.144587 103.300224 
L 235.018726 103.599996 
L 235.896534 103.888847 
L 236.777876 104.166733 
L 237.662612 104.43361 
L 238.550607 104.689437 
L 239.441723 104.934174 
L 240.33582 105.167784 
L 241.23276 105.390228 
L 242.132403 105.601475 
L 243.034609 105.801489 
L 243.93924 105.990241 
L 244.846152 106.1677 
L 245.755207 106.33384 
L 246.666262 106.488635 
L 247.579176 106.63206 
L 248.493807 106.764093 
L 249.410013 106.884714 
L 250.327651 106.993903 
L 251.24658 107.091645 
L 252.166655 107.177923 
L 253.087735 107.252725 
L 254.009675 107.316039 
L 254.932333 107.367854 
L 255.855565 107.408163 
L 256.779229 107.43696 
L 257.703179 107.45424 
L 258.627273 107.46 
" clip-path="url(#p620a6dc0e2)" style="fill: none; stroke: #0000ff; stroke-linecap: square"/>
   </g>
   <g id="line2d_16">
    <path d="M 228.976364 48.158182 
L 228.432317 48.902695 
L 227.90696 49.660513 
L 227.400618 50.431165 
L 226.913604 51.214175 
L 226.44622 52.009058 
L 225.998756 52.815322 
L 225.571487 53.632469 
L 225.164679 54.459992 
L 224.778583 55.297379 
L 224.413438 56.144112 
L 224.069471 56.999666 
L 223.746894 57.863513 
L 223.445907 58.735117 
L 223.166697 59.613939 
L 222.909435 60.499435 
L 222.674281 61.391057 
L 222.461381 62.288253 
L 222.270867 63.190468 
L 222.102857 64.097143 
L 221.957454 65.007717 
L 221.834748 65.921627 
L 221.734816 66.838306 
L 221.657719 67.757187 
L 221.603505 68.677702 
L 221.572208 69.599281 
L 221.563847 70.521353 
L 221.578427 71.443348 
L 221.615939 72.364695 
L 221.67636 73.284823 
L 221.759653 74.203164 
L 221.865765 75.119148 
L 221.994632 76.032209 
L 222.146173 76.941782 
L 222.320295 77.847303 
L 222.51689 78.748212 
L 222.735836 79.643952 
L 222.976997 80.533967 
L 223.240226 81.417708 
L 223.525357 82.294627 
L 223.832216 83.164182 
L 224.160612 84.025833 
L 224.510342 84.879048 
L 224.881189 85.723299 
L 225.272923 86.558063 
L 225.685304 87.382823 
L 226.118074 88.19707 
L 226.570966 89.000298 
L 227.043701 89.792011 
L 227.535984 90.571718 
L 228.047513 91.338938 
L 228.577969 92.093195 
L 229.127025 92.834022 
L 229.69434 93.56096 
L 230.279564 94.273561 
L 230.882335 94.971383 
L 231.502279 95.653993 
L 232.139012 96.320969 
L 232.792141 96.971899 
L 233.461261 97.60638 
L 234.145958 98.224018 
L 234.845808 98.824432 
L 235.560378 99.40725 
L 236.289226 99.97211 
L 237.0319 100.518665 
L 237.787942 101.046574 
L 238.556882 101.555512 
L 239.338245 102.045164 
L 240.131548 102.515226 
L 240.936299 102.965407 
L 241.752 103.395429 
L 242.578146 103.805025 
L 243.414226 104.193943 
L 244.259723 104.561941 
L 245.114113 104.908791 
L 245.976866 105.234279 
L 246.847451 105.538204 
L 247.725326 105.820377 
L 248.60995 106.080623 
L 249.500774 106.318782 
L 250.397247 106.534706 
L 251.298814 106.728262 
L 252.204917 106.899329 
L 253.114995 107.047802 
L 254.028486 107.173589 
L 254.944823 107.276612 
L 255.863439 107.356807 
L 256.783766 107.414125 
L 257.705234 107.448529 
L 258.627273 107.46 
" clip-path="url(#p620a6dc0e2)" style="fill: none; stroke: #0000ff; stroke-linecap: square"/>
   </g>
   <g id="line2d_17">
    <path d="M 252.925175 78.94951 
L 252.400136 79.180294 
L 251.884416 79.431213 
L 251.378787 79.701891 
L 250.884005 79.991923 
L 250.400812 80.300874 
L 249.929929 80.628284 
L 249.472063 80.973661 
L 249.027897 81.336488 
L 248.598097 81.716224 
L 248.183306 82.112299 
L 247.784145 82.524121 
L 247.40121 82.951074 
L 247.035076 83.392518 
L 246.68629 83.847793 
L 246.355373 84.316217 
L 246.042822 84.79709 
L 245.749104 85.289692 
L 245.474658 85.793286 
L 245.219896 86.307118 
L 244.985197 86.830419 
L 244.770915 87.362406 
L 244.577369 87.902283 
L 244.404849 88.449242 
L 244.253613 89.002464 
L 244.123888 89.561122 
L 244.015867 90.124379 
L 243.929713 90.691393 
L 243.865554 91.261315 
L 243.823486 91.833291 
L 243.803573 92.406467 
L 243.805843 92.979984 
L 243.830294 93.552985 
L 243.876889 94.12461 
L 243.945559 94.694006 
L 244.0362 95.26032 
L 244.148677 95.822705 
L 244.282821 96.380318 
L 244.438432 96.932325 
L 244.615278 97.477901 
L 244.813092 98.016229 
L 245.03158 98.546502 
L 245.270414 99.067929 
L 245.529237 99.579727 
L 245.807661 100.081132 
L 246.10527 100.571393 
L 246.421619 101.049777 
L 246.756234 101.515567 
L 247.108614 101.968066 
L 247.478232 102.406597 
L 247.864535 102.830504 
L 248.266944 103.239153 
L 248.684858 103.631931 
L 249.117651 104.008252 
L 249.564676 104.367552 
L 250.025263 104.709293 
L 250.498723 105.032964 
L 250.984347 105.33808 
L 251.481409 105.624185 
L 251.989166 105.890851 
L 252.506856 106.137679 
L 253.033706 106.364298 
L 253.568927 106.570371 
L 254.111717 106.755589 
L 254.661265 106.919674 
L 255.216749 107.062381 
L 255.777336 107.183496 
L 256.342189 107.282839 
L 256.910461 107.36026 
L 257.481302 107.415643 
L 258.053858 107.448907 
L 258.627273 107.46 
" clip-path="url(#p620a6dc0e2)" style="fill: none; stroke: #0000ff; stroke-linecap: square"/>
   </g>
   <g id="line2d_18">
    <path d="M 110.372727 107.46 
L 117.785455 107.46 
L 125.198182 107.46 
L 132.610909 107.46 
L 140.023636 107.46 
L 147.436364 107.46 
L 154.849091 107.46 
L 162.261818 107.46 
L 169.674545 107.46 
L 177.087273 107.46 
L 184.5 107.46 
L 191.912727 107.46 
L 199.325455 107.46 
L 206.738182 107.46 
L 214.150909 107.46 
L 221.563636 107.46 
L 228.976364 107.46 
L 236.389091 107.46 
L 243.801818 107.46 
L 251.214545 107.46 
" clip-path="url(#p620a6dc0e2)" style="fill: none; stroke: #0000ff; stroke-width: 2; stroke-linecap: square"/>
   </g>
   <g id="line2d_19">
    <path d="M 184.5 107.46 
L 184.5 107.46 
" clip-path="url(#p620a6dc0e2)" style="fill: none; stroke: #000000; stroke-linecap: square"/>
   </g>
   <g id="line2d_20">
    <path d="M 210.735832 107.46 
L 210.618224 104.97862 
L 210.266455 102.519487 
L 209.683679 100.104647 
L 208.87512 97.755752 
L 207.848027 95.493859 
L 206.611609 93.339248 
L 205.176951 91.311236 
L 203.556915 89.428004 
L 201.766025 87.706437 
L 199.820339 86.161969 
L 197.737298 84.808447 
L 195.53558 83.658007 
L 193.234922 82.720961 
L 190.855953 82.005712 
L 188.419999 81.518672 
L 185.948901 81.264207 
L 183.464813 81.244598 
L 180.990006 81.460022 
L 178.546667 81.908548 
L 176.156703 82.586153 
L 173.84154 83.486763 
L 171.621934 84.602303 
L 169.517786 85.922772 
L 167.547961 87.436333 
L 165.730117 89.129414 
L 164.080554 90.986836 
L 162.61406 92.991948 
L 161.343783 95.126772 
L 160.281111 97.372169 
L 159.435573 99.708008 
L 158.814748 102.113347 
L 158.424202 104.566621 
L 158.267437 107.045835 
L 158.345859 109.528762 
L 158.658763 111.993142 
L 159.203346 114.416881 
L 159.974724 116.778247 
L 160.965982 119.056072 
L 162.168233 121.229933 
L 163.570697 123.280341 
L 165.160802 125.188912 
L 166.924292 126.938536 
L 168.845355 128.513526 
L 170.906769 129.899763 
L 173.090052 131.084817 
L 175.37563 132.058064 
L 177.743012 132.810779 
L 180.170973 133.336213 
L 182.637747 133.629656 
L 185.121216 133.688477 
L 187.599115 133.512147 
L 190.04923 133.102249 
L 192.449593 132.462457 
L 194.778685 131.598507 
L 197.015624 130.518145 
L 199.140355 129.231057 
L 201.133829 127.748781 
L 202.978173 126.084608 
L 204.656852 124.253457 
L 206.154817 122.271746 
L 207.458636 120.15724 
L 208.556622 117.928899 
L 209.438929 115.606699 
L 210.097648 113.211461 
L 210.526873 110.764658 
L 210.722756 108.288227 
L 210.735832 107.46 
L 210.735832 107.46 
" clip-path="url(#p620a6dc0e2)" style="fill: none; stroke: #000000; stroke-linecap: square"/>
   </g>
   <g id="line2d_21">
    <path d="M 220.285912 107.46 
L 220.125494 104.075375 
L 219.645677 100.721095 
L 218.850765 97.427233 
L 217.747883 94.223318 
L 216.346919 91.138076 
L 214.660434 88.199167 
L 212.703547 85.43294 
L 210.493804 82.864195 
L 208.051014 80.515962 
L 205.39708 78.409294 
L 202.555794 76.563078 
L 199.55263 74.993867 
L 196.414513 73.715728 
L 193.169577 72.740122 
L 189.846914 72.075795 
L 186.476314 71.728702 
L 183.087995 71.701956 
L 179.712336 71.995796 
L 176.3796 72.607589 
L 173.119667 73.531848 
L 169.961764 74.760288 
L 166.934202 76.281895 
L 164.064126 78.083027 
L 161.377265 80.147537 
L 158.897711 82.456915 
L 156.647691 84.990456 
L 154.64738 87.725447 
L 152.914711 90.637366 
L 151.465218 93.700108 
L 150.311895 96.886213 
L 149.465084 100.167117 
L 148.932376 103.513404 
L 148.718548 106.895075 
L 148.825515 110.28181 
L 149.25232 113.643247 
L 149.995136 116.949248 
L 151.047303 120.170174 
L 152.399387 123.277147 
L 154.039268 126.242313 
L 155.952242 129.039088 
L 158.12116 131.642396 
L 160.526575 134.028899 
L 163.146923 136.1772 
L 165.95871 138.068039 
L 168.936727 139.684463 
L 172.054277 141.011981 
L 175.283407 142.038691 
L 178.595169 142.755388 
L 181.959869 143.155647 
L 185.347344 143.235879 
L 188.727221 142.995364 
L 192.069199 142.436259 
L 195.343317 141.563577 
L 198.520219 140.385141 
L 201.571424 138.911518 
L 204.469576 137.155918 
L 207.188692 135.13408 
L 209.704394 132.864133 
L 211.994128 130.366427 
L 214.037365 127.663355 
L 215.815787 124.77915 
L 217.313449 121.739672 
L 218.516924 118.572171 
L 219.415423 115.305044 
L 220.00089 111.967583 
L 220.268076 108.589709 
L 220.285912 107.46 
L 220.285912 107.46 
" clip-path="url(#p620a6dc0e2)" style="fill: none; stroke: #000000; stroke-linecap: square"/>
   </g>
   <g id="line2d_22">
    <path d="M 226.838395 107.46 
L 226.754008 104.788209 
L 226.501185 102.127068 
L 226.080932 99.487186 
L 225.494926 96.879086 
L 224.745502 94.313165 
L 223.835647 91.799651 
L 222.768989 89.348563 
L 221.54978 86.969673 
L 220.182879 84.672464 
L 218.673736 82.466092 
L 217.028367 80.359353 
L 215.253329 78.360646 
L 213.3557 76.477937 
L 211.343044 74.718731 
L 209.223384 73.090042 
L 207.005168 71.598362 
L 204.697241 70.249637 
L 202.308801 69.049243 
L 199.849371 68.001965 
L 197.328753 67.111979 
L 194.756996 66.382832 
L 192.144352 65.817431 
L 189.501235 65.418029 
L 186.838182 65.186219 
L 184.165808 65.122924 
L 181.494766 65.228397 
L 178.835704 65.502218 
L 176.199221 65.943295 
L 173.595828 66.54987 
L 171.035902 67.319525 
L 168.529648 68.249191 
L 166.087056 69.335163 
L 163.717864 70.573112 
L 161.431516 71.958103 
L 159.237125 73.484614 
L 157.143439 75.146562 
L 155.158805 76.937321 
L 153.291133 78.849751 
L 151.547869 80.876231 
L 149.935962 83.008681 
L 148.461838 85.238602 
L 147.131372 87.557103 
L 145.949868 89.954944 
L 144.922036 92.422564 
L 144.051974 94.950128 
L 143.34315 97.527561 
L 142.798388 100.144586 
L 142.419862 102.790774 
L 142.209079 105.455574 
L 142.166881 108.128364 
L 142.293435 110.79849 
L 142.588236 113.455308 
L 143.05011 116.088227 
L 143.677215 118.686751 
L 144.467052 121.240522 
L 145.416472 123.73936 
L 146.521691 126.173303 
L 147.778302 128.53265 
L 149.181297 130.807995 
L 150.725082 132.990268 
L 152.403504 135.07077 
L 154.209872 137.041208 
L 156.136986 138.893726 
L 158.177162 140.620939 
L 160.32227 142.215964 
L 162.563757 143.672441 
L 164.892688 144.984565 
L 167.299779 146.147105 
L 169.775436 147.155427 
L 172.309789 148.005511 
L 174.892736 148.693969 
L 177.51398 149.218056 
L 180.163073 149.575683 
L 182.829454 149.765425 
L 185.502494 149.786525 
L 188.171538 149.638899 
L 190.825946 149.323135 
L 193.455137 148.840493 
L 196.04863 148.192896 
L 198.596087 147.382926 
L 201.087353 146.413811 
L 203.512497 145.289415 
L 205.861852 144.01422 
L 208.126051 142.593309 
L 210.296071 141.032346 
L 212.36326 139.337554 
L 214.319377 137.515689 
L 216.156626 135.574013 
L 217.867682 133.520266 
L 219.445725 131.362635 
L 220.884464 129.109722 
L 222.178164 126.770506 
L 223.321667 124.354313 
L 224.310416 121.870775 
L 225.140469 119.32979 
L 225.808518 116.74149 
L 226.311898 114.11619 
L 226.648604 111.464357 
L 226.817293 108.796562 
L 226.838395 107.46 
L 226.838395 107.46 
" clip-path="url(#p620a6dc0e2)" style="fill: none; stroke: #000000; stroke-linecap: square"/>
   </g>
   <g id="line2d_23">
    <path d="M 231.792873 107.46 
L 231.698611 104.475553 
L 231.416202 101.503004 
L 230.946771 98.5542 
L 230.29219 95.640898 
L 229.455067 92.77471 
L 228.438741 89.967062 
L 227.247261 87.229146 
L 225.885379 84.571876 
L 224.358522 82.005845 
L 222.672778 79.541282 
L 220.834866 77.188011 
L 218.852112 74.955413 
L 216.732421 72.852387 
L 214.484242 70.887318 
L 212.116536 69.068038 
L 209.638744 67.4018 
L 207.06074 65.895246 
L 204.392804 64.554381 
L 201.645568 63.38455 
L 198.829985 62.390417 
L 195.957279 61.575944 
L 193.038901 60.944379 
L 190.086484 60.498239 
L 187.111798 60.239302 
L 184.1267 60.168601 
L 181.14309 60.286417 
L 178.172863 60.592281 
L 175.227856 61.084973 
L 172.319812 61.762529 
L 169.460321 62.62225 
L 166.660783 63.660706 
L 163.932357 64.87376 
L 161.28592 66.256575 
L 158.73202 67.803638 
L 156.28084 69.508784 
L 153.94215 71.365214 
L 151.725272 73.365529 
L 149.639043 75.501754 
L 147.691781 77.765374 
L 145.891247 80.147366 
L 144.244619 82.638234 
L 142.758461 85.228048 
L 141.438696 87.906486 
L 140.290587 90.66287 
L 139.318709 93.486212 
L 138.526937 96.365257 
L 137.918428 99.28853 
L 137.495606 102.244377 
L 137.260157 105.221014 
L 137.213021 108.206577 
L 137.354384 111.189163 
L 137.683683 114.156884 
L 138.199606 117.09791 
L 138.900096 120.000516 
L 139.78236 122.853131 
L 140.842882 125.644385 
L 142.077434 128.363151 
L 143.481095 130.998591 
L 145.04827 133.540199 
L 146.77271 135.977844 
L 148.647543 138.301808 
L 150.665294 140.502828 
L 152.81792 142.572129 
L 155.09684 144.501463 
L 157.49297 146.283139 
L 159.996757 147.910054 
L 162.598222 149.375724 
L 165.286994 150.674305 
L 168.052354 151.800622 
L 170.88328 152.750184 
L 173.768485 153.519205 
L 176.69647 154.104622 
L 179.655562 154.504099 
L 182.633965 154.716044 
L 185.619807 154.739613 
L 188.601185 154.574712 
L 191.566214 154.221998 
L 194.503076 153.682876 
L 197.400062 152.959497 
L 200.245625 152.054743 
L 203.028421 150.972222 
L 205.737357 149.716248 
L 208.361635 148.291828 
L 210.890794 146.704641 
L 213.314751 144.961013 
L 215.623844 143.067895 
L 217.808868 141.032833 
L 219.861113 138.86394 
L 221.772399 136.569862 
L 223.535106 134.159744 
L 225.142207 131.643192 
L 226.587297 129.030239 
L 227.864614 126.331301 
L 228.969068 123.557137 
L 229.896254 120.718804 
L 230.642478 117.827618 
L 231.204765 114.895104 
L 231.580872 111.932951 
L 231.769301 108.952967 
L 231.792873 107.46 
L 231.792873 107.46 
" clip-path="url(#p620a6dc0e2)" style="fill: none; stroke: #000000; stroke-linecap: square"/>
   </g>
   <g id="line2d_24">
    <path d="M 235.716205 107.46 
L 235.614124 104.227969 
L 235.308286 101.008822 
L 234.799912 97.815391 
L 234.091028 94.660406 
L 233.184459 91.556445 
L 232.08382 88.515879 
L 230.793498 85.550831 
L 229.318636 82.673119 
L 227.665114 79.894214 
L 225.839524 77.225195 
L 223.849142 74.676701 
L 221.701902 72.25889 
L 219.406365 69.981402 
L 216.971681 67.853314 
L 214.407555 65.88311 
L 211.724209 64.078643 
L 208.932339 62.447108 
L 206.043075 60.995007 
L 203.067934 59.728129 
L 200.018775 58.651525 
L 196.907755 57.769485 
L 193.747273 57.085526 
L 190.549929 56.602375 
L 187.328468 56.321957 
L 184.095732 56.24539 
L 180.864607 56.37298 
L 177.647974 56.704218 
L 174.458656 57.237783 
L 171.309365 57.971549 
L 168.212656 58.90259 
L 165.180873 60.027195 
L 162.226102 61.340881 
L 159.360121 62.838412 
L 156.594355 64.513817 
L 153.939829 66.360419 
L 151.407125 68.370855 
L 149.006338 70.537112 
L 146.74704 72.850555 
L 144.638237 75.301961 
L 142.688334 77.881558 
L 140.905104 80.579064 
L 139.295657 83.383725 
L 137.866407 86.284361 
L 136.623053 89.26941 
L 135.57055 92.326971 
L 134.713094 95.444857 
L 134.054103 98.610639 
L 133.596205 101.811698 
L 133.341224 105.035272 
L 133.290177 108.268511 
L 133.443267 111.498528 
L 133.799885 114.712446 
L 134.358608 117.897454 
L 135.117209 121.040855 
L 136.072665 124.130118 
L 137.221166 127.15293 
L 138.558134 130.097239 
L 140.07824 132.951311 
L 141.775425 135.703766 
L 143.642922 138.343633 
L 145.673287 140.860389 
L 147.858427 143.244002 
L 150.189631 145.484969 
L 152.657606 147.574357 
L 155.252515 149.503837 
L 157.964012 151.265719 
L 160.78129 152.852978 
L 163.693117 154.259287 
L 166.687887 155.479041 
L 169.753661 156.507376 
L 172.878218 157.340195 
L 176.049103 157.974176 
L 179.253676 158.406793 
L 182.479162 158.636321 
L 185.712704 158.661846 
L 188.941412 158.483265 
L 192.152415 158.10129 
L 195.332913 157.517444 
L 198.470228 156.734054 
L 201.551854 155.754243 
L 204.565505 154.581918 
L 207.49917 153.221751 
L 210.341154 151.679164 
L 213.080127 149.960306 
L 215.705171 148.07203 
L 218.205822 146.021862 
L 220.572112 143.817975 
L 222.794608 141.469155 
L 224.864451 138.984765 
L 226.773389 136.374707 
L 228.513812 133.649387 
L 230.078784 130.819668 
L 231.462066 127.896831 
L 232.658142 124.892526 
L 233.662247 121.818731 
L 234.470376 118.687697 
L 235.079309 115.511907 
L 235.486617 112.304019 
L 235.690678 109.076821 
L 235.716205 107.46 
L 235.716205 107.46 
" clip-path="url(#p620a6dc0e2)" style="fill: none; stroke: #000000; stroke-linecap: square"/>
   </g>
   <g id="line2d_25">
    <path d="M 238.909659 107.46 
L 238.801213 104.026444 
L 238.476306 100.606575 
L 237.936234 97.214026 
L 237.183149 93.862321 
L 236.220053 90.56482 
L 235.050787 87.334668 
L 233.68001 84.184741 
L 232.113187 81.127596 
L 230.356564 78.175421 
L 228.417143 75.339982 
L 226.302656 72.632582 
L 224.021531 70.064016 
L 221.582861 67.64452 
L 218.996369 65.383741 
L 216.272364 63.29069 
L 213.421704 61.373711 
L 210.455755 59.640445 
L 207.386338 58.097802 
L 204.22569 56.751931 
L 200.986409 55.608198 
L 197.681408 54.671161 
L 194.323863 53.944556 
L 190.927156 53.431279 
L 187.50483 53.133376 
L 184.070525 53.052036 
L 180.637932 53.187581 
L 177.220734 53.539472 
L 173.832554 54.106306 
L 170.486897 54.885824 
L 167.197101 55.874918 
L 163.976279 57.069645 
L 160.83727 58.465242 
L 157.792588 60.056148 
L 154.85437 61.836019 
L 152.034328 63.79776 
L 149.343704 65.933552 
L 146.793223 68.234881 
L 144.393052 70.692572 
L 142.152759 73.296829 
L 140.081275 76.037271 
L 138.186857 78.902973 
L 136.477056 81.882511 
L 134.95869 84.964009 
L 133.637809 88.135182 
L 132.51968 91.38339 
L 131.60876 94.695684 
L 130.90868 98.05886 
L 130.42223 101.459512 
L 130.151351 104.884084 
L 130.097121 108.318924 
L 130.259756 111.75034 
L 130.63861 115.164654 
L 131.23217 118.548254 
L 132.038072 121.887654 
L 133.053103 125.16954 
L 134.273216 128.380832 
L 135.693547 131.508726 
L 137.308436 134.540756 
L 139.111444 137.464833 
L 141.095384 140.269303 
L 143.252347 142.942985 
L 145.573736 145.475221 
L 148.050296 147.855917 
L 150.672156 150.075584 
L 153.428863 152.125372 
L 156.309429 153.997111 
L 159.302371 155.68334 
L 162.395757 157.177336 
L 165.577258 158.473144 
L 168.834191 159.565599 
L 172.153572 160.450346 
L 175.522169 161.123857 
L 178.926555 161.583449 
L 182.353158 161.827289 
L 185.788319 161.854405 
L 189.218345 161.664689 
L 192.629561 161.258897 
L 196.008371 160.638646 
L 199.341305 159.806411 
L 202.615078 158.765507 
L 205.816638 157.520084 
L 208.933224 156.075107 
L 211.952412 154.436336 
L 214.862167 152.610303 
L 217.650889 150.604288 
L 220.307462 148.426288 
L 222.821296 146.084983 
L 225.18237 143.589708 
L 227.381272 140.95041 
L 229.409237 138.177609 
L 231.25818 135.282358 
L 232.920732 132.2762 
L 234.390264 129.171117 
L 235.660919 125.979487 
L 236.727632 122.714033 
L 237.58615 119.387771 
L 238.233051 116.013963 
L 238.665756 112.606055 
L 238.882541 109.177634 
L 238.909659 107.46 
L 238.909659 107.46 
" clip-path="url(#p620a6dc0e2)" style="fill: none; stroke: #000000; stroke-linecap: square"/>
   </g>
   <g id="line2d_26">
    <path d="M 184.5 107.46 
" clip-path="url(#p620a6dc0e2)" style="fill: none; stroke: #1f77b4; stroke-width: 1.5; stroke-linecap: square"/>
    <defs>
     <path id="m92659cabca" d="M 0 1.25 
C 0.331504 1.25 0.649475 1.118292 0.883883 0.883883 
C 1.118292 0.649475 1.25 0.331504 1.25 0 
C 1.25 -0.331504 1.118292 -0.649475 0.883883 -0.883883 
C 0.649475 -1.118292 0.331504 -1.25 0 -1.25 
C -0.331504 -1.25 -0.649475 -1.118292 -0.883883 -0.883883 
C -1.118292 -0.649475 -1.25 -0.331504 -1.25 0 
C -1.25 0.331504 -1.118292 0.649475 -0.883883 0.883883 
C -0.649475 1.118292 -0.331504 1.25 0 1.25 
z
" style="stroke: #1f77b4"/>
    </defs>
    <g clip-path="url(#p620a6dc0e2)">
     <use xlink:href="#m92659cabca" x="184.5" y="107.46" style="fill: #1f77b4; stroke: #1f77b4"/>
    </g>
   </g>
   <g id="text_1">
    <!-- 0.0 -->
    <g style="fill: #ff0000" transform="translate(111.855273 103.753636) scale(0.08 -0.08)">
     <defs>
      <path id="NimbusSanL-Regu-30" d="M 1760 4544 
C 1338 4544 954 4358 717 4044 
C 422 3649 275 3043 275 2207 
C 275 683 787 -128 1760 -128 
C 2720 -128 3245 683 3245 2169 
C 3245 3049 3104 3636 2803 4044 
C 2566 4364 2189 4544 1760 4544 
z
M 1760 4044 
C 2368 4044 2669 3432 2669 2220 
C 2669 938 2374 339 1747 339 
C 1152 339 851 964 851 2201 
C 851 3438 1152 4044 1760 4044 
z
" transform="scale(0.015625)"/>
      <path id="NimbusSanL-Regu-2e" d="M 1222 665 
L 557 665 
L 557 0 
L 1222 0 
L 1222 665 
z
" transform="scale(0.015625)"/>
     </defs>
     <use xlink:href="#NimbusSanL-Regu-30" transform="scale(0.996264)"/>
     <use xlink:href="#NimbusSanL-Regu-2e" transform="translate(55.391677 0) scale(0.996264)"/>
     <use xlink:href="#NimbusSanL-Regu-30" transform="translate(83.086847 0) scale(0.996264)"/>
    </g>
   </g>
   <g id="text_2">
    <!-- 0.2 -->
    <g style="fill: #ff0000" transform="translate(136.564364 103.753636) scale(0.08 -0.08)">
     <defs>
      <path id="NimbusSanL-Regu-32" d="M 3238 556 
L 851 556 
C 909 928 1114 1165 1670 1493 
L 2310 1839 
C 2944 2185 3270 2653 3270 3211 
C 3270 3589 3117 3942 2848 4185 
C 2579 4428 2246 4544 1818 4544 
C 1242 4544 813 4339 563 3955 
C 403 3711 333 3429 320 2967 
L 883 2967 
C 902 3275 941 3461 1018 3608 
C 1165 3884 1459 4051 1798 4051 
C 2310 4051 2694 3685 2694 3198 
C 2694 2839 2483 2531 2080 2300 
L 1491 1967 
C 544 1428 269 999 218 0 
L 3238 0 
L 3238 556 
z
" transform="scale(0.015625)"/>
     </defs>
     <use xlink:href="#NimbusSanL-Regu-30" transform="scale(0.996264)"/>
     <use xlink:href="#NimbusSanL-Regu-2e" transform="translate(55.391677 0) scale(0.996264)"/>
     <use xlink:href="#NimbusSanL-Regu-32" transform="translate(83.086847 0) scale(0.996264)"/>
    </g>
   </g>
   <g id="text_3">
    <!-- 0.5 -->
    <g style="fill: #ff0000" transform="translate(161.273455 103.753636) scale(0.08 -0.08)">
     <defs>
      <path id="NimbusSanL-Regu-35" d="M 3046 4544 
L 704 4544 
L 365 2076 
L 883 2076 
C 1146 2387 1363 2496 1715 2496 
C 2323 2496 2707 2082 2707 1414 
C 2707 765 2330 371 1715 371 
C 1222 371 922 619 787 1128 
L 224 1128 
C 301 759 365 581 499 415 
C 755 70 1216 -128 1728 -128 
C 2643 -128 3283 536 3283 1490 
C 3283 2381 2688 2995 1818 2995 
C 1498 2995 1242 2912 979 2720 
L 1158 3987 
L 3046 3987 
L 3046 4544 
z
" transform="scale(0.015625)"/>
     </defs>
     <use xlink:href="#NimbusSanL-Regu-30" transform="scale(0.996264)"/>
     <use xlink:href="#NimbusSanL-Regu-2e" transform="translate(55.391677 0) scale(0.996264)"/>
     <use xlink:href="#NimbusSanL-Regu-35" transform="translate(83.086847 0) scale(0.996264)"/>
    </g>
   </g>
   <g id="text_4">
    <!-- 1.0 -->
    <g style="fill: #ff0000" transform="translate(185.982545 103.753636) scale(0.08 -0.08)">
     <defs>
      <path id="NimbusSanL-Regu-31" d="M 1658 3232 
L 1658 0 
L 2221 0 
L 2221 4537 
L 1850 4537 
C 1651 3840 1523 3744 653 3635 
L 653 3232 
L 1658 3232 
z
" transform="scale(0.015625)"/>
     </defs>
     <use xlink:href="#NimbusSanL-Regu-31" transform="scale(0.996264)"/>
     <use xlink:href="#NimbusSanL-Regu-2e" transform="translate(55.391677 0) scale(0.996264)"/>
     <use xlink:href="#NimbusSanL-Regu-30" transform="translate(83.086847 0) scale(0.996264)"/>
    </g>
   </g>
   <g id="text_5">
    <!-- 2.0 -->
    <g style="fill: #ff0000" transform="translate(210.691636 103.753636) scale(0.08 -0.08)">
     <use xlink:href="#NimbusSanL-Regu-32" transform="scale(0.996264)"/>
     <use xlink:href="#NimbusSanL-Regu-2e" transform="translate(55.391677 0) scale(0.996264)"/>
     <use xlink:href="#NimbusSanL-Regu-30" transform="translate(83.086847 0) scale(0.996264)"/>
    </g>
   </g>
   <g id="text_6">
    <!-- 5.0 -->
    <g style="fill: #ff0000" transform="translate(235.400727 103.753636) scale(0.08 -0.08)">
     <use xlink:href="#NimbusSanL-Regu-35" transform="scale(0.996264)"/>
     <use xlink:href="#NimbusSanL-Regu-2e" transform="translate(55.391677 0) scale(0.996264)"/>
     <use xlink:href="#NimbusSanL-Regu-30" transform="translate(83.086847 0) scale(0.996264)"/>
    </g>
   </g>
   <g id="text_7">
    <!-- +j0.0 -->
    <g style="fill: #0000ff" transform="translate(92.870596 105.762417) scale(0.08 -0.08)">
     <defs>
      <path id="NimbusSanL-Regu-2b" d="M 3418 1728 
L 2093 1728 
L 2093 3052 
L 1645 3052 
L 1645 1728 
L 320 1728 
L 320 1279 
L 1645 1279 
L 1645 -64 
L 2093 -64 
L 2093 1279 
L 3418 1279 
L 3418 1728 
z
" transform="scale(0.015625)"/>
      <path id="NimbusSanL-Regu-6a" d="M 448 3357 
L 448 -498 
C 448 -832 339 -941 13 -941 
C -7 -941 -7 -941 -115 -935 
L -115 -1389 
C -51 -1402 -19 -1408 64 -1408 
C 666 -1408 979 -1165 979 -710 
L 979 3357 
L 448 3357 
z
M 979 4672 
L 448 4672 
L 448 3999 
L 979 3999 
L 979 4672 
z
" transform="scale(0.015625)"/>
     </defs>
     <use xlink:href="#NimbusSanL-Regu-2b" transform="scale(0.996264)"/>
     <use xlink:href="#NimbusSanL-Regu-6a" transform="translate(58.181493 0) scale(0.996264)"/>
     <use xlink:href="#NimbusSanL-Regu-30" transform="translate(80.298277 0) scale(0.996264)"/>
     <use xlink:href="#NimbusSanL-Regu-2e" transform="translate(135.689954 0) scale(0.996264)"/>
     <use xlink:href="#NimbusSanL-Regu-30" transform="translate(163.385124 0) scale(0.996264)"/>
    </g>
   </g>
   <g id="text_8">
    <!-- +j0.2 -->
    <g style="fill: #0000ff" transform="translate(98.572694 77.251927) scale(0.08 -0.08)">
     <use xlink:href="#NimbusSanL-Regu-2b" transform="scale(0.996264)"/>
     <use xlink:href="#NimbusSanL-Regu-6a" transform="translate(58.181493 0) scale(0.996264)"/>
     <use xlink:href="#NimbusSanL-Regu-30" transform="translate(80.298277 0) scale(0.996264)"/>
     <use xlink:href="#NimbusSanL-Regu-2e" transform="translate(135.689954 0) scale(0.996264)"/>
     <use xlink:href="#NimbusSanL-Regu-32" transform="translate(163.385124 0) scale(0.996264)"/>
    </g>
   </g>
   <g id="text_9">
    <!-- +j0.5 -->
    <g style="fill: #0000ff" transform="translate(122.521505 46.460599) scale(0.08 -0.08)">
     <use xlink:href="#NimbusSanL-Regu-2b" transform="scale(0.996264)"/>
     <use xlink:href="#NimbusSanL-Regu-6a" transform="translate(58.181493 0) scale(0.996264)"/>
     <use xlink:href="#NimbusSanL-Regu-30" transform="translate(80.298277 0) scale(0.996264)"/>
     <use xlink:href="#NimbusSanL-Regu-2e" transform="translate(135.689954 0) scale(0.996264)"/>
     <use xlink:href="#NimbusSanL-Regu-35" transform="translate(163.385124 0) scale(0.996264)"/>
    </g>
   </g>
   <g id="text_10">
    <!-- +j1.0 -->
    <g style="fill: #0000ff" transform="translate(175.748934 31.635144) scale(0.08 -0.08)">
     <use xlink:href="#NimbusSanL-Regu-2b" transform="scale(0.996264)"/>
     <use xlink:href="#NimbusSanL-Regu-6a" transform="translate(58.181493 0) scale(0.996264)"/>
     <use xlink:href="#NimbusSanL-Regu-31" transform="translate(80.298277 0) scale(0.996264)"/>
     <use xlink:href="#NimbusSanL-Regu-2e" transform="translate(135.689954 0) scale(0.996264)"/>
     <use xlink:href="#NimbusSanL-Regu-30" transform="translate(163.385124 0) scale(0.996264)"/>
    </g>
   </g>
   <g id="text_11">
    <!-- +j2.0 -->
    <g style="fill: #0000ff" transform="translate(228.976364 46.460599) scale(0.08 -0.08)">
     <use xlink:href="#NimbusSanL-Regu-2b" transform="scale(0.996264)"/>
     <use xlink:href="#NimbusSanL-Regu-6a" transform="translate(58.181493 0) scale(0.996264)"/>
     <use xlink:href="#NimbusSanL-Regu-32" transform="translate(80.298277 0) scale(0.996264)"/>
     <use xlink:href="#NimbusSanL-Regu-2e" transform="translate(135.689954 0) scale(0.996264)"/>
     <use xlink:href="#NimbusSanL-Regu-30" transform="translate(163.385124 0) scale(0.996264)"/>
    </g>
   </g>
   <g id="text_12">
    <!-- +j5.0 -->
    <g style="fill: #0000ff" transform="translate(252.925175 77.251927) scale(0.08 -0.08)">
     <use xlink:href="#NimbusSanL-Regu-2b" transform="scale(0.996264)"/>
     <use xlink:href="#NimbusSanL-Regu-6a" transform="translate(58.181493 0) scale(0.996264)"/>
     <use xlink:href="#NimbusSanL-Regu-35" transform="translate(80.298277 0) scale(0.996264)"/>
     <use xlink:href="#NimbusSanL-Regu-2e" transform="translate(135.689954 0) scale(0.996264)"/>
     <use xlink:href="#NimbusSanL-Regu-30" transform="translate(163.385124 0) scale(0.996264)"/>
    </g>
   </g>
   <g id="text_13">
    <!-- -j0.2 -->
    <g style="fill: #0000ff" transform="translate(100.573188 141.649146) scale(0.08 -0.08)">
     <defs>
      <path id="NimbusSanL-Regu-2d" d="M 1818 1996 
L 294 1996 
L 294 1536 
L 1818 1536 
L 1818 1996 
z
" transform="scale(0.015625)"/>
     </defs>
     <use xlink:href="#NimbusSanL-Regu-2d" transform="scale(0.996264)"/>
     <use xlink:href="#NimbusSanL-Regu-6a" transform="translate(33.17523 0) scale(0.996264)"/>
     <use xlink:href="#NimbusSanL-Regu-30" transform="translate(55.292014 0) scale(0.996264)"/>
     <use xlink:href="#NimbusSanL-Regu-2e" transform="translate(110.683691 0) scale(0.996264)"/>
     <use xlink:href="#NimbusSanL-Regu-32" transform="translate(138.378861 0) scale(0.996264)"/>
    </g>
   </g>
   <g id="text_14">
    <!-- -j0.5 -->
    <g style="fill: #0000ff" transform="translate(124.521999 172.440474) scale(0.08 -0.08)">
     <use xlink:href="#NimbusSanL-Regu-2d" transform="scale(0.996264)"/>
     <use xlink:href="#NimbusSanL-Regu-6a" transform="translate(33.17523 0) scale(0.996264)"/>
     <use xlink:href="#NimbusSanL-Regu-30" transform="translate(55.292014 0) scale(0.996264)"/>
     <use xlink:href="#NimbusSanL-Regu-2e" transform="translate(110.683691 0) scale(0.996264)"/>
     <use xlink:href="#NimbusSanL-Regu-35" transform="translate(138.378861 0) scale(0.996264)"/>
    </g>
   </g>
   <g id="text_15">
    <!-- -j1.0 -->
    <g style="fill: #0000ff" transform="translate(176.749181 187.265929) scale(0.08 -0.08)">
     <use xlink:href="#NimbusSanL-Regu-2d" transform="scale(0.996264)"/>
     <use xlink:href="#NimbusSanL-Regu-6a" transform="translate(33.17523 0) scale(0.996264)"/>
     <use xlink:href="#NimbusSanL-Regu-31" transform="translate(55.292014 0) scale(0.996264)"/>
     <use xlink:href="#NimbusSanL-Regu-2e" transform="translate(110.683691 0) scale(0.996264)"/>
     <use xlink:href="#NimbusSanL-Regu-30" transform="translate(138.378861 0) scale(0.996264)"/>
    </g>
   </g>
   <g id="text_16">
    <!-- -j2.0 -->
    <g style="fill: #0000ff" transform="translate(228.976364 172.440474) scale(0.08 -0.08)">
     <use xlink:href="#NimbusSanL-Regu-2d" transform="scale(0.996264)"/>
     <use xlink:href="#NimbusSanL-Regu-6a" transform="translate(33.17523 0) scale(0.996264)"/>
     <use xlink:href="#NimbusSanL-Regu-32" transform="translate(55.292014 0) scale(0.996264)"/>
     <use xlink:href="#NimbusSanL-Regu-2e" transform="translate(110.683691 0) scale(0.996264)"/>
     <use xlink:href="#NimbusSanL-Regu-30" transform="translate(138.378861 0) scale(0.996264)"/>
    </g>
   </g>
   <g id="text_17">
    <!-- -j5.0 -->
    <g style="fill: #0000ff" transform="translate(252.925175 141.649146) scale(0.08 -0.08)">
     <use xlink:href="#NimbusSanL-Regu-2d" transform="scale(0.996264)"/>
     <use xlink:href="#NimbusSanL-Regu-6a" transform="translate(33.17523 0) scale(0.996264)"/>
     <use xlink:href="#NimbusSanL-Regu-35" transform="translate(55.292014 0) scale(0.996264)"/>
     <use xlink:href="#NimbusSanL-Regu-2e" transform="translate(110.683691 0) scale(0.996264)"/>
     <use xlink:href="#NimbusSanL-Regu-30" transform="translate(138.378861 0) scale(0.996264)"/>
    </g>
   </g>
   <g id="text_18">
    <!-- $\Gamma_{opt}$ -->
    <g transform="translate(175.86218 104.609605) scale(0.1 -0.1)">
     <defs>
      <path id="CMR17-0" d="M 3315 4352 
L 326 4352 
L 326 4185 
C 768 4185 838 4185 838 3897 
L 838 453 
C 838 166 768 166 326 166 
L 326 0 
C 512 12 870 12 1069 12 
C 1331 12 1638 12 1901 0 
L 1901 166 
L 1760 166 
C 1274 166 1261 230 1261 460 
L 1261 3936 
C 1261 4153 1274 4185 1530 4185 
L 2234 4185 
C 3206 4185 3258 3738 3354 2939 
L 3469 2939 
L 3315 4352 
z
" transform="scale(0.015625)"/>
      <path id="CMMI12-6f" d="M 2918 1755 
C 2918 2362 2522 2816 1939 2816 
C 1094 2816 262 1896 262 996 
C 262 389 659 -64 1242 -64 
C 2093 -64 2918 855 2918 1755 
z
M 1248 64 
C 928 64 691 319 691 766 
C 691 1060 845 1711 1024 2030 
C 1312 2522 1670 2687 1933 2687 
C 2246 2687 2490 2432 2490 1985 
C 2490 1730 2355 1047 2112 657 
C 1850 230 1498 64 1248 64 
z
" transform="scale(0.015625)"/>
      <path id="CMMI12-70" d="M 275 -794 
C 230 -981 205 -1031 -58 -1031 
C -135 -1031 -199 -1031 -199 -1152 
C -199 -1165 -192 -1216 -122 -1216 
C -39 -1216 51 -1204 134 -1204 
L 410 -1204 
C 544 -1204 870 -1216 1005 -1216 
C 1043 -1216 1120 -1216 1120 -1101 
C 1120 -1031 1075 -1031 966 -1031 
C 672 -1031 653 -987 653 -937 
C 653 -863 941 217 979 364 
C 1050 185 1222 -64 1555 -64 
C 2278 -64 3059 874 3059 1813 
C 3059 2400 2726 2816 2246 2816 
C 1837 2816 1491 2419 1421 2330 
C 1370 2649 1120 2816 864 2816 
C 678 2816 531 2726 410 2483 
C 294 2253 205 1864 205 1838 
C 205 1813 230 1781 275 1781 
C 326 1781 333 1787 371 1934 
C 467 2311 589 2687 845 2687 
C 992 2687 1043 2585 1043 2394 
C 1043 2241 1024 2177 998 2062 
L 275 -794 
z
M 1382 1992 
C 1427 2170 1606 2356 1709 2445 
C 1779 2509 1990 2687 2234 2687 
C 2515 2687 2643 2407 2643 2075 
C 2643 1768 2464 1047 2304 715 
C 2144 370 1850 64 1555 64 
C 1120 64 1050 613 1050 638 
C 1050 657 1062 708 1069 740 
L 1382 1992 
z
" transform="scale(0.015625)"/>
      <path id="CMMI12-74" d="M 1286 2566 
L 1875 2566 
C 1997 2566 2061 2566 2061 2681 
C 2061 2752 2022 2752 1894 2752 
L 1331 2752 
L 1568 3664 
C 1594 3752 1594 3764 1594 3808 
C 1594 3910 1510 3968 1427 3968 
C 1376 3968 1229 3948 1178 3746 
L 928 2752 
L 326 2752 
C 198 2752 141 2752 141 2630 
C 141 2566 186 2566 307 2566 
L 877 2566 
L 454 881 
C 403 657 384 593 384 510 
C 384 210 595 -64 954 -64 
C 1600 -64 1946 868 1946 913 
C 1946 951 1920 970 1882 970 
C 1869 970 1843 970 1830 944 
C 1824 938 1818 932 1773 830 
C 1638 510 1344 64 973 64 
C 781 64 768 223 768 364 
C 768 370 768 491 787 568 
L 1286 2566 
z
" transform="scale(0.015625)"/>
     </defs>
     <use xlink:href="#CMR17-0" transform="scale(0.996264)"/>
     <use xlink:href="#CMMI12-6f" transform="translate(57.381408 -14.943915) scale(0.697382)"/>
     <use xlink:href="#CMMI12-70" transform="translate(90.20797 -14.943915) scale(0.697382)"/>
     <use xlink:href="#CMMI12-74" transform="translate(124.479476 -14.943915) scale(0.697382)"/>
    </g>
   </g>
   <g id="text_19">
    <!-- noise circles, $\Delta F/F_{min}$ = 0.5dB -->
    <g transform="translate(110.372727 25.92) scale(0.08 -0.08)">
     <defs>
      <path id="NimbusSanL-Regu-6e" d="M 448 3328 
L 448 0 
L 986 0 
L 986 1835 
C 986 2539 1344 2988 1894 2988 
C 2317 2988 2586 2732 2586 2328 
L 2586 0 
L 3117 0 
L 3117 2539 
C 3117 3097 2701 3456 2054 3456 
C 1555 3456 1235 3263 941 2796 
L 941 3328 
L 448 3328 
z
" transform="scale(0.015625)"/>
      <path id="NimbusSanL-Regu-6f" d="M 1741 3456 
C 800 3456 230 2784 230 1663 
C 230 543 794 -128 1747 -128 
C 2688 -128 3264 543 3264 1638 
C 3264 2791 2707 3456 1741 3456 
z
M 1747 2963 
C 2349 2963 2707 2472 2707 1644 
C 2707 861 2336 364 1747 364 
C 1152 364 787 855 787 1663 
C 787 2466 1152 2963 1747 2963 
z
" transform="scale(0.015625)"/>
      <path id="NimbusSanL-Regu-69" d="M 960 3358 
L 429 3358 
L 429 0 
L 960 0 
L 960 3358 
z
M 960 4672 
L 422 4672 
L 422 3999 
L 960 3999 
L 960 4672 
z
" transform="scale(0.015625)"/>
      <path id="NimbusSanL-Regu-73" d="M 2803 2428 
C 2797 3084 2362 3456 1587 3456 
C 806 3456 301 3052 301 2434 
C 301 1912 570 1663 1363 1472 
L 1862 1351 
C 2234 1262 2381 1129 2381 887 
C 2381 574 2067 364 1600 364 
C 1312 364 1069 447 934 587 
C 851 683 813 778 781 1014 
L 218 1014 
C 243 243 678 -128 1555 -128 
C 2400 -128 2938 288 2938 931 
C 2938 1428 2656 1702 1990 1861 
L 1478 1982 
C 1043 2084 858 2224 858 2459 
C 858 2765 1133 2963 1568 2963 
C 1997 2963 2227 2778 2240 2428 
L 2803 2428 
z
" transform="scale(0.015625)"/>
      <path id="NimbusSanL-Regu-65" d="M 3283 1484 
C 3283 1998 3245 2311 3149 2565 
C 2931 3123 2419 3456 1792 3456 
C 858 3456 256 2734 256 1619 
C 256 545 838 -128 1779 -128 
C 2547 -128 3078 307 3213 1018 
L 2675 1018 
C 2528 588 2227 364 1798 364 
C 1459 364 1171 514 992 787 
C 864 974 819 1161 813 1484 
L 3283 1484 
z
M 826 1920 
C 870 2552 1248 2963 1786 2963 
C 2310 2963 2714 2519 2714 1959 
C 2714 1946 2714 1933 2707 1920 
L 826 1920 
z
" transform="scale(0.015625)"/>
      <path id="NimbusSanL-Regu-63" d="M 3014 2237 
C 2989 2561 2918 2771 2790 2956 
C 2560 3270 2157 3456 1690 3456 
C 787 3456 198 2740 198 1632 
C 198 555 774 -128 1683 -128 
C 2483 -128 2989 352 3053 1167 
L 2515 1167 
C 2426 632 2150 364 1696 364 
C 1107 364 755 842 755 1632 
C 755 2466 1101 2963 1683 2963 
C 2131 2963 2413 2701 2477 2237 
L 3014 2237 
z
" transform="scale(0.015625)"/>
      <path id="NimbusSanL-Regu-72" d="M 442 3328 
L 442 0 
L 979 0 
L 979 1727 
C 979 2203 1101 2514 1357 2698 
C 1523 2819 1683 2857 2054 2863 
L 2054 3404 
C 1965 3449 1920 3456 1850 3456 
C 1504 3456 1242 3251 934 2750 
L 934 3328 
L 442 3328 
z
" transform="scale(0.015625)"/>
      <path id="NimbusSanL-Regu-6c" d="M 973 4672 
L 435 4672 
L 435 0 
L 973 0 
L 973 4672 
z
" transform="scale(0.015625)"/>
      <path id="NimbusSanL-Regu-2c" d="M 557 665 
L 557 0 
L 941 0 
L 941 -116 
C 941 -557 858 -685 557 -698 
L 557 -941 
C 1005 -941 1229 -653 1229 -103 
L 1229 665 
L 557 665 
z
" transform="scale(0.015625)"/>
      <path id="CMR17-1" d="M 2598 4435 
C 2547 4544 2522 4544 2470 4544 
C 2394 4544 2387 4531 2342 4441 
L 269 108 
C 262 96 237 38 237 32 
C 237 6 243 0 358 0 
L 4576 0 
C 4691 0 4698 6 4698 32 
C 4698 38 4672 96 4666 108 
L 2598 4435 
z
M 2310 4056 
L 4083 358 
L 531 358 
L 2310 4056 
z
" transform="scale(0.015625)"/>
      <path id="CMMI12-46" d="M 1901 2054 
L 2515 2054 
C 3002 2054 3040 1947 3040 1764 
C 3040 1683 3027 1595 2995 1456 
C 2982 1431 2976 1399 2976 1387 
C 2976 1343 3002 1318 3046 1318 
C 3098 1318 3104 1343 3130 1444 
L 3501 2929 
C 3501 2955 3482 2993 3437 2993 
C 3379 2993 3373 2968 3347 2858 
C 3213 2375 3085 2240 2528 2240 
L 1946 2240 
L 2362 3908 
C 2419 4134 2432 4153 2694 4153 
L 3552 4153 
C 4352 4153 4467 3915 4467 3457 
C 4467 3419 4467 3277 4448 3109 
C 4442 3084 4429 3000 4429 2974 
C 4429 2922 4461 2903 4499 2903 
C 4544 2903 4570 2929 4582 3045 
L 4717 4172 
C 4717 4191 4730 4255 4730 4268 
C 4730 4339 4672 4339 4557 4339 
L 1523 4339 
C 1402 4339 1338 4339 1338 4223 
C 1338 4153 1382 4153 1491 4153 
C 1888 4153 1888 4108 1888 4037 
C 1888 4005 1882 3979 1862 3908 
L 998 468 
C 941 248 928 185 480 185 
C 358 185 294 185 294 70 
C 294 0 352 0 390 0 
C 512 0 640 12 762 12 
L 1594 12 
C 1734 12 1888 0 2029 0 
C 2086 0 2163 0 2163 115 
C 2163 185 2125 185 1984 185 
C 1478 185 1466 229 1466 324 
C 1466 355 1478 405 1491 449 
L 1901 2054 
z
" transform="scale(0.015625)"/>
      <path id="CMMI12-3d" d="M 2746 4563 
C 2746 4569 2784 4665 2784 4678 
C 2784 4755 2720 4800 2669 4800 
C 2637 4800 2579 4800 2528 4659 
L 384 -1364 
C 384 -1370 346 -1466 346 -1479 
C 346 -1556 410 -1600 461 -1600 
C 499 -1600 557 -1594 602 -1460 
L 2746 4563 
z
" transform="scale(0.015625)"/>
      <path id="CMMI12-6d" d="M 1318 1870 
C 1331 1909 1491 2228 1728 2432 
C 1894 2585 2112 2687 2362 2687 
C 2618 2687 2707 2496 2707 2241 
C 2707 2202 2707 2075 2630 1775 
L 2470 1117 
C 2419 925 2298 453 2285 383 
C 2259 287 2221 121 2221 95 
C 2221 6 2291 -64 2387 -64 
C 2579 -64 2611 83 2669 313 
L 3053 1838 
C 3066 1890 3398 2687 4102 2687 
C 4358 2687 4448 2496 4448 2241 
C 4448 1883 4198 1187 4058 804 
C 4000 651 3968 568 3968 453 
C 3968 166 4166 -64 4474 -64 
C 5069 -64 5293 874 5293 913 
C 5293 945 5267 970 5229 970 
C 5171 970 5165 951 5133 842 
C 4986 332 4749 64 4493 64 
C 4429 64 4326 70 4326 274 
C 4326 440 4403 645 4429 715 
C 4544 1021 4832 1775 4832 2145 
C 4832 2528 4608 2816 4122 2816 
C 3693 2816 3347 2573 3091 2196 
C 3072 2541 2861 2816 2381 2816 
C 1811 2816 1510 2413 1395 2253 
C 1376 2617 1114 2816 832 2816 
C 646 2816 499 2726 378 2483 
C 262 2253 173 1864 173 1838 
C 173 1813 198 1781 243 1781 
C 294 1781 301 1787 339 1934 
C 435 2311 557 2687 813 2687 
C 960 2687 1011 2585 1011 2394 
C 1011 2253 947 2004 902 1807 
L 723 1117 
C 698 996 627 708 595 593 
C 550 427 480 127 480 95 
C 480 6 550 -64 646 -64 
C 723 -64 813 -26 864 70 
C 877 102 934 325 966 453 
L 1107 1028 
L 1318 1870 
z
" transform="scale(0.015625)"/>
      <path id="CMMI12-69" d="M 1811 913 
C 1811 945 1786 970 1747 970 
C 1690 970 1683 951 1651 842 
C 1485 261 1222 64 1011 64 
C 934 64 845 83 845 274 
C 845 447 922 638 992 830 
L 1440 2017 
C 1459 2068 1504 2183 1504 2305 
C 1504 2573 1312 2816 998 2816 
C 410 2816 173 1890 173 1838 
C 173 1813 198 1781 243 1781 
C 301 1781 307 1807 333 1896 
C 486 2432 730 2687 979 2687 
C 1037 2687 1146 2681 1146 2477 
C 1146 2311 1062 2100 1011 1960 
L 563 772 
C 525 670 486 568 486 453 
C 486 166 685 -64 992 -64 
C 1581 -64 1811 868 1811 913 
z
M 1760 4012 
C 1760 4108 1683 4224 1542 4224 
C 1395 4224 1229 4083 1229 3916 
C 1229 3756 1363 3705 1440 3705 
C 1613 3705 1760 3871 1760 4012 
z
" transform="scale(0.015625)"/>
      <path id="CMMI12-6e" d="M 1318 1870 
C 1331 1909 1491 2228 1728 2432 
C 1894 2585 2112 2687 2362 2687 
C 2618 2687 2707 2496 2707 2241 
C 2707 1877 2445 1149 2317 804 
C 2259 651 2227 568 2227 453 
C 2227 166 2426 -64 2733 -64 
C 3328 -64 3552 874 3552 913 
C 3552 945 3526 970 3488 970 
C 3430 970 3424 951 3392 842 
C 3245 319 3002 64 2752 64 
C 2688 64 2586 70 2586 274 
C 2586 434 2656 625 2694 715 
C 2822 1066 3091 1781 3091 2145 
C 3091 2528 2867 2816 2381 2816 
C 1811 2816 1510 2413 1395 2253 
C 1376 2617 1114 2816 832 2816 
C 627 2816 486 2694 378 2477 
C 262 2247 173 1864 173 1838 
C 173 1813 198 1781 243 1781 
C 294 1781 301 1787 339 1934 
C 442 2324 557 2687 813 2687 
C 960 2687 1011 2585 1011 2394 
C 1011 2253 947 2004 902 1807 
L 723 1117 
C 698 996 627 708 595 593 
C 550 427 480 127 480 95 
C 480 6 550 -64 646 -64 
C 723 -64 813 -26 864 70 
C 877 102 934 325 966 453 
L 1107 1028 
L 1318 1870 
z
" transform="scale(0.015625)"/>
      <path id="NimbusSanL-Regu-3d" d="M 3418 2240 
L 320 2240 
L 320 1792 
L 3418 1792 
L 3418 2240 
z
M 3418 1152 
L 320 1152 
L 320 704 
L 3418 704 
L 3418 1152 
z
" transform="scale(0.015625)"/>
      <path id="NimbusSanL-Regu-64" d="M 3168 4672 
L 2637 4672 
L 2637 2937 
C 2413 3276 2054 3456 1606 3456 
C 736 3456 166 2759 166 1695 
C 166 568 723 -128 1626 -128 
C 2086 -128 2406 44 2694 460 
L 2694 19 
L 3168 19 
L 3168 4672 
z
M 1696 2956 
C 2272 2956 2637 2447 2637 1651 
C 2637 880 2266 371 1702 371 
C 1114 371 723 887 723 1663 
C 723 2440 1114 2956 1696 2956 
z
" transform="scale(0.015625)"/>
      <path id="NimbusSanL-Regu-42" d="M 506 0 
L 2611 0 
C 3053 0 3379 121 3629 390 
C 3859 632 3987 961 3987 1321 
C 3987 1878 3731 2214 3136 2444 
C 3558 2643 3782 2994 3782 3476 
C 3782 3821 3654 4127 3411 4345 
C 3168 4569 2848 4672 2400 4672 
L 506 4672 
L 506 0 
z
M 1101 2636 
L 1101 4147 
L 2253 4147 
C 2586 4147 2771 4101 2931 3977 
C 3098 3847 3187 3652 3187 3391 
C 3187 3138 3098 2936 2931 2806 
C 2771 2682 2586 2636 2253 2636 
L 1101 2636 
z
M 1101 524 
L 1101 2112 
L 2554 2112 
C 2842 2112 3034 2042 3174 1890 
C 3315 1745 3392 1542 3392 1315 
C 3392 1093 3315 891 3174 746 
C 3034 594 2842 524 2554 524 
L 1101 524 
z
" transform="scale(0.015625)"/>
     </defs>
     <use xlink:href="#NimbusSanL-Regu-6e" transform="scale(0.996264)"/>
     <use xlink:href="#NimbusSanL-Regu-6f" transform="translate(55.391677 0) scale(0.996264)"/>
     <use xlink:href="#NimbusSanL-Regu-69" transform="translate(110.783354 0) scale(0.996264)"/>
     <use xlink:href="#NimbusSanL-Regu-73" transform="translate(132.900138 0) scale(0.996264)"/>
     <use xlink:href="#NimbusSanL-Regu-65" transform="translate(182.713339 0) scale(0.996264)"/>
     <use xlink:href="#NimbusSanL-Regu-63" transform="translate(265.800185 0) scale(0.996264)"/>
     <use xlink:href="#NimbusSanL-Regu-69" transform="translate(315.613386 0) scale(0.996264)"/>
     <use xlink:href="#NimbusSanL-Regu-72" transform="translate(337.73017 0) scale(0.996264)"/>
     <use xlink:href="#NimbusSanL-Regu-63" transform="translate(370.9054 0) scale(0.996264)"/>
     <use xlink:href="#NimbusSanL-Regu-6c" transform="translate(420.7186 0) scale(0.996264)"/>
     <use xlink:href="#NimbusSanL-Regu-65" transform="translate(442.835385 0) scale(0.996264)"/>
     <use xlink:href="#NimbusSanL-Regu-73" transform="translate(498.227062 0) scale(0.996264)"/>
     <use xlink:href="#NimbusSanL-Regu-2c" transform="translate(546.54687 0) scale(0.996264)"/>
     <use xlink:href="#CMR17-1" transform="translate(601.937209 0) scale(0.996264)"/>
     <use xlink:href="#CMMI12-46" transform="translate(678.856799 0) scale(0.996264)"/>
     <use xlink:href="#CMMI12-3d" transform="translate(750.134156 0) scale(0.996264)"/>
     <use xlink:href="#CMMI12-46" transform="translate(798.909074 0) scale(0.996264)"/>
     <use xlink:href="#CMMI12-6d" transform="translate(862.057278 -14.943915) scale(0.697382)"/>
     <use xlink:href="#CMMI12-69" transform="translate(921.78607 -14.943915) scale(0.697382)"/>
     <use xlink:href="#CMMI12-6e" transform="translate(945.080977 -14.943915) scale(0.697382)"/>
     <use xlink:href="#NimbusSanL-Regu-3d" transform="translate(1014.035122 0) scale(0.996264)"/>
     <use xlink:href="#NimbusSanL-Regu-30" transform="translate(1099.911784 0) scale(0.996264)"/>
     <use xlink:href="#NimbusSanL-Regu-2e" transform="translate(1155.303461 0) scale(0.996264)"/>
     <use xlink:href="#NimbusSanL-Regu-35" transform="translate(1182.998631 0) scale(0.996264)"/>
     <use xlink:href="#NimbusSanL-Regu-64" transform="translate(1238.390308 0) scale(0.996264)"/>
     <use xlink:href="#NimbusSanL-Regu-42" transform="translate(1293.781985 0) scale(0.996264)"/>
    </g>
   </g>
  </g>
 </g>
 <defs>
  <clipPath id="p620a6dc0e2">
   <rect x="45" y="25.92" width="279" height="163.08"/>
  </clipPath>
 </defs>
</svg>
