<?xml version="1.0" encoding="utf-8" standalone="no"?>
<!DOCTYPE svg PUBLIC "-//W3C//DTD SVG 1.1//EN"
  "http://www.w3.org/Graphics/SVG/1.1/DTD/svg11.dtd">
<svg xmlns:xlink="http://www.w3.org/1999/xlink" width="360pt" height="216pt" viewBox="0 0 360 216" xmlns="http://www.w3.org/2000/svg" version="1.1">
 <metadata>
  <rdf:RDF xmlns:dc="http://purl.org/dc/elements/1.1/" xmlns:cc="http://creativecommons.org/ns#" xmlns:rdf="http://www.w3.org/1999/02/22-rdf-syntax-ns#">
   <cc:Work>
    <dc:type rdf:resource="http://purl.org/dc/dcmitype/StillImage"/>
    <dc:date>2024-06-16T18:58:35.187903</dc:date>
    <dc:format>image/svg+xml</dc:format>
    <dc:creator>
     <cc:Agent>
      <dc:title>Matplotlib v3.8.0, https://matplotlib.org/</dc:title>
     </cc:Agent>
    </dc:creator>
   </cc:Work>
  </rdf:RDF>
 </metadata>
 <defs>
  <style type="text/css">*{stroke-linejoin: round; stroke-linecap: butt}</style>
 </defs>
 <g id="figure_1">
  <g id="patch_1">
   <path d="M 0 216 
L 360 216 
L 360 0 
L 0 0 
z
" style="fill: #ffffff"/>
  </g>
  <g id="axes_1">
   <g id="line2d_1">
    <path d="M 252.45 107.46 
L 252.314566 103.171972 
L 251.908803 98.901038 
L 251.234328 94.664222 
L 250.293831 90.478414 
L 249.091061 86.3603 
L 247.630812 82.326295 
L 245.918904 78.39248 
L 243.962163 74.574537 
L 241.768388 70.887686 
L 239.346325 67.346622 
L 236.705628 63.965462 
L 233.856825 60.757684 
L 230.81127 57.736075 
L 227.581105 54.91268 
L 224.179206 52.298754 
L 220.619135 49.904717 
L 216.915081 47.740112 
L 213.081812 45.813569 
L 209.134607 44.132766 
L 205.089202 42.704404 
L 200.961722 41.534176 
L 196.768621 40.626749 
L 192.526613 39.985738 
L 188.252609 39.6137 
L 183.963646 39.512117 
L 179.676821 39.681394 
L 175.409222 40.120856 
L 171.177862 40.828752 
L 166.999608 41.80226 
L 162.891116 43.037499 
L 158.868763 44.529545 
L 154.948584 46.27245 
L 151.146205 48.259266 
L 147.476785 50.482074 
L 143.954949 52.932013 
L 140.594738 55.599316 
L 137.409547 58.473352 
L 134.412072 61.542662 
L 131.614262 64.795012 
L 129.02727 68.217438 
L 126.661408 71.796296 
L 124.526109 75.517319 
L 122.629882 79.365676 
L 120.980288 83.326025 
L 119.583903 87.382579 
L 118.446292 91.519168 
L 117.57199 95.719301 
L 116.964483 99.966236 
L 116.626193 104.243044 
L 116.558467 108.532675 
L 116.761577 112.81803 
L 117.234711 117.082027 
L 117.975985 121.307668 
L 118.982443 125.478107 
L 120.250073 129.576721 
L 121.773822 133.587171 
L 123.547616 137.493471 
L 125.564384 141.280049 
L 127.816087 144.93181 
L 130.293749 148.434197 
L 132.987492 151.773249 
L 135.88658 154.935656 
L 138.979455 157.90881 
L 142.253788 160.680861 
L 145.696527 163.240758 
L 149.293948 165.578297 
L 153.03171 167.684158 
L 156.894915 169.549949 
L 160.868161 171.168231 
L 164.935611 172.532553 
L 169.08105 173.637477 
L 173.287954 174.478598 
L 177.539552 175.052564 
L 181.818897 175.357085 
L 186.108929 175.390949 
L 190.392548 175.15402 
L 194.652677 174.647243 
L 198.872335 173.872638 
L 203.0347 172.833293 
L 207.12318 171.53335 
L 211.121478 169.977993 
L 215.013655 168.17342 
L 218.784196 166.126826 
L 222.418069 163.846368 
L 225.90079 161.341138 
L 229.218476 158.621122 
L 232.3579 155.697163 
L 235.306549 152.580916 
L 238.052668 149.284804 
L 240.58531 145.821966 
L 242.89438 142.206206 
L 244.970673 138.451938 
L 246.805912 134.574126 
L 248.392781 130.58823 
L 249.724955 126.510138 
L 250.797123 122.356106 
L 251.605011 118.142694 
L 252.145399 113.886698 
L 252.416133 109.605083 
L 252.45 107.46 
L 252.45 107.46 
" clip-path="url(#p9c2df9f9d7)" style="fill: none; stroke: #ff0000; stroke-width: 2; stroke-linecap: square"/>
   </g>
   <g id="line2d_2">
    <path d="M 229.8 107.46 
L 229.687138 103.886644 
L 229.349002 100.327532 
L 228.78694 96.796852 
L 228.003193 93.308679 
L 227.000884 89.876916 
L 225.78401 86.515246 
L 224.35742 83.237067 
L 222.726803 80.055448 
L 220.898657 76.983071 
L 218.880271 74.032185 
L 216.67969 71.214551 
L 214.305687 68.541403 
L 211.767725 66.023395 
L 209.075921 63.670566 
L 206.241005 61.492295 
L 203.274279 59.497264 
L 200.187568 57.693427 
L 196.993177 56.087974 
L 193.70384 54.687305 
L 190.332668 53.497003 
L 186.893102 52.521814 
L 183.39885 51.765624 
L 179.863844 51.231449 
L 176.302174 50.921417 
L 172.728038 50.836764 
L 169.155684 50.977828 
L 165.599352 51.344047 
L 162.073219 51.93396 
L 158.59134 52.745217 
L 155.167597 53.774582 
L 151.815636 55.017954 
L 148.54882 56.470375 
L 145.380171 58.126055 
L 142.32232 59.978395 
L 139.387458 62.020011 
L 136.587282 64.242764 
L 133.932956 66.637793 
L 131.43506 69.195552 
L 129.103551 71.905844 
L 126.947725 74.757865 
L 124.976174 77.740246 
L 123.196757 80.841099 
L 121.616569 84.048063 
L 120.241907 87.348354 
L 119.078252 90.728816 
L 118.130243 94.175973 
L 117.401659 97.676084 
L 116.895403 101.215197 
L 116.613494 104.779203 
L 116.557056 108.353896 
L 116.726314 111.925025 
L 117.120593 115.478356 
L 117.738321 118.999723 
L 118.577036 122.475089 
L 119.633394 125.890601 
L 120.903185 129.232643 
L 122.381347 132.487893 
L 124.061987 135.643374 
L 125.938406 138.686508 
L 128.003124 141.605164 
L 130.24791 144.387708 
L 132.663817 147.023046 
L 135.241212 149.500675 
L 137.969823 151.810718 
L 140.838772 153.943965 
L 143.836623 155.891914 
L 146.951425 157.646799 
L 150.170762 159.201624 
L 153.481801 160.550193 
L 156.871343 161.687128 
L 160.325875 162.607898 
L 163.831628 163.308832 
L 167.374627 163.787136 
L 170.940747 164.040904 
L 174.515774 164.069124 
L 178.085456 163.871684 
L 181.635564 163.449369 
L 185.151945 162.803865 
L 188.620583 161.937744 
L 192.02765 160.854459 
L 195.359565 159.558327 
L 198.603046 158.054517 
L 201.745163 156.349021 
L 204.773391 154.44864 
L 207.675659 152.360949 
L 210.440396 150.094268 
L 213.056584 147.657636 
L 215.513791 145.060763 
L 217.802223 142.314004 
L 219.912759 139.428305 
L 221.836984 136.415172 
L 223.567227 133.286615 
L 225.096593 130.055105 
L 226.418984 126.733525 
L 227.529129 123.335115 
L 228.422603 119.873422 
L 229.095843 116.362245 
L 229.546166 112.815582 
L 229.771777 109.247569 
L 229.8 107.46 
L 229.8 107.46 
" clip-path="url(#p9c2df9f9d7)" style="fill: none; stroke: #ff0000; stroke-linecap: square"/>
   </g>
   <g id="line2d_3">
    <path d="M 207.15 107.46 
L 207.05971 104.601315 
L 206.789202 101.754025 
L 206.339552 98.929482 
L 205.712554 96.138943 
L 204.910707 93.393533 
L 203.937208 90.704197 
L 202.795936 88.081654 
L 201.491442 85.536358 
L 200.028926 83.078457 
L 198.414217 80.717748 
L 196.653752 78.463641 
L 194.75455 76.325122 
L 192.72418 74.310716 
L 190.570737 72.428453 
L 188.302804 70.685836 
L 185.929423 69.089811 
L 183.460054 67.646741 
L 180.904541 66.362379 
L 178.273072 65.241844 
L 175.576135 64.289602 
L 172.824481 63.509451 
L 170.02908 62.904499 
L 167.201075 62.477159 
L 164.351739 62.229133 
L 161.49243 62.161411 
L 158.634547 62.274263 
L 155.789482 62.567238 
L 152.968575 63.039168 
L 150.183072 63.688173 
L 147.444077 64.511666 
L 144.762509 65.506363 
L 142.149056 66.6683 
L 139.614137 67.992844 
L 137.167856 69.474716 
L 134.819966 71.108009 
L 132.579826 72.886211 
L 130.456365 74.802234 
L 128.458048 76.848441 
L 126.592841 79.016675 
L 124.86818 81.298292 
L 123.290939 83.684197 
L 121.867406 86.16488 
L 120.603255 88.730451 
L 119.503526 91.370683 
L 118.572602 94.075053 
L 117.814195 96.832778 
L 117.231327 99.632867 
L 116.826322 102.464157 
L 116.600795 105.315363 
L 116.555645 108.175117 
L 116.691051 111.03202 
L 117.006474 113.874685 
L 117.500657 116.691778 
L 118.171628 119.472071 
L 119.016715 122.204481 
L 120.032548 124.878114 
L 121.215077 127.482314 
L 122.55959 130.006699 
L 124.060725 132.441206 
L 125.712499 134.776131 
L 127.508328 137.002166 
L 129.441053 139.110437 
L 131.50297 141.09254 
L 133.685859 142.940574 
L 135.981018 144.647172 
L 138.379299 146.205531 
L 140.87114 147.609439 
L 143.44661 148.853299 
L 146.095441 149.932154 
L 148.807074 150.841702 
L 151.5707 151.578318 
L 154.375303 152.139066 
L 157.209702 152.521709 
L 160.062598 152.724724 
L 162.922619 152.747299 
L 165.778365 152.589347 
L 168.618451 152.251495 
L 171.431556 151.735092 
L 174.206467 151.042195 
L 176.93212 150.175567 
L 179.597652 149.138662 
L 182.192437 147.935613 
L 184.70613 146.571217 
L 187.128713 145.050912 
L 189.450527 143.380759 
L 191.662317 141.567415 
L 193.755267 139.618109 
L 195.721033 137.540611 
L 197.551779 135.343203 
L 199.240207 133.034644 
L 200.779587 130.624138 
L 202.163782 128.121292 
L 203.387275 125.536084 
L 204.445187 122.87882 
L 205.333303 120.160092 
L 206.048082 117.390737 
L 206.586674 114.581796 
L 206.946933 111.744465 
L 207.127422 108.890055 
L 207.15 107.46 
L 207.15 107.46 
" clip-path="url(#p9c2df9f9d7)" style="fill: none; stroke: #ff0000; stroke-linecap: square"/>
   </g>
   <g id="line2d_4">
    <path d="M 184.5 107.46 
L 184.3477 104.246651 
L 183.892164 101.062111 
L 183.137477 97.934931 
L 182.090406 94.893147 
L 180.760336 91.964031 
L 179.159194 89.173843 
L 177.301334 86.547598 
L 175.203412 84.108842 
L 172.884238 81.879439 
L 170.364603 79.879377 
L 167.667098 78.126587 
L 164.815906 76.636784 
L 161.83659 75.423325 
L 158.755861 74.497088 
L 155.601338 73.866378 
L 152.401304 73.53685 
L 149.184448 73.511457 
L 145.979611 73.790428 
L 142.815525 74.371261 
L 139.720558 75.248749 
L 136.722457 76.415025 
L 133.848103 77.859633 
L 131.123263 79.569621 
L 128.572369 81.529658 
L 126.21829 83.722172 
L 124.082131 86.127506 
L 122.183044 88.724095 
L 120.538054 91.48866 
L 119.161911 94.396414 
L 118.066951 97.42129 
L 117.262992 100.536166 
L 116.757242 103.713118 
L 116.554234 106.923662 
L 116.655788 110.139015 
L 117.060995 113.330349 
L 117.766221 116.469054 
L 118.765144 119.526987 
L 120.048808 122.476736 
L 121.605704 125.291852 
L 123.421874 127.947099 
L 125.481036 130.418669 
L 127.764727 132.684405 
L 130.252475 134.723993 
L 132.921974 136.519148 
L 135.749292 138.053775 
L 138.709081 139.314116 
L 141.774804 140.28887 
L 144.918977 140.969299 
L 148.11341 141.349303 
L 151.329465 141.425475 
L 154.538306 141.197131 
L 157.711167 140.666319 
L 160.819601 139.837798 
L 163.835739 138.718996 
L 166.732541 137.319944 
L 169.484035 135.653184 
L 172.065553 133.73366 
L 174.45395 131.578581 
L 176.627814 129.207269 
L 178.567655 126.640983 
L 180.256082 123.902731 
L 181.677956 121.017063 
L 182.82053 118.00985 
L 183.673562 114.908053 
L 184.229401 111.739481 
L 184.483066 108.532541 
L 184.5 107.46 
L 184.5 107.46 
" clip-path="url(#p9c2df9f9d7)" style="fill: none; stroke: #ff0000; stroke-width: 2; stroke-linecap: square"/>
   </g>
   <g id="line2d_5">
    <path d="M 161.85 107.46 
L 161.748466 105.317767 
L 161.444776 103.194741 
L 160.941652 101.109954 
L 160.243604 99.082098 
L 159.356891 97.129354 
L 158.289463 95.269229 
L 157.050889 93.518399 
L 155.652275 91.892561 
L 154.106159 90.406293 
L 152.426402 89.072918 
L 150.628065 87.904391 
L 148.727271 86.91119 
L 146.74106 86.102217 
L 144.687241 85.484725 
L 142.584226 85.064252 
L 140.45087 84.844567 
L 138.306299 84.827638 
L 136.169741 85.013619 
L 134.06035 85.400841 
L 131.997039 85.985833 
L 129.998305 86.76335 
L 128.082068 87.726422 
L 126.265509 88.866414 
L 124.564913 90.173105 
L 122.995527 91.634781 
L 121.571421 93.238337 
L 120.305362 94.969397 
L 119.208703 96.81244 
L 118.291274 98.750943 
L 117.561301 100.767526 
L 117.025328 102.844111 
L 116.688161 104.962079 
L 116.552822 107.102442 
L 116.620526 109.24601 
L 116.890663 111.373566 
L 117.360814 113.466036 
L 118.026763 115.504658 
L 118.882539 117.471157 
L 119.920469 119.347901 
L 121.13125 121.118066 
L 122.504024 122.765779 
L 124.026485 124.27627 
L 125.684983 125.635996 
L 127.464649 126.832766 
L 129.349528 127.85585 
L 131.32272 128.696077 
L 133.366536 129.345913 
L 135.462651 129.799533 
L 137.592274 130.052869 
L 139.73631 130.10365 
L 141.875538 129.951421 
L 143.990778 129.597546 
L 146.063067 129.045199 
L 148.073826 128.299331 
L 150.005027 127.366629 
L 151.839356 126.255456 
L 153.560368 124.975773 
L 155.152633 123.539054 
L 156.601876 121.958179 
L 157.895103 120.247322 
L 159.020721 118.421821 
L 159.968637 116.498042 
L 160.730354 114.493233 
L 161.299041 112.425369 
L 161.669601 110.312987 
L 161.838711 108.175028 
L 161.85 107.46 
L 161.85 107.46 
" clip-path="url(#p9c2df9f9d7)" style="fill: none; stroke: #ff0000; stroke-linecap: square"/>
   </g>
   <g id="line2d_6">
    <path d="M 139.2 107.46 
L 139.1098 106.033506 
L 138.840639 104.629736 
L 138.396802 103.271049 
L 137.785361 101.97909 
L 137.016054 100.774437 
L 136.101137 99.676281 
L 135.055184 98.702113 
L 133.894856 97.867453 
L 132.638635 97.185595 
L 131.306534 96.667401 
L 129.91977 96.321125 
L 128.500435 96.152283 
L 127.071137 96.163566 
L 125.654644 96.354792 
L 124.273519 96.722916 
L 122.949764 97.262075 
L 121.704464 97.963679 
L 120.557456 98.816553 
L 119.527012 99.80711 
L 118.629545 100.919573 
L 117.879351 102.13622 
L 117.288381 103.437671 
L 116.866049 104.803195 
L 116.619081 106.211039 
L 116.551411 107.638779 
L 116.664119 109.063671 
L 116.955407 110.463018 
L 117.420637 111.814529 
L 118.052397 113.096675 
L 118.840625 114.289033 
L 119.772763 115.372609 
L 120.833965 116.330144 
L 122.007325 117.146383 
L 123.274152 117.808325 
L 124.614269 118.305426 
L 126.006326 118.629766 
L 127.428149 118.776181 
L 128.857091 118.742337 
L 130.270389 118.528773 
L 131.64553 118.138892 
L 132.960609 117.578903 
L 134.194678 116.857728 
L 135.328079 115.986854 
L 136.342758 114.980153 
L 137.222552 113.853661 
L 137.953445 112.625323 
L 138.523797 111.314705 
L 138.924521 109.942684 
L 139.149233 108.531116 
L 139.2 107.46 
L 139.2 107.46 
" clip-path="url(#p9c2df9f9d7)" style="fill: none; stroke: #ff0000; stroke-linecap: square"/>
   </g>
   <g id="line2d_7">
    <path d="M 252.45 107.46 
L 252.2977 104.246651 
L 251.842164 101.062111 
L 251.087477 97.934931 
L 250.040406 94.893147 
L 248.710336 91.964031 
L 247.109194 89.173843 
L 245.251334 86.547598 
L 243.153412 84.108842 
L 240.834238 81.879439 
L 238.314603 79.879377 
L 235.617098 78.126587 
L 232.765906 76.636784 
L 229.78659 75.423325 
L 226.705861 74.497088 
L 223.551338 73.866378 
L 220.351304 73.53685 
L 217.134448 73.511457 
L 213.929611 73.790428 
L 210.765525 74.371261 
L 207.670558 75.248749 
L 204.672457 76.415025 
L 201.798103 77.859633 
L 199.073263 79.569621 
L 196.522369 81.529658 
L 194.16829 83.722172 
L 192.032131 86.127506 
L 190.133044 88.724095 
L 188.488054 91.48866 
L 187.111911 94.396414 
L 186.016951 97.42129 
L 185.212992 100.536166 
L 184.707242 103.713118 
L 184.504234 106.923662 
L 184.605788 110.139015 
L 185.010995 113.330349 
L 185.716221 116.469054 
L 186.715144 119.526987 
L 187.998808 122.476736 
L 189.555704 125.291852 
L 191.371874 127.947099 
L 193.431036 130.418669 
L 195.714727 132.684405 
L 198.202475 134.723993 
L 200.871974 136.519148 
L 203.699292 138.053775 
L 206.659081 139.314116 
L 209.724804 140.28887 
L 212.868977 140.969299 
L 216.06341 141.349303 
L 219.279465 141.425475 
L 222.488306 141.197131 
L 225.661167 140.666319 
L 228.769601 139.837798 
L 231.785739 138.718996 
L 234.682541 137.319944 
L 237.434035 135.653184 
L 240.015553 133.73366 
L 242.40395 131.578581 
L 244.577814 129.207269 
L 246.517655 126.640983 
L 248.206082 123.902731 
L 249.627956 121.017063 
L 250.77053 118.00985 
L 251.623562 114.908053 
L 252.179401 111.739481 
L 252.433066 108.532541 
L 252.45 107.46 
L 252.45 107.46 
" clip-path="url(#p9c2df9f9d7)" style="fill: none; stroke: #bf00bf; stroke-linecap: square"/>
   </g>
   <g id="line2d_8">
    <path d="M 116.55 107.46 
L 125.313977 107.573054 
L 134.072121 107.91214 
L 142.818605 108.477033 
L 151.547606 109.267357 
L 160.253316 110.282585 
L 168.92994 111.522043 
L 177.571706 112.984905 
L 186.17286 114.670198 
L 194.72768 116.5768 
L 203.230472 118.703443 
L 211.675577 121.04871 
L 220.057374 123.611041 
L 228.370286 126.388732 
L 236.608781 129.379933 
L 244.767375 132.582653 
L 247.223077 133.594615 
L 247.223077 133.594615 
" clip-path="url(#p9c2df9f9d7)" style="fill: none; stroke: #0000ff; stroke-linecap: square"/>
   </g>
   <g id="line2d_9">
    <path d="M 116.55 107.46 
L 121.848539 107.56333 
L 127.13902 107.873164 
L 132.413399 108.389031 
L 137.663655 109.110145 
L 142.881804 110.035411 
L 148.05991 111.163421 
L 153.190099 112.49246 
L 158.264571 114.020507 
L 163.275608 115.745238 
L 168.215591 117.664031 
L 173.077006 119.773967 
L 177.852462 122.071838 
L 182.534696 124.554151 
L 187.116589 127.217129 
L 191.591172 130.056723 
L 195.951641 133.068616 
L 200.191366 136.248227 
L 204.303898 139.590721 
L 208.282985 143.091015 
L 212.122576 146.743786 
L 215.81683 150.54348 
L 219.360132 154.484318 
L 222.747092 158.560308 
L 225.27 161.82 
L 225.27 161.82 
" clip-path="url(#p9c2df9f9d7)" style="fill: none; stroke: #0000ff; stroke-linecap: square"/>
   </g>
   <g id="line2d_10">
    <path d="M 116.55 107.46 
L 117.397086 107.46528 
L 118.244041 107.48112 
L 119.090732 107.507517 
L 119.937028 107.544467 
L 120.782798 107.591965 
L 121.62791 107.650002 
L 122.472233 107.71857 
L 123.315635 107.797659 
L 124.157986 107.887255 
L 124.999155 107.987346 
L 125.83901 108.097915 
L 126.677422 108.218945 
L 127.51426 108.350418 
L 128.349394 108.492313 
L 129.182694 108.644608 
L 130.01403 108.807279 
L 130.843275 108.980302 
L 131.670297 109.163648 
L 132.49497 109.357291 
L 133.317165 109.561198 
L 134.136754 109.77534 
L 134.95361 109.999682 
L 135.767605 110.23419 
L 136.578614 110.478828 
L 137.38651 110.733556 
L 138.191168 110.998337 
L 138.992462 111.273128 
L 139.790269 111.557886 
L 140.584463 111.852569 
L 141.374923 112.157129 
L 142.161524 112.471519 
L 142.944144 112.795691 
L 143.722663 113.129595 
L 144.496959 113.473177 
L 145.266911 113.826386 
L 146.0324 114.189165 
L 146.793307 114.56146 
L 147.549514 114.943211 
L 148.300903 115.334359 
L 149.047358 115.734844 
L 149.788762 116.144604 
L 150.525 116.563574 
L 151.255958 116.99169 
L 151.981522 117.428885 
L 152.70158 117.875091 
L 153.416019 118.330239 
L 154.124728 118.794257 
L 154.827598 119.267075 
L 155.524519 119.748619 
L 156.215383 120.238813 
L 156.900082 120.737581 
L 157.57851 121.244846 
L 158.250561 121.760529 
L 158.916132 122.284551 
L 159.575118 122.816829 
L 160.227418 123.35728 
L 160.87293 123.905821 
L 161.511553 124.462367 
L 162.143188 125.026831 
L 162.767738 125.599125 
L 163.385104 126.179161 
L 163.995192 126.766848 
L 164.597906 127.362094 
L 165.193152 127.964808 
L 165.780839 128.574896 
L 166.360875 129.192262 
L 166.933169 129.816812 
L 167.497633 130.448447 
L 168.054179 131.08707 
L 168.60272 131.732582 
L 169.143171 132.384882 
L 169.675449 133.043868 
L 170.199471 133.709439 
L 170.715154 134.38149 
L 171.222419 135.059918 
L 171.721187 135.744617 
L 172.211381 136.435481 
L 172.692925 137.132402 
L 173.165743 137.835272 
L 173.629761 138.543981 
L 174.084909 139.25842 
L 174.531115 139.978478 
L 174.96831 140.704042 
L 175.396426 141.435 
L 175.815396 142.171238 
L 176.225156 142.912642 
L 176.625641 143.659097 
L 177.016789 144.410486 
L 177.39854 145.166693 
L 177.770835 145.9276 
L 178.133614 146.693089 
L 178.486823 147.463041 
L 178.830405 148.237337 
L 179.164309 149.015856 
L 179.488481 149.798476 
L 179.802871 150.585077 
L 180.107431 151.375537 
L 180.402114 152.169731 
L 180.686872 152.967538 
L 180.961663 153.768832 
L 181.226444 154.57349 
L 181.481172 155.381386 
L 181.72581 156.192395 
L 181.960318 157.00639 
L 182.18466 157.823246 
L 182.398802 158.642835 
L 182.602709 159.46503 
L 182.796352 160.289703 
L 182.979698 161.116725 
L 183.152721 161.94597 
L 183.315392 162.777306 
L 183.467687 163.610606 
L 183.609582 164.44574 
L 183.741055 165.282578 
L 183.862085 166.12099 
L 183.972654 166.960845 
L 184.072745 167.802014 
L 184.162341 168.644365 
L 184.24143 169.487767 
L 184.309998 170.33209 
L 184.368035 171.177202 
L 184.415533 172.022972 
L 184.452483 172.869268 
L 184.47888 173.715959 
L 184.49472 174.562914 
L 184.5 175.41 
" clip-path="url(#p9c2df9f9d7)" style="fill: none; stroke: #0000ff; stroke-linecap: square"/>
   </g>
   <g id="line2d_11">
    <path d="M 116.55 107.46 
L 117.395202 107.470515 
L 118.239881 107.502052 
L 119.083514 107.554594 
L 119.925579 107.628106 
L 120.765555 107.722543 
L 121.602921 107.837848 
L 122.437159 107.973948 
L 123.267754 108.13076 
L 124.094191 108.308186 
L 124.915957 108.506116 
L 125.732546 108.724429 
L 126.543451 108.962988 
L 127.34817 109.221646 
L 128.146206 109.500244 
L 128.937064 109.798608 
L 129.720254 110.116554 
L 130.495293 110.453886 
L 131.2617 110.810394 
L 132.019 111.185857 
L 132.766726 111.580044 
L 133.504415 111.99271 
L 134.231609 112.4236 
L 134.947858 112.872447 
L 135.65272 113.338973 
L 136.345758 113.822891 
L 137.026543 114.323899 
L 137.694654 114.841688 
L 138.349676 115.375937 
L 138.991206 115.926317 
L 139.618844 116.492485 
L 140.232204 117.074092 
L 140.830906 117.670778 
L 141.414578 118.282173 
L 141.98286 118.907899 
L 142.535399 119.547569 
L 143.071855 120.200786 
L 143.591894 120.867147 
L 144.095195 121.546238 
L 144.581447 122.23764 
L 145.050348 122.940925 
L 145.501608 123.655657 
L 145.934947 124.381394 
L 146.350099 125.117686 
L 146.746805 125.864079 
L 147.12482 126.620109 
L 147.48391 127.385309 
L 147.823854 128.159206 
L 148.144439 128.94132 
L 148.445469 129.731167 
L 148.726756 130.528258 
L 148.988127 131.332101 
L 149.229419 132.142197 
L 149.450484 132.958044 
L 149.651185 133.779139 
L 149.831396 134.604973 
L 149.991008 135.435034 
L 150.129921 136.268808 
L 150.248049 137.105781 
L 150.345318 137.945433 
L 150.42167 138.787245 
L 150.477056 139.630697 
L 150.511442 140.475264 
L 150.524807 141.320426 
L 150.517142 142.165659 
L 150.488453 143.01044 
L 150.438757 143.854245 
L 150.368085 144.696553 
L 150.276481 145.536842 
L 150.164001 146.374593 
L 150.030715 147.209285 
L 149.876705 148.040404 
L 149.702067 148.867434 
L 149.506909 149.689864 
L 149.291352 150.507184 
L 149.055528 151.318889 
L 148.799585 152.124476 
L 148.52368 152.923446 
L 148.227985 153.715306 
L 147.912681 154.499564 
L 147.577966 155.275736 
L 147.224044 156.043341 
L 146.851137 156.801903 
L 146.459474 157.550954 
L 146.049298 158.29003 
L 145.620863 159.018673 
L 145.174434 159.736432 
L 144.710287 160.442864 
L 144.22871 161.137529 
L 143.73 161.82 
" clip-path="url(#p9c2df9f9d7)" style="fill: none; stroke: #0000ff; stroke-linecap: square"/>
   </g>
   <g id="line2d_12">
    <path d="M 116.55 107.46 
L 117.07563 107.470169 
L 117.600473 107.50066 
L 118.123744 107.551429 
L 118.64466 107.622398 
L 119.162442 107.713462 
L 119.676314 107.824484 
L 120.185507 107.955299 
L 120.689259 108.10571 
L 121.186817 108.275493 
L 121.677436 108.464393 
L 122.160382 108.672128 
L 122.634931 108.898387 
L 123.100375 109.14283 
L 123.556015 109.405093 
L 124.001171 109.684783 
L 124.435176 109.981482 
L 124.857381 110.294744 
L 125.267153 110.624102 
L 125.66388 110.969063 
L 126.046968 111.32911 
L 126.415843 111.703705 
L 126.769954 112.092286 
L 127.108771 112.494273 
L 127.431786 112.909064 
L 127.738516 113.336038 
L 128.028502 113.774556 
L 128.301311 114.223962 
L 128.556533 114.683583 
L 128.793787 115.152732 
L 129.012719 115.630706 
L 129.212999 116.11679 
L 129.394329 116.610257 
L 129.556437 117.110369 
L 129.699081 117.616375 
L 129.822046 118.127521 
L 129.92515 118.64304 
L 130.008238 119.162161 
L 130.071185 119.684107 
L 130.113897 120.208097 
L 130.13631 120.733348 
L 130.138392 121.259072 
L 130.120138 121.784483 
L 130.081575 122.308795 
L 130.022763 122.831223 
L 129.943788 123.350986 
L 129.844769 123.867305 
L 129.725855 124.379408 
L 129.587222 124.886528 
L 129.429078 125.387907 
L 129.251661 125.882795 
L 129.055236 126.370449 
L 128.840096 126.850142 
L 128.606563 127.321155 
L 128.354988 127.782782 
L 128.085746 128.234334 
L 127.799241 128.675134 
L 127.495901 129.104523 
L 127.17618 129.521859 
L 126.840557 129.926516 
L 126.489534 130.317889 
L 126.123636 130.695392 
L 125.743411 131.058461 
L 125.349428 131.406552 
L 124.942276 131.739144 
L 124.522565 132.05574 
L 124.090922 132.355865 
L 123.647995 132.639071 
L 123.194445 132.904933 
L 122.730952 133.153055 
L 122.258209 133.383063 
L 121.776923 133.594615 
" clip-path="url(#p9c2df9f9d7)" style="fill: none; stroke: #0000ff; stroke-linecap: square"/>
   </g>
   <g id="line2d_13">
    <path d="M 247.223077 81.325385 
L 239.08977 84.591788 
L 230.874911 87.647302 
L 222.583968 90.489894 
L 214.222457 93.117673 
L 205.795945 95.528889 
L 197.310038 97.721937 
L 188.770385 99.695359 
L 180.182668 101.44784 
L 171.552603 102.978215 
L 162.885933 104.285465 
L 154.188425 105.36872 
L 145.465869 106.22726 
L 136.724069 106.860511 
L 127.968844 107.268055 
L 119.206018 107.449618 
L 116.55 107.46 
L 116.55 107.46 
" clip-path="url(#p9c2df9f9d7)" style="fill: none; stroke: #0000ff; stroke-linecap: square"/>
   </g>
   <g id="line2d_14">
    <path d="M 225.27 53.1 
L 222.008212 57.276833 
L 218.586056 61.323318 
L 215.008736 65.233301 
L 211.281691 69.000837 
L 207.410589 72.620196 
L 203.401318 76.085875 
L 199.259973 79.392604 
L 194.992852 82.535353 
L 190.606445 85.509344 
L 186.107421 88.310054 
L 181.502623 90.933225 
L 176.799052 93.374867 
L 172.003862 95.631267 
L 167.124344 97.698994 
L 162.167918 99.574903 
L 157.142123 101.256143 
L 152.054599 102.740156 
L 146.913084 104.024686 
L 141.725397 105.107779 
L 136.499426 105.987789 
L 131.243118 106.663376 
L 125.964466 107.133514 
L 120.671499 107.397488 
L 116.55 107.46 
L 116.55 107.46 
" clip-path="url(#p9c2df9f9d7)" style="fill: none; stroke: #0000ff; stroke-linecap: square"/>
   </g>
   <g id="line2d_15">
    <path d="M 184.5 39.51 
L 184.49472 40.357086 
L 184.47888 41.204041 
L 184.452483 42.050732 
L 184.415533 42.897028 
L 184.368035 43.742798 
L 184.309998 44.58791 
L 184.24143 45.432233 
L 184.162341 46.275635 
L 184.072745 47.117986 
L 183.972654 47.959155 
L 183.862085 48.79901 
L 183.741055 49.637422 
L 183.609582 50.47426 
L 183.467687 51.309394 
L 183.315392 52.142694 
L 183.152721 52.97403 
L 182.979698 53.803275 
L 182.796352 54.630297 
L 182.602709 55.45497 
L 182.398802 56.277165 
L 182.18466 57.096754 
L 181.960318 57.91361 
L 181.72581 58.727605 
L 181.481172 59.538614 
L 181.226444 60.34651 
L 180.961663 61.151168 
L 180.686872 61.952462 
L 180.402114 62.750269 
L 180.107431 63.544463 
L 179.802871 64.334923 
L 179.488481 65.121524 
L 179.164309 65.904144 
L 178.830405 66.682663 
L 178.486823 67.456959 
L 178.133614 68.226911 
L 177.770835 68.9924 
L 177.39854 69.753307 
L 177.016789 70.509514 
L 176.625641 71.260903 
L 176.225156 72.007358 
L 175.815396 72.748762 
L 175.396426 73.485 
L 174.96831 74.215958 
L 174.531115 74.941522 
L 174.084909 75.66158 
L 173.629761 76.376019 
L 173.165743 77.084728 
L 172.692925 77.787598 
L 172.211381 78.484519 
L 171.721187 79.175383 
L 171.222419 79.860082 
L 170.715154 80.53851 
L 170.199471 81.210561 
L 169.675449 81.876132 
L 169.143171 82.535118 
L 168.60272 83.187418 
L 168.054179 83.83293 
L 167.497633 84.471553 
L 166.933169 85.103188 
L 166.360875 85.727738 
L 165.780839 86.345104 
L 165.193152 86.955192 
L 164.597906 87.557906 
L 163.995192 88.153152 
L 163.385104 88.740839 
L 162.767738 89.320875 
L 162.143188 89.893169 
L 161.511553 90.457633 
L 160.87293 91.014179 
L 160.227418 91.56272 
L 159.575118 92.103171 
L 158.916132 92.635449 
L 158.250561 93.159471 
L 157.57851 93.675154 
L 156.900082 94.182419 
L 156.215383 94.681187 
L 155.524519 95.171381 
L 154.827598 95.652925 
L 154.124728 96.125743 
L 153.416019 96.589761 
L 152.70158 97.044909 
L 151.981522 97.491115 
L 151.255958 97.92831 
L 150.525 98.356426 
L 149.788762 98.775396 
L 149.047358 99.185156 
L 148.300903 99.585641 
L 147.549514 99.976789 
L 146.793307 100.35854 
L 146.0324 100.730835 
L 145.266911 101.093614 
L 144.496959 101.446823 
L 143.722663 101.790405 
L 142.944144 102.124309 
L 142.161524 102.448481 
L 141.374923 102.762871 
L 140.584463 103.067431 
L 139.790269 103.362114 
L 138.992462 103.646872 
L 138.191168 103.921663 
L 137.38651 104.186444 
L 136.578614 104.441172 
L 135.767605 104.68581 
L 134.95361 104.920318 
L 134.136754 105.14466 
L 133.317165 105.358802 
L 132.49497 105.562709 
L 131.670297 105.756352 
L 130.843275 105.939698 
L 130.01403 106.112721 
L 129.182694 106.275392 
L 128.349394 106.427687 
L 127.51426 106.569582 
L 126.677422 106.701055 
L 125.83901 106.822085 
L 124.999155 106.932654 
L 124.157986 107.032745 
L 123.315635 107.122341 
L 122.472233 107.20143 
L 121.62791 107.269998 
L 120.782798 107.328035 
L 119.937028 107.375533 
L 119.090732 107.412483 
L 118.244041 107.43888 
L 117.397086 107.45472 
L 116.55 107.46 
" clip-path="url(#p9c2df9f9d7)" style="fill: none; stroke: #0000ff; stroke-linecap: square"/>
   </g>
   <g id="line2d_16">
    <path d="M 143.73 53.1 
L 144.22871 53.782471 
L 144.710287 54.477136 
L 145.174434 55.183568 
L 145.620863 55.901327 
L 146.049298 56.62997 
L 146.459474 57.369046 
L 146.851137 58.118097 
L 147.224044 58.876659 
L 147.577966 59.644264 
L 147.912681 60.420436 
L 148.227985 61.204694 
L 148.52368 61.996554 
L 148.799585 62.795524 
L 149.055528 63.601111 
L 149.291352 64.412816 
L 149.506909 65.230136 
L 149.702067 66.052566 
L 149.876705 66.879596 
L 150.030715 67.710715 
L 150.164001 68.545407 
L 150.276481 69.383158 
L 150.368085 70.223447 
L 150.438757 71.065755 
L 150.488453 71.90956 
L 150.517142 72.754341 
L 150.524807 73.599574 
L 150.511442 74.444736 
L 150.477056 75.289303 
L 150.42167 76.132755 
L 150.345318 76.974567 
L 150.248049 77.814219 
L 150.129921 78.651192 
L 149.991008 79.484966 
L 149.831396 80.315027 
L 149.651185 81.140861 
L 149.450484 81.961956 
L 149.229419 82.777803 
L 148.988127 83.587899 
L 148.726756 84.391742 
L 148.445469 85.188833 
L 148.144439 85.97868 
L 147.823854 86.760794 
L 147.48391 87.534691 
L 147.12482 88.299891 
L 146.746805 89.055921 
L 146.350099 89.802314 
L 145.934947 90.538606 
L 145.501608 91.264343 
L 145.050348 91.979075 
L 144.581447 92.68236 
L 144.095195 93.373762 
L 143.591894 94.052853 
L 143.071855 94.719214 
L 142.535399 95.372431 
L 141.98286 96.012101 
L 141.414578 96.637827 
L 140.830906 97.249222 
L 140.232204 97.845908 
L 139.618844 98.427515 
L 138.991206 98.993683 
L 138.349676 99.544063 
L 137.694654 100.078312 
L 137.026543 100.596101 
L 136.345758 101.097109 
L 135.65272 101.581027 
L 134.947858 102.047553 
L 134.231609 102.4964 
L 133.504415 102.92729 
L 132.766726 103.339956 
L 132.019 103.734143 
L 131.2617 104.109606 
L 130.495293 104.466114 
L 129.720254 104.803446 
L 128.937064 105.121392 
L 128.146206 105.419756 
L 127.34817 105.698354 
L 126.543451 105.957012 
L 125.732546 106.195571 
L 124.915957 106.413884 
L 124.094191 106.611814 
L 123.267754 106.78924 
L 122.437159 106.946052 
L 121.602921 107.082152 
L 120.765555 107.197457 
L 119.925579 107.291894 
L 119.083514 107.365406 
L 118.239881 107.417948 
L 117.395202 107.449485 
L 116.55 107.46 
" clip-path="url(#p9c2df9f9d7)" style="fill: none; stroke: #0000ff; stroke-linecap: square"/>
   </g>
   <g id="line2d_17">
    <path d="M 121.776923 81.325385 
L 122.258209 81.536937 
L 122.730952 81.766945 
L 123.194445 82.015067 
L 123.647995 82.280929 
L 124.090922 82.564135 
L 124.522565 82.86426 
L 124.942276 83.180856 
L 125.349428 83.513448 
L 125.743411 83.861539 
L 126.123636 84.224608 
L 126.489534 84.602111 
L 126.840557 84.993484 
L 127.17618 85.398141 
L 127.495901 85.815477 
L 127.799241 86.244866 
L 128.085746 86.685666 
L 128.354988 87.137218 
L 128.606563 87.598845 
L 128.840096 88.069858 
L 129.055236 88.549551 
L 129.251661 89.037205 
L 129.429078 89.532093 
L 129.587222 90.033472 
L 129.725855 90.540592 
L 129.844769 91.052695 
L 129.943788 91.569014 
L 130.022763 92.088777 
L 130.081575 92.611205 
L 130.120138 93.135517 
L 130.138392 93.660928 
L 130.13631 94.186652 
L 130.113897 94.711903 
L 130.071185 95.235893 
L 130.008238 95.757839 
L 129.92515 96.27696 
L 129.822046 96.792479 
L 129.699081 97.303625 
L 129.556437 97.809631 
L 129.394329 98.309743 
L 129.212999 98.80321 
L 129.012719 99.289294 
L 128.793787 99.767268 
L 128.556533 100.236417 
L 128.301311 100.696038 
L 128.028502 101.145444 
L 127.738516 101.583962 
L 127.431786 102.010936 
L 127.108771 102.425727 
L 126.769954 102.827714 
L 126.415843 103.216295 
L 126.046968 103.59089 
L 125.66388 103.950937 
L 125.267153 104.295898 
L 124.857381 104.625256 
L 124.435176 104.938518 
L 124.001171 105.235217 
L 123.556015 105.514907 
L 123.100375 105.77717 
L 122.634931 106.021613 
L 122.160382 106.247872 
L 121.677436 106.455607 
L 121.186817 106.644507 
L 120.689259 106.81429 
L 120.185507 106.964701 
L 119.676314 107.095516 
L 119.162442 107.206538 
L 118.64466 107.297602 
L 118.123744 107.368571 
L 117.600473 107.41934 
L 117.07563 107.449831 
L 116.55 107.46 
" clip-path="url(#p9c2df9f9d7)" style="fill: none; stroke: #0000ff; stroke-linecap: square"/>
   </g>
   <g id="line2d_18">
    <path d="M 116.55 107.46 
L 123.345 107.46 
L 130.14 107.46 
L 136.935 107.46 
L 143.73 107.46 
L 150.525 107.46 
L 157.32 107.46 
L 164.115 107.46 
L 170.91 107.46 
L 177.705 107.46 
L 184.5 107.46 
L 191.295 107.46 
L 198.09 107.46 
L 204.885 107.46 
L 211.68 107.46 
L 218.475 107.46 
L 225.27 107.46 
L 232.065 107.46 
L 238.86 107.46 
L 245.655 107.46 
L 252.45 107.46 
" clip-path="url(#p9c2df9f9d7)" style="fill: none; stroke: #0000ff; stroke-width: 2; stroke-linecap: square"/>
   </g>
   <g id="line2d_19">
    <path d="M 0 0 
" clip-path="url(#p9c2df9f9d7)" style="fill: none; stroke: #000000; stroke-width: 2; stroke-linecap: square"/>
   </g>
   <g id="line2d_20">
    <path d="M 184.5 107.46 
" clip-path="url(#p9c2df9f9d7)" style="fill: none; stroke: #1f77b4; stroke-width: 1.5; stroke-linecap: square"/>
    <defs>
     <path id="m28bf07366f" d="M 0 1.25 
C 0.331504 1.25 0.649475 1.118292 0.883883 0.883883 
C 1.118292 0.649475 1.25 0.331504 1.25 0 
C 1.25 -0.331504 1.118292 -0.649475 0.883883 -0.883883 
C 0.649475 -1.118292 0.331504 -1.25 0 -1.25 
C -0.331504 -1.25 -0.649475 -1.118292 -0.883883 -0.883883 
C -1.118292 -0.649475 -1.25 -0.331504 -1.25 0 
C -1.25 0.331504 -1.118292 0.649475 -0.883883 0.883883 
C -0.649475 1.118292 -0.331504 1.25 0 1.25 
z
" style="stroke: #1f77b4"/>
    </defs>
    <g clip-path="url(#p9c2df9f9d7)">
     <use xlink:href="#m28bf07366f" x="184.5" y="107.46" style="fill: #1f77b4; stroke: #1f77b4"/>
    </g>
   </g>
   <g id="text_1">
    <!-- 0.0 -->
    <g style="fill: #ff0000" transform="translate(253.809 104.0625) scale(0.08 -0.08)">
     <defs>
      <path id="NimbusSanL-Regu-30" d="M 1760 4544 
C 1338 4544 954 4358 717 4044 
C 422 3649 275 3043 275 2207 
C 275 683 787 -128 1760 -128 
C 2720 -128 3245 683 3245 2169 
C 3245 3049 3104 3636 2803 4044 
C 2566 4364 2189 4544 1760 4544 
z
M 1760 4044 
C 2368 4044 2669 3432 2669 2220 
C 2669 938 2374 339 1747 339 
C 1152 339 851 964 851 2201 
C 851 3438 1152 4044 1760 4044 
z
" transform="scale(0.015625)"/>
      <path id="NimbusSanL-Regu-2e" d="M 1222 665 
L 557 665 
L 557 0 
L 1222 0 
L 1222 665 
z
" transform="scale(0.015625)"/>
     </defs>
     <use xlink:href="#NimbusSanL-Regu-30" transform="scale(0.996264)"/>
     <use xlink:href="#NimbusSanL-Regu-2e" transform="translate(55.391677 0) scale(0.996264)"/>
     <use xlink:href="#NimbusSanL-Regu-30" transform="translate(83.086847 0) scale(0.996264)"/>
    </g>
   </g>
   <g id="text_2">
    <!-- 0.2 -->
    <g style="fill: #ff0000" transform="translate(231.159 104.0625) scale(0.08 -0.08)">
     <defs>
      <path id="NimbusSanL-Regu-32" d="M 3238 556 
L 851 556 
C 909 928 1114 1165 1670 1493 
L 2310 1839 
C 2944 2185 3270 2653 3270 3211 
C 3270 3589 3117 3942 2848 4185 
C 2579 4428 2246 4544 1818 4544 
C 1242 4544 813 4339 563 3955 
C 403 3711 333 3429 320 2967 
L 883 2967 
C 902 3275 941 3461 1018 3608 
C 1165 3884 1459 4051 1798 4051 
C 2310 4051 2694 3685 2694 3198 
C 2694 2839 2483 2531 2080 2300 
L 1491 1967 
C 544 1428 269 999 218 0 
L 3238 0 
L 3238 556 
z
" transform="scale(0.015625)"/>
     </defs>
     <use xlink:href="#NimbusSanL-Regu-30" transform="scale(0.996264)"/>
     <use xlink:href="#NimbusSanL-Regu-2e" transform="translate(55.391677 0) scale(0.996264)"/>
     <use xlink:href="#NimbusSanL-Regu-32" transform="translate(83.086847 0) scale(0.996264)"/>
    </g>
   </g>
   <g id="text_3">
    <!-- 0.5 -->
    <g style="fill: #ff0000" transform="translate(208.509 104.0625) scale(0.08 -0.08)">
     <defs>
      <path id="NimbusSanL-Regu-35" d="M 3046 4544 
L 704 4544 
L 365 2076 
L 883 2076 
C 1146 2387 1363 2496 1715 2496 
C 2323 2496 2707 2082 2707 1414 
C 2707 765 2330 371 1715 371 
C 1222 371 922 619 787 1128 
L 224 1128 
C 301 759 365 581 499 415 
C 755 70 1216 -128 1728 -128 
C 2643 -128 3283 536 3283 1490 
C 3283 2381 2688 2995 1818 2995 
C 1498 2995 1242 2912 979 2720 
L 1158 3987 
L 3046 3987 
L 3046 4544 
z
" transform="scale(0.015625)"/>
     </defs>
     <use xlink:href="#NimbusSanL-Regu-30" transform="scale(0.996264)"/>
     <use xlink:href="#NimbusSanL-Regu-2e" transform="translate(55.391677 0) scale(0.996264)"/>
     <use xlink:href="#NimbusSanL-Regu-35" transform="translate(83.086847 0) scale(0.996264)"/>
    </g>
   </g>
   <g id="text_4">
    <!-- 1.0 -->
    <g style="fill: #ff0000" transform="translate(185.859 104.0625) scale(0.08 -0.08)">
     <defs>
      <path id="NimbusSanL-Regu-31" d="M 1658 3232 
L 1658 0 
L 2221 0 
L 2221 4537 
L 1850 4537 
C 1651 3840 1523 3744 653 3635 
L 653 3232 
L 1658 3232 
z
" transform="scale(0.015625)"/>
     </defs>
     <use xlink:href="#NimbusSanL-Regu-31" transform="scale(0.996264)"/>
     <use xlink:href="#NimbusSanL-Regu-2e" transform="translate(55.391677 0) scale(0.996264)"/>
     <use xlink:href="#NimbusSanL-Regu-30" transform="translate(83.086847 0) scale(0.996264)"/>
    </g>
   </g>
   <g id="text_5">
    <!-- 2.0 -->
    <g style="fill: #ff0000" transform="translate(163.209 104.0625) scale(0.08 -0.08)">
     <use xlink:href="#NimbusSanL-Regu-32" transform="scale(0.996264)"/>
     <use xlink:href="#NimbusSanL-Regu-2e" transform="translate(55.391677 0) scale(0.996264)"/>
     <use xlink:href="#NimbusSanL-Regu-30" transform="translate(83.086847 0) scale(0.996264)"/>
    </g>
   </g>
   <g id="text_6">
    <!-- 5.0 -->
    <g style="fill: #ff0000" transform="translate(140.559 104.0625) scale(0.08 -0.08)">
     <use xlink:href="#NimbusSanL-Regu-35" transform="scale(0.996264)"/>
     <use xlink:href="#NimbusSanL-Regu-2e" transform="translate(55.391677 0) scale(0.996264)"/>
     <use xlink:href="#NimbusSanL-Regu-30" transform="translate(83.086847 0) scale(0.996264)"/>
    </g>
   </g>
   <g id="text_7">
    <!-- +j0.0 -->
    <g style="fill: #0000ff" transform="translate(252.45 113.138656) scale(0.08 -0.08)">
     <defs>
      <path id="NimbusSanL-Regu-2b" d="M 3418 1728 
L 2093 1728 
L 2093 3052 
L 1645 3052 
L 1645 1728 
L 320 1728 
L 320 1279 
L 1645 1279 
L 1645 -64 
L 2093 -64 
L 2093 1279 
L 3418 1279 
L 3418 1728 
z
" transform="scale(0.015625)"/>
      <path id="NimbusSanL-Regu-6a" d="M 448 3357 
L 448 -498 
C 448 -832 339 -941 13 -941 
C -7 -941 -7 -941 -115 -935 
L -115 -1389 
C -51 -1402 -19 -1408 64 -1408 
C 666 -1408 979 -1165 979 -710 
L 979 3357 
L 448 3357 
z
M 979 4672 
L 448 4672 
L 448 3999 
L 979 3999 
L 979 4672 
z
" transform="scale(0.015625)"/>
     </defs>
     <use xlink:href="#NimbusSanL-Regu-2b" transform="scale(0.996264)"/>
     <use xlink:href="#NimbusSanL-Regu-6a" transform="translate(58.181493 0) scale(0.996264)"/>
     <use xlink:href="#NimbusSanL-Regu-30" transform="translate(80.298277 0) scale(0.996264)"/>
     <use xlink:href="#NimbusSanL-Regu-2e" transform="translate(135.689954 0) scale(0.996264)"/>
     <use xlink:href="#NimbusSanL-Regu-30" transform="translate(163.385124 0) scale(0.996264)"/>
    </g>
   </g>
   <g id="text_8">
    <!-- +j0.2 -->
    <g style="fill: #0000ff" transform="translate(247.223077 139.273272) scale(0.08 -0.08)">
     <use xlink:href="#NimbusSanL-Regu-2b" transform="scale(0.996264)"/>
     <use xlink:href="#NimbusSanL-Regu-6a" transform="translate(58.181493 0) scale(0.996264)"/>
     <use xlink:href="#NimbusSanL-Regu-30" transform="translate(80.298277 0) scale(0.996264)"/>
     <use xlink:href="#NimbusSanL-Regu-2e" transform="translate(135.689954 0) scale(0.996264)"/>
     <use xlink:href="#NimbusSanL-Regu-32" transform="translate(163.385124 0) scale(0.996264)"/>
    </g>
   </g>
   <g id="text_9">
    <!-- +j0.5 -->
    <g style="fill: #0000ff" transform="translate(225.27 167.498656) scale(0.08 -0.08)">
     <use xlink:href="#NimbusSanL-Regu-2b" transform="scale(0.996264)"/>
     <use xlink:href="#NimbusSanL-Regu-6a" transform="translate(58.181493 0) scale(0.996264)"/>
     <use xlink:href="#NimbusSanL-Regu-30" transform="translate(80.298277 0) scale(0.996264)"/>
     <use xlink:href="#NimbusSanL-Regu-2e" transform="translate(135.689954 0) scale(0.996264)"/>
     <use xlink:href="#NimbusSanL-Regu-35" transform="translate(163.385124 0) scale(0.996264)"/>
    </g>
   </g>
   <g id="text_10">
    <!-- +j1.0 -->
    <g style="fill: #0000ff" transform="translate(175.748934 181.088656) scale(0.08 -0.08)">
     <use xlink:href="#NimbusSanL-Regu-2b" transform="scale(0.996264)"/>
     <use xlink:href="#NimbusSanL-Regu-6a" transform="translate(58.181493 0) scale(0.996264)"/>
     <use xlink:href="#NimbusSanL-Regu-31" transform="translate(80.298277 0) scale(0.996264)"/>
     <use xlink:href="#NimbusSanL-Regu-2e" transform="translate(135.689954 0) scale(0.996264)"/>
     <use xlink:href="#NimbusSanL-Regu-30" transform="translate(163.385124 0) scale(0.996264)"/>
    </g>
   </g>
   <g id="text_11">
    <!-- +j2.0 -->
    <g style="fill: #0000ff" transform="translate(126.227869 167.498656) scale(0.08 -0.08)">
     <use xlink:href="#NimbusSanL-Regu-2b" transform="scale(0.996264)"/>
     <use xlink:href="#NimbusSanL-Regu-6a" transform="translate(58.181493 0) scale(0.996264)"/>
     <use xlink:href="#NimbusSanL-Regu-32" transform="translate(80.298277 0) scale(0.996264)"/>
     <use xlink:href="#NimbusSanL-Regu-2e" transform="translate(135.689954 0) scale(0.996264)"/>
     <use xlink:href="#NimbusSanL-Regu-30" transform="translate(163.385124 0) scale(0.996264)"/>
    </g>
   </g>
   <g id="text_12">
    <!-- +j5.0 -->
    <g style="fill: #0000ff" transform="translate(104.274792 139.273272) scale(0.08 -0.08)">
     <use xlink:href="#NimbusSanL-Regu-2b" transform="scale(0.996264)"/>
     <use xlink:href="#NimbusSanL-Regu-6a" transform="translate(58.181493 0) scale(0.996264)"/>
     <use xlink:href="#NimbusSanL-Regu-35" transform="translate(80.298277 0) scale(0.996264)"/>
     <use xlink:href="#NimbusSanL-Regu-2e" transform="translate(135.689954 0) scale(0.996264)"/>
     <use xlink:href="#NimbusSanL-Regu-30" transform="translate(163.385124 0) scale(0.996264)"/>
    </g>
   </g>
   <g id="text_13">
    <!-- -j0.2 -->
    <g style="fill: #0000ff" transform="translate(247.223077 79.627802) scale(0.08 -0.08)">
     <defs>
      <path id="NimbusSanL-Regu-2d" d="M 1818 1996 
L 294 1996 
L 294 1536 
L 1818 1536 
L 1818 1996 
z
" transform="scale(0.015625)"/>
     </defs>
     <use xlink:href="#NimbusSanL-Regu-2d" transform="scale(0.996264)"/>
     <use xlink:href="#NimbusSanL-Regu-6a" transform="translate(33.17523 0) scale(0.996264)"/>
     <use xlink:href="#NimbusSanL-Regu-30" transform="translate(55.292014 0) scale(0.996264)"/>
     <use xlink:href="#NimbusSanL-Regu-2e" transform="translate(110.683691 0) scale(0.996264)"/>
     <use xlink:href="#NimbusSanL-Regu-32" transform="translate(138.378861 0) scale(0.996264)"/>
    </g>
   </g>
   <g id="text_14">
    <!-- -j0.5 -->
    <g style="fill: #0000ff" transform="translate(225.27 51.402417) scale(0.08 -0.08)">
     <use xlink:href="#NimbusSanL-Regu-2d" transform="scale(0.996264)"/>
     <use xlink:href="#NimbusSanL-Regu-6a" transform="translate(33.17523 0) scale(0.996264)"/>
     <use xlink:href="#NimbusSanL-Regu-30" transform="translate(55.292014 0) scale(0.996264)"/>
     <use xlink:href="#NimbusSanL-Regu-2e" transform="translate(110.683691 0) scale(0.996264)"/>
     <use xlink:href="#NimbusSanL-Regu-35" transform="translate(138.378861 0) scale(0.996264)"/>
    </g>
   </g>
   <g id="text_15">
    <!-- -j1.0 -->
    <g style="fill: #0000ff" transform="translate(176.749181 37.812417) scale(0.08 -0.08)">
     <use xlink:href="#NimbusSanL-Regu-2d" transform="scale(0.996264)"/>
     <use xlink:href="#NimbusSanL-Regu-6a" transform="translate(33.17523 0) scale(0.996264)"/>
     <use xlink:href="#NimbusSanL-Regu-31" transform="translate(55.292014 0) scale(0.996264)"/>
     <use xlink:href="#NimbusSanL-Regu-2e" transform="translate(110.683691 0) scale(0.996264)"/>
     <use xlink:href="#NimbusSanL-Regu-30" transform="translate(138.378861 0) scale(0.996264)"/>
    </g>
   </g>
   <g id="text_16">
    <!-- -j2.0 -->
    <g style="fill: #0000ff" transform="translate(128.228362 51.402417) scale(0.08 -0.08)">
     <use xlink:href="#NimbusSanL-Regu-2d" transform="scale(0.996264)"/>
     <use xlink:href="#NimbusSanL-Regu-6a" transform="translate(33.17523 0) scale(0.996264)"/>
     <use xlink:href="#NimbusSanL-Regu-32" transform="translate(55.292014 0) scale(0.996264)"/>
     <use xlink:href="#NimbusSanL-Regu-2e" transform="translate(110.683691 0) scale(0.996264)"/>
     <use xlink:href="#NimbusSanL-Regu-30" transform="translate(138.378861 0) scale(0.996264)"/>
    </g>
   </g>
   <g id="text_17">
    <!-- -j5.0 -->
    <g style="fill: #0000ff" transform="translate(106.275286 79.627802) scale(0.08 -0.08)">
     <use xlink:href="#NimbusSanL-Regu-2d" transform="scale(0.996264)"/>
     <use xlink:href="#NimbusSanL-Regu-6a" transform="translate(33.17523 0) scale(0.996264)"/>
     <use xlink:href="#NimbusSanL-Regu-35" transform="translate(55.292014 0) scale(0.996264)"/>
     <use xlink:href="#NimbusSanL-Regu-2e" transform="translate(110.683691 0) scale(0.996264)"/>
     <use xlink:href="#NimbusSanL-Regu-30" transform="translate(138.378861 0) scale(0.996264)"/>
    </g>
   </g>
   <g id="text_18">
    <!-- $s_{22}$ -->
    <g transform="translate(178.193769 114.55832) scale(0.1 -0.1)">
     <defs>
      <path id="CMMI12-73" d="M 1459 1290 
C 1568 1271 1741 1233 1779 1227 
C 1862 1201 2150 1099 2150 793 
C 2150 595 1971 64 1229 64 
C 1094 64 614 83 486 447 
C 742 414 870 614 870 755 
C 870 889 781 960 653 960 
C 512 960 326 851 326 563 
C 326 176 710 -64 1222 -64 
C 2195 -64 2483 665 2483 998 
C 2483 1093 2483 1271 2278 1475 
C 2118 1627 1965 1659 1619 1729 
C 1446 1767 1171 1824 1171 2111 
C 1171 2239 1286 2687 1894 2687 
C 2163 2687 2426 2589 2490 2368 
C 2208 2368 2195 2124 2195 2118 
C 2195 1983 2317 1945 2374 1945 
C 2464 1945 2643 2015 2643 2284 
C 2643 2546 2400 2816 1901 2816 
C 1062 2816 838 2169 838 1907 
C 838 1424 1312 1322 1459 1290 
z
" transform="scale(0.015625)"/>
      <path id="CMR17-32" d="M 2669 990 
L 2554 990 
C 2490 537 2438 460 2413 422 
C 2381 371 1920 371 1830 371 
L 602 371 
C 832 620 1280 1073 1824 1596 
C 2214 1966 2669 2400 2669 3033 
C 2669 3788 2067 4224 1395 4224 
C 691 4224 262 3603 262 3027 
C 262 2777 448 2745 525 2745 
C 589 2745 781 2783 781 3007 
C 781 3206 614 3264 525 3264 
C 486 3264 448 3257 422 3244 
C 544 3788 915 4057 1306 4057 
C 1862 4057 2227 3616 2227 3033 
C 2227 2477 1901 1998 1536 1583 
L 262 147 
L 262 0 
L 2515 0 
L 2669 990 
z
" transform="scale(0.015625)"/>
     </defs>
     <use xlink:href="#CMMI12-73" transform="scale(0.996264)"/>
     <use xlink:href="#CMR17-32" transform="translate(45.950048 -14.943915) scale(0.697382)"/>
     <use xlink:href="#CMR17-32" transform="translate(77.93323 -14.943915) scale(0.697382)"/>
    </g>
   </g>
   <g id="text_19">
    <!-- stab. circle, load plane -->
    <g transform="translate(116.55 32.715) scale(0.1 -0.1)">
     <defs>
      <path id="NimbusSanL-Regu-73" d="M 2803 2428 
C 2797 3084 2362 3456 1587 3456 
C 806 3456 301 3052 301 2434 
C 301 1912 570 1663 1363 1472 
L 1862 1351 
C 2234 1262 2381 1129 2381 887 
C 2381 574 2067 364 1600 364 
C 1312 364 1069 447 934 587 
C 851 683 813 778 781 1014 
L 218 1014 
C 243 243 678 -128 1555 -128 
C 2400 -128 2938 288 2938 931 
C 2938 1428 2656 1702 1990 1861 
L 1478 1982 
C 1043 2084 858 2224 858 2459 
C 858 2765 1133 2963 1568 2963 
C 1997 2963 2227 2778 2240 2428 
L 2803 2428 
z
" transform="scale(0.015625)"/>
      <path id="NimbusSanL-Regu-74" d="M 1626 3328 
L 1075 3328 
L 1075 4249 
L 544 4249 
L 544 3328 
L 90 3328 
L 90 2892 
L 544 2892 
L 544 402 
C 544 64 774 -128 1190 -128 
C 1318 -128 1446 -116 1626 -84 
L 1626 364 
C 1555 345 1472 339 1370 339 
C 1139 339 1075 402 1075 634 
L 1075 2892 
L 1626 2892 
L 1626 3328 
z
" transform="scale(0.015625)"/>
      <path id="NimbusSanL-Regu-61" d="M 3424 332 
C 3366 320 3341 320 3309 320 
C 3123 320 3021 415 3021 581 
L 3021 2542 
C 3021 3135 2586 3456 1760 3456 
C 1274 3456 870 3315 646 3065 
C 493 2893 429 2702 416 2370 
L 954 2370 
C 998 2778 1242 2963 1741 2963 
C 2221 2963 2490 2784 2490 2466 
L 2490 2326 
C 2490 2103 2355 2007 1933 1956 
C 1178 1861 1062 1835 858 1753 
C 467 1593 269 1294 269 861 
C 269 256 691 -128 1370 -128 
C 1792 -128 2131 19 2509 364 
C 2547 25 2714 -128 3059 -128 
C 3168 -128 3251 -116 3424 -71 
L 3424 332 
z
M 2490 1071 
C 2490 893 2438 785 2278 638 
C 2061 441 1798 339 1485 339 
C 1069 339 826 536 826 874 
C 826 1224 1062 1402 1632 1485 
C 2195 1562 2310 1587 2490 1670 
L 2490 1071 
z
" transform="scale(0.015625)"/>
      <path id="NimbusSanL-Regu-62" d="M 346 4672 
L 346 19 
L 826 19 
L 826 447 
C 1082 57 1421 -128 1888 -128 
C 2771 -128 3347 594 3347 1702 
C 3347 2784 2797 3456 1914 3456 
C 1453 3456 1126 3283 877 2905 
L 877 4672 
L 346 4672 
z
M 1811 2956 
C 2406 2956 2790 2440 2790 1644 
C 2790 887 2394 371 1811 371 
C 1248 371 877 880 877 1663 
C 877 2447 1248 2956 1811 2956 
z
" transform="scale(0.015625)"/>
      <path id="NimbusSanL-Regu-63" d="M 3014 2237 
C 2989 2561 2918 2771 2790 2956 
C 2560 3270 2157 3456 1690 3456 
C 787 3456 198 2740 198 1632 
C 198 555 774 -128 1683 -128 
C 2483 -128 2989 352 3053 1167 
L 2515 1167 
C 2426 632 2150 364 1696 364 
C 1107 364 755 842 755 1632 
C 755 2466 1101 2963 1683 2963 
C 2131 2963 2413 2701 2477 2237 
L 3014 2237 
z
" transform="scale(0.015625)"/>
      <path id="NimbusSanL-Regu-69" d="M 960 3358 
L 429 3358 
L 429 0 
L 960 0 
L 960 3358 
z
M 960 4672 
L 422 4672 
L 422 3999 
L 960 3999 
L 960 4672 
z
" transform="scale(0.015625)"/>
      <path id="NimbusSanL-Regu-72" d="M 442 3328 
L 442 0 
L 979 0 
L 979 1727 
C 979 2203 1101 2514 1357 2698 
C 1523 2819 1683 2857 2054 2863 
L 2054 3404 
C 1965 3449 1920 3456 1850 3456 
C 1504 3456 1242 3251 934 2750 
L 934 3328 
L 442 3328 
z
" transform="scale(0.015625)"/>
      <path id="NimbusSanL-Regu-6c" d="M 973 4672 
L 435 4672 
L 435 0 
L 973 0 
L 973 4672 
z
" transform="scale(0.015625)"/>
      <path id="NimbusSanL-Regu-65" d="M 3283 1484 
C 3283 1998 3245 2311 3149 2565 
C 2931 3123 2419 3456 1792 3456 
C 858 3456 256 2734 256 1619 
C 256 545 838 -128 1779 -128 
C 2547 -128 3078 307 3213 1018 
L 2675 1018 
C 2528 588 2227 364 1798 364 
C 1459 364 1171 514 992 787 
C 864 974 819 1161 813 1484 
L 3283 1484 
z
M 826 1920 
C 870 2552 1248 2963 1786 2963 
C 2310 2963 2714 2519 2714 1959 
C 2714 1946 2714 1933 2707 1920 
L 826 1920 
z
" transform="scale(0.015625)"/>
      <path id="NimbusSanL-Regu-2c" d="M 557 665 
L 557 0 
L 941 0 
L 941 -116 
C 941 -557 858 -685 557 -698 
L 557 -941 
C 1005 -941 1229 -653 1229 -103 
L 1229 665 
L 557 665 
z
" transform="scale(0.015625)"/>
      <path id="NimbusSanL-Regu-6f" d="M 1741 3456 
C 800 3456 230 2784 230 1663 
C 230 543 794 -128 1747 -128 
C 2688 -128 3264 543 3264 1638 
C 3264 2791 2707 3456 1741 3456 
z
M 1747 2963 
C 2349 2963 2707 2472 2707 1644 
C 2707 861 2336 364 1747 364 
C 1152 364 787 855 787 1663 
C 787 2466 1152 2963 1747 2963 
z
" transform="scale(0.015625)"/>
      <path id="NimbusSanL-Regu-64" d="M 3168 4672 
L 2637 4672 
L 2637 2937 
C 2413 3276 2054 3456 1606 3456 
C 736 3456 166 2759 166 1695 
C 166 568 723 -128 1626 -128 
C 2086 -128 2406 44 2694 460 
L 2694 19 
L 3168 19 
L 3168 4672 
z
M 1696 2956 
C 2272 2956 2637 2447 2637 1651 
C 2637 880 2266 371 1702 371 
C 1114 371 723 887 723 1663 
C 723 2440 1114 2956 1696 2956 
z
" transform="scale(0.015625)"/>
      <path id="NimbusSanL-Regu-70" d="M 346 -1408 
L 883 -1408 
L 883 371 
C 1165 25 1478 -128 1914 -128 
C 2778 -128 3347 568 3347 1632 
C 3347 2752 2797 3456 1907 3456 
C 1453 3456 1088 3251 838 2854 
L 838 3359 
L 346 3359 
L 346 -1408 
z
M 1818 2956 
C 2406 2956 2790 2440 2790 1644 
C 2790 887 2400 371 1818 371 
C 1254 371 883 880 883 1663 
C 883 2447 1254 2956 1818 2956 
z
" transform="scale(0.015625)"/>
      <path id="NimbusSanL-Regu-6e" d="M 448 3328 
L 448 0 
L 986 0 
L 986 1835 
C 986 2539 1344 2988 1894 2988 
C 2317 2988 2586 2732 2586 2328 
L 2586 0 
L 3117 0 
L 3117 2539 
C 3117 3097 2701 3456 2054 3456 
C 1555 3456 1235 3263 941 2796 
L 941 3328 
L 448 3328 
z
" transform="scale(0.015625)"/>
     </defs>
     <use xlink:href="#NimbusSanL-Regu-73" transform="scale(0.996264)"/>
     <use xlink:href="#NimbusSanL-Regu-74" transform="translate(49.8132 0) scale(0.996264)"/>
     <use xlink:href="#NimbusSanL-Regu-61" transform="translate(77.50837 0) scale(0.996264)"/>
     <use xlink:href="#NimbusSanL-Regu-62" transform="translate(132.900047 0) scale(0.996264)"/>
     <use xlink:href="#NimbusSanL-Regu-2e" transform="translate(184.30761 0) scale(0.996264)"/>
     <use xlink:href="#NimbusSanL-Regu-63" transform="translate(246.272432 0) scale(0.996264)"/>
     <use xlink:href="#NimbusSanL-Regu-69" transform="translate(296.085632 0) scale(0.996264)"/>
     <use xlink:href="#NimbusSanL-Regu-72" transform="translate(318.202417 0) scale(0.996264)"/>
     <use xlink:href="#NimbusSanL-Regu-63" transform="translate(351.377646 0) scale(0.996264)"/>
     <use xlink:href="#NimbusSanL-Regu-6c" transform="translate(401.190847 0) scale(0.996264)"/>
     <use xlink:href="#NimbusSanL-Regu-65" transform="translate(423.307631 0) scale(0.996264)"/>
     <use xlink:href="#NimbusSanL-Regu-2c" transform="translate(477.205915 0) scale(0.996264)"/>
     <use xlink:href="#NimbusSanL-Regu-6c" transform="translate(532.596255 0) scale(0.996264)"/>
     <use xlink:href="#NimbusSanL-Regu-6f" transform="translate(554.713039 0) scale(0.996264)"/>
     <use xlink:href="#NimbusSanL-Regu-61" transform="translate(610.104716 0) scale(0.996264)"/>
     <use xlink:href="#NimbusSanL-Regu-64" transform="translate(665.496393 0) scale(0.996264)"/>
     <use xlink:href="#NimbusSanL-Regu-70" transform="translate(748.583239 0) scale(0.996264)"/>
     <use xlink:href="#NimbusSanL-Regu-6c" transform="translate(803.974916 0) scale(0.996264)"/>
     <use xlink:href="#NimbusSanL-Regu-61" transform="translate(826.091701 0) scale(0.996264)"/>
     <use xlink:href="#NimbusSanL-Regu-6e" transform="translate(881.483378 0) scale(0.996264)"/>
     <use xlink:href="#NimbusSanL-Regu-65" transform="translate(936.875055 0) scale(0.996264)"/>
    </g>
   </g>
  </g>
 </g>
 <defs>
  <clipPath id="p9c2df9f9d7">
   <rect x="45" y="25.92" width="279" height="163.08"/>
  </clipPath>
 </defs>
</svg>
