<?xml version="1.0" encoding="utf-8" standalone="no"?>
<!DOCTYPE svg PUBLIC "-//W3C//DTD SVG 1.1//EN"
  "http://www.w3.org/Graphics/SVG/1.1/DTD/svg11.dtd">
<svg xmlns:xlink="http://www.w3.org/1999/xlink" width="360pt" height="216pt" viewBox="0 0 360 216" xmlns="http://www.w3.org/2000/svg" version="1.1">
 <metadata>
  <rdf:RDF xmlns:dc="http://purl.org/dc/elements/1.1/" xmlns:cc="http://creativecommons.org/ns#" xmlns:rdf="http://www.w3.org/1999/02/22-rdf-syntax-ns#">
   <cc:Work>
    <dc:type rdf:resource="http://purl.org/dc/dcmitype/StillImage"/>
    <dc:date>2024-06-16T18:58:34.946062</dc:date>
    <dc:format>image/svg+xml</dc:format>
    <dc:creator>
     <cc:Agent>
      <dc:title>Matplotlib v3.8.0, https://matplotlib.org/</dc:title>
     </cc:Agent>
    </dc:creator>
   </cc:Work>
  </rdf:RDF>
 </metadata>
 <defs>
  <style type="text/css">*{stroke-linejoin: round; stroke-linecap: butt}</style>
 </defs>
 <g id="figure_1">
  <g id="patch_1">
   <path d="M 0 216 
L 360 216 
L 360 0 
L 0 0 
z
" style="fill: #ffffff"/>
  </g>
  <g id="axes_1">
   <g id="line2d_1">
    <path d="M 252.45 107.46 
L 252.314566 103.171972 
L 251.908803 98.901038 
L 251.234328 94.664222 
L 250.293831 90.478414 
L 249.091061 86.3603 
L 247.630812 82.326295 
L 245.918904 78.39248 
L 243.962163 74.574537 
L 241.768388 70.887686 
L 239.346325 67.346622 
L 236.705628 63.965462 
L 233.856825 60.757684 
L 230.81127 57.736075 
L 227.581105 54.91268 
L 224.179206 52.298754 
L 220.619135 49.904717 
L 216.915081 47.740112 
L 213.081812 45.813569 
L 209.134607 44.132766 
L 205.089202 42.704404 
L 200.961722 41.534176 
L 196.768621 40.626749 
L 192.526613 39.985738 
L 188.252609 39.6137 
L 183.963646 39.512117 
L 179.676821 39.681394 
L 175.409222 40.120856 
L 171.177862 40.828752 
L 166.999608 41.80226 
L 162.891116 43.037499 
L 158.868763 44.529545 
L 154.948584 46.27245 
L 151.146205 48.259266 
L 147.476785 50.482074 
L 143.954949 52.932013 
L 140.594738 55.599316 
L 137.409547 58.473352 
L 134.412072 61.542662 
L 131.614262 64.795012 
L 129.02727 68.217438 
L 126.661408 71.796296 
L 124.526109 75.517319 
L 122.629882 79.365676 
L 120.980288 83.326025 
L 119.583903 87.382579 
L 118.446292 91.519168 
L 117.57199 95.719301 
L 116.964483 99.966236 
L 116.626193 104.243044 
L 116.558467 108.532675 
L 116.761577 112.81803 
L 117.234711 117.082027 
L 117.975985 121.307668 
L 118.982443 125.478107 
L 120.250073 129.576721 
L 121.773822 133.587171 
L 123.547616 137.493471 
L 125.564384 141.280049 
L 127.816087 144.93181 
L 130.293749 148.434197 
L 132.987492 151.773249 
L 135.88658 154.935656 
L 138.979455 157.90881 
L 142.253788 160.680861 
L 145.696527 163.240758 
L 149.293948 165.578297 
L 153.03171 167.684158 
L 156.894915 169.549949 
L 160.868161 171.168231 
L 164.935611 172.532553 
L 169.08105 173.637477 
L 173.287954 174.478598 
L 177.539552 175.052564 
L 181.818897 175.357085 
L 186.108929 175.390949 
L 190.392548 175.15402 
L 194.652677 174.647243 
L 198.872335 173.872638 
L 203.0347 172.833293 
L 207.12318 171.53335 
L 211.121478 169.977993 
L 215.013655 168.17342 
L 218.784196 166.126826 
L 222.418069 163.846368 
L 225.90079 161.341138 
L 229.218476 158.621122 
L 232.3579 155.697163 
L 235.306549 152.580916 
L 238.052668 149.284804 
L 240.58531 145.821966 
L 242.89438 142.206206 
L 244.970673 138.451938 
L 246.805912 134.574126 
L 248.392781 130.58823 
L 249.724955 126.510138 
L 250.797123 122.356106 
L 251.605011 118.142694 
L 252.145399 113.886698 
L 252.416133 109.605083 
L 252.45 107.46 
L 252.45 107.46 
" clip-path="url(#p946765264a)" style="fill: none; stroke: #ff0000; stroke-width: 2; stroke-linecap: square"/>
   </g>
   <g id="line2d_2">
    <path d="M 252.45 107.46 
L 252.337138 103.886644 
L 251.999002 100.327532 
L 251.43694 96.796852 
L 250.653193 93.308679 
L 249.650884 89.876916 
L 248.43401 86.515246 
L 247.00742 83.237067 
L 245.376803 80.055448 
L 243.548657 76.983071 
L 241.530271 74.032185 
L 239.32969 71.214551 
L 236.955687 68.541403 
L 234.417725 66.023395 
L 231.725921 63.670566 
L 228.891005 61.492295 
L 225.924279 59.497264 
L 222.837568 57.693427 
L 219.643177 56.087974 
L 216.35384 54.687305 
L 212.982668 53.497003 
L 209.543102 52.521814 
L 206.04885 51.765624 
L 202.513844 51.231449 
L 198.952174 50.921417 
L 195.378038 50.836764 
L 191.805684 50.977828 
L 188.249352 51.344047 
L 184.723219 51.93396 
L 181.24134 52.745217 
L 177.817597 53.774582 
L 174.465636 55.017954 
L 171.19882 56.470375 
L 168.030171 58.126055 
L 164.97232 59.978395 
L 162.037458 62.020011 
L 159.237282 64.242764 
L 156.582956 66.637793 
L 154.08506 69.195552 
L 151.753551 71.905844 
L 149.597725 74.757865 
L 147.626174 77.740246 
L 145.846757 80.841099 
L 144.266569 84.048063 
L 142.891907 87.348354 
L 141.728252 90.728816 
L 140.780243 94.175973 
L 140.051659 97.676084 
L 139.545403 101.215197 
L 139.263494 104.779203 
L 139.207056 108.353896 
L 139.376314 111.925025 
L 139.770593 115.478356 
L 140.388321 118.999723 
L 141.227036 122.475089 
L 142.283394 125.890601 
L 143.553185 129.232643 
L 145.031347 132.487893 
L 146.711987 135.643374 
L 148.588406 138.686508 
L 150.653124 141.605164 
L 152.89791 144.387708 
L 155.313817 147.023046 
L 157.891212 149.500675 
L 160.619823 151.810718 
L 163.488772 153.943965 
L 166.486623 155.891914 
L 169.601425 157.646799 
L 172.820762 159.201624 
L 176.131801 160.550193 
L 179.521343 161.687128 
L 182.975875 162.607898 
L 186.481628 163.308832 
L 190.024627 163.787136 
L 193.590747 164.040904 
L 197.165774 164.069124 
L 200.735456 163.871684 
L 204.285564 163.449369 
L 207.801945 162.803865 
L 211.270583 161.937744 
L 214.67765 160.854459 
L 218.009565 159.558327 
L 221.253046 158.054517 
L 224.395163 156.349021 
L 227.423391 154.44864 
L 230.325659 152.360949 
L 233.090396 150.094268 
L 235.706584 147.657636 
L 238.163791 145.060763 
L 240.452223 142.314004 
L 242.562759 139.428305 
L 244.486984 136.415172 
L 246.217227 133.286615 
L 247.746593 130.055105 
L 249.068984 126.733525 
L 250.179129 123.335115 
L 251.072603 119.873422 
L 251.745843 116.362245 
L 252.196166 112.815582 
L 252.421777 109.247569 
L 252.45 107.46 
L 252.45 107.46 
" clip-path="url(#p946765264a)" style="fill: none; stroke: #ff0000; stroke-linecap: square"/>
   </g>
   <g id="line2d_3">
    <path d="M 252.45 107.46 
L 252.35971 104.601315 
L 252.089202 101.754025 
L 251.639552 98.929482 
L 251.012554 96.138943 
L 250.210707 93.393533 
L 249.237208 90.704197 
L 248.095936 88.081654 
L 246.791442 85.536358 
L 245.328926 83.078457 
L 243.714217 80.717748 
L 241.953752 78.463641 
L 240.05455 76.325122 
L 238.02418 74.310716 
L 235.870737 72.428453 
L 233.602804 70.685836 
L 231.229423 69.089811 
L 228.760054 67.646741 
L 226.204541 66.362379 
L 223.573072 65.241844 
L 220.876135 64.289602 
L 218.124481 63.509451 
L 215.32908 62.904499 
L 212.501075 62.477159 
L 209.651739 62.229133 
L 206.79243 62.161411 
L 203.934547 62.274263 
L 201.089482 62.567238 
L 198.268575 63.039168 
L 195.483072 63.688173 
L 192.744077 64.511666 
L 190.062509 65.506363 
L 187.449056 66.6683 
L 184.914137 67.992844 
L 182.467856 69.474716 
L 180.119966 71.108009 
L 177.879826 72.886211 
L 175.756365 74.802234 
L 173.758048 76.848441 
L 171.892841 79.016675 
L 170.16818 81.298292 
L 168.590939 83.684197 
L 167.167406 86.16488 
L 165.903255 88.730451 
L 164.803526 91.370683 
L 163.872602 94.075053 
L 163.114195 96.832778 
L 162.531327 99.632867 
L 162.126322 102.464157 
L 161.900795 105.315363 
L 161.855645 108.175117 
L 161.991051 111.03202 
L 162.306474 113.874685 
L 162.800657 116.691778 
L 163.471628 119.472071 
L 164.316715 122.204481 
L 165.332548 124.878114 
L 166.515077 127.482314 
L 167.85959 130.006699 
L 169.360725 132.441206 
L 171.012499 134.776131 
L 172.808328 137.002166 
L 174.741053 139.110437 
L 176.80297 141.09254 
L 178.985859 142.940574 
L 181.281018 144.647172 
L 183.679299 146.205531 
L 186.17114 147.609439 
L 188.74661 148.853299 
L 191.395441 149.932154 
L 194.107074 150.841702 
L 196.8707 151.578318 
L 199.675303 152.139066 
L 202.509702 152.521709 
L 205.362598 152.724724 
L 208.222619 152.747299 
L 211.078365 152.589347 
L 213.918451 152.251495 
L 216.731556 151.735092 
L 219.506467 151.042195 
L 222.23212 150.175567 
L 224.897652 149.138662 
L 227.492437 147.935613 
L 230.00613 146.571217 
L 232.428713 145.050912 
L 234.750527 143.380759 
L 236.962317 141.567415 
L 239.055267 139.618109 
L 241.021033 137.540611 
L 242.851779 135.343203 
L 244.540207 133.034644 
L 246.079587 130.624138 
L 247.463782 128.121292 
L 248.687275 125.536084 
L 249.745187 122.87882 
L 250.633303 120.160092 
L 251.348082 117.390737 
L 251.886674 114.581796 
L 252.246933 111.744465 
L 252.427422 108.890055 
L 252.45 107.46 
L 252.45 107.46 
" clip-path="url(#p946765264a)" style="fill: none; stroke: #ff0000; stroke-linecap: square"/>
   </g>
   <g id="line2d_4">
    <path d="M 252.45 107.46 
L 252.2977 104.246651 
L 251.842164 101.062111 
L 251.087477 97.934931 
L 250.040406 94.893147 
L 248.710336 91.964031 
L 247.109194 89.173843 
L 245.251334 86.547598 
L 243.153412 84.108842 
L 240.834238 81.879439 
L 238.314603 79.879377 
L 235.617098 78.126587 
L 232.765906 76.636784 
L 229.78659 75.423325 
L 226.705861 74.497088 
L 223.551338 73.866378 
L 220.351304 73.53685 
L 217.134448 73.511457 
L 213.929611 73.790428 
L 210.765525 74.371261 
L 207.670558 75.248749 
L 204.672457 76.415025 
L 201.798103 77.859633 
L 199.073263 79.569621 
L 196.522369 81.529658 
L 194.16829 83.722172 
L 192.032131 86.127506 
L 190.133044 88.724095 
L 188.488054 91.48866 
L 187.111911 94.396414 
L 186.016951 97.42129 
L 185.212992 100.536166 
L 184.707242 103.713118 
L 184.504234 106.923662 
L 184.605788 110.139015 
L 185.010995 113.330349 
L 185.716221 116.469054 
L 186.715144 119.526987 
L 187.998808 122.476736 
L 189.555704 125.291852 
L 191.371874 127.947099 
L 193.431036 130.418669 
L 195.714727 132.684405 
L 198.202475 134.723993 
L 200.871974 136.519148 
L 203.699292 138.053775 
L 206.659081 139.314116 
L 209.724804 140.28887 
L 212.868977 140.969299 
L 216.06341 141.349303 
L 219.279465 141.425475 
L 222.488306 141.197131 
L 225.661167 140.666319 
L 228.769601 139.837798 
L 231.785739 138.718996 
L 234.682541 137.319944 
L 237.434035 135.653184 
L 240.015553 133.73366 
L 242.40395 131.578581 
L 244.577814 129.207269 
L 246.517655 126.640983 
L 248.206082 123.902731 
L 249.627956 121.017063 
L 250.77053 118.00985 
L 251.623562 114.908053 
L 252.179401 111.739481 
L 252.433066 108.532541 
L 252.45 107.46 
L 252.45 107.46 
" clip-path="url(#p946765264a)" style="fill: none; stroke: #ff0000; stroke-width: 2; stroke-linecap: square"/>
   </g>
   <g id="line2d_5">
    <path d="M 252.45 107.46 
L 252.348466 105.317767 
L 252.044776 103.194741 
L 251.541652 101.109954 
L 250.843604 99.082098 
L 249.956891 97.129354 
L 248.889463 95.269229 
L 247.650889 93.518399 
L 246.252275 91.892561 
L 244.706159 90.406293 
L 243.026402 89.072918 
L 241.228065 87.904391 
L 239.327271 86.91119 
L 237.34106 86.102217 
L 235.287241 85.484725 
L 233.184226 85.064252 
L 231.05087 84.844567 
L 228.906299 84.827638 
L 226.769741 85.013619 
L 224.66035 85.400841 
L 222.597039 85.985833 
L 220.598305 86.76335 
L 218.682068 87.726422 
L 216.865509 88.866414 
L 215.164913 90.173105 
L 213.595527 91.634781 
L 212.171421 93.238337 
L 210.905362 94.969397 
L 209.808703 96.81244 
L 208.891274 98.750943 
L 208.161301 100.767526 
L 207.625328 102.844111 
L 207.288161 104.962079 
L 207.152822 107.102442 
L 207.220526 109.24601 
L 207.490663 111.373566 
L 207.960814 113.466036 
L 208.626763 115.504658 
L 209.482539 117.471157 
L 210.520469 119.347901 
L 211.73125 121.118066 
L 213.104024 122.765779 
L 214.626485 124.27627 
L 216.284983 125.635996 
L 218.064649 126.832766 
L 219.949528 127.85585 
L 221.92272 128.696077 
L 223.966536 129.345913 
L 226.062651 129.799533 
L 228.192274 130.052869 
L 230.33631 130.10365 
L 232.475538 129.951421 
L 234.590778 129.597546 
L 236.663067 129.045199 
L 238.673826 128.299331 
L 240.605027 127.366629 
L 242.439356 126.255456 
L 244.160368 124.975773 
L 245.752633 123.539054 
L 247.201876 121.958179 
L 248.495103 120.247322 
L 249.620721 118.421821 
L 250.568637 116.498042 
L 251.330354 114.493233 
L 251.899041 112.425369 
L 252.269601 110.312987 
L 252.438711 108.175028 
L 252.45 107.46 
L 252.45 107.46 
" clip-path="url(#p946765264a)" style="fill: none; stroke: #ff0000; stroke-linecap: square"/>
   </g>
   <g id="line2d_6">
    <path d="M 252.45 107.46 
L 252.3598 106.033506 
L 252.090639 104.629736 
L 251.646802 103.271049 
L 251.035361 101.97909 
L 250.266054 100.774437 
L 249.351137 99.676281 
L 248.305184 98.702113 
L 247.144856 97.867453 
L 245.888635 97.185595 
L 244.556534 96.667401 
L 243.16977 96.321125 
L 241.750435 96.152283 
L 240.321137 96.163566 
L 238.904644 96.354792 
L 237.523519 96.722916 
L 236.199764 97.262075 
L 234.954464 97.963679 
L 233.807456 98.816553 
L 232.777012 99.80711 
L 231.879545 100.919573 
L 231.129351 102.13622 
L 230.538381 103.437671 
L 230.116049 104.803195 
L 229.869081 106.211039 
L 229.801411 107.638779 
L 229.914119 109.063671 
L 230.205407 110.463018 
L 230.670637 111.814529 
L 231.302397 113.096675 
L 232.090625 114.289033 
L 233.022763 115.372609 
L 234.083965 116.330144 
L 235.257325 117.146383 
L 236.524152 117.808325 
L 237.864269 118.305426 
L 239.256326 118.629766 
L 240.678149 118.776181 
L 242.107091 118.742337 
L 243.520389 118.528773 
L 244.89553 118.138892 
L 246.210609 117.578903 
L 247.444678 116.857728 
L 248.578079 115.986854 
L 249.592758 114.980153 
L 250.472552 113.853661 
L 251.203445 112.625323 
L 251.773797 111.314705 
L 252.174521 109.942684 
L 252.399233 108.531116 
L 252.45 107.46 
L 252.45 107.46 
" clip-path="url(#p946765264a)" style="fill: none; stroke: #ff0000; stroke-linecap: square"/>
   </g>
   <g id="line2d_7">
    <path d="M 184.5 107.46 
L 184.3477 104.246651 
L 183.892164 101.062111 
L 183.137477 97.934931 
L 182.090406 94.893147 
L 180.760336 91.964031 
L 179.159194 89.173843 
L 177.301334 86.547598 
L 175.203412 84.108842 
L 172.884238 81.879439 
L 170.364603 79.879377 
L 167.667098 78.126587 
L 164.815906 76.636784 
L 161.83659 75.423325 
L 158.755861 74.497088 
L 155.601338 73.866378 
L 152.401304 73.53685 
L 149.184448 73.511457 
L 145.979611 73.790428 
L 142.815525 74.371261 
L 139.720558 75.248749 
L 136.722457 76.415025 
L 133.848103 77.859633 
L 131.123263 79.569621 
L 128.572369 81.529658 
L 126.21829 83.722172 
L 124.082131 86.127506 
L 122.183044 88.724095 
L 120.538054 91.48866 
L 119.161911 94.396414 
L 118.066951 97.42129 
L 117.262992 100.536166 
L 116.757242 103.713118 
L 116.554234 106.923662 
L 116.655788 110.139015 
L 117.060995 113.330349 
L 117.766221 116.469054 
L 118.765144 119.526987 
L 120.048808 122.476736 
L 121.605704 125.291852 
L 123.421874 127.947099 
L 125.481036 130.418669 
L 127.764727 132.684405 
L 130.252475 134.723993 
L 132.921974 136.519148 
L 135.749292 138.053775 
L 138.709081 139.314116 
L 141.774804 140.28887 
L 144.918977 140.969299 
L 148.11341 141.349303 
L 151.329465 141.425475 
L 154.538306 141.197131 
L 157.711167 140.666319 
L 160.819601 139.837798 
L 163.835739 138.718996 
L 166.732541 137.319944 
L 169.484035 135.653184 
L 172.065553 133.73366 
L 174.45395 131.578581 
L 176.627814 129.207269 
L 178.567655 126.640983 
L 180.256082 123.902731 
L 181.677956 121.017063 
L 182.82053 118.00985 
L 183.673562 114.908053 
L 184.229401 111.739481 
L 184.483066 108.532541 
L 184.5 107.46 
L 184.5 107.46 
" clip-path="url(#p946765264a)" style="fill: none; stroke: #bf00bf; stroke-linecap: square"/>
   </g>
   <g id="line2d_8">
    <path d="M 252.45 107.46 
L 243.686023 107.573054 
L 234.927879 107.91214 
L 226.181395 108.477033 
L 217.452394 109.267357 
L 208.746684 110.282585 
L 200.07006 111.522043 
L 191.428294 112.984905 
L 182.82714 114.670198 
L 174.27232 116.5768 
L 165.769528 118.703443 
L 157.324423 121.04871 
L 148.942626 123.611041 
L 140.629714 126.388732 
L 132.391219 129.379933 
L 124.232625 132.582653 
L 121.776923 133.594615 
L 121.776923 133.594615 
" clip-path="url(#p946765264a)" style="fill: none; stroke: #0000ff; stroke-linecap: square"/>
   </g>
   <g id="line2d_9">
    <path d="M 252.45 107.46 
L 247.151461 107.56333 
L 241.86098 107.873164 
L 236.586601 108.389031 
L 231.336345 109.110145 
L 226.118196 110.035411 
L 220.94009 111.163421 
L 215.809901 112.49246 
L 210.735429 114.020507 
L 205.724392 115.745238 
L 200.784409 117.664031 
L 195.922994 119.773967 
L 191.147538 122.071838 
L 186.465304 124.554151 
L 181.883411 127.217129 
L 177.408828 130.056723 
L 173.048359 133.068616 
L 168.808634 136.248227 
L 164.696102 139.590721 
L 160.717015 143.091015 
L 156.877424 146.743786 
L 153.18317 150.54348 
L 149.639868 154.484318 
L 146.252908 158.560308 
L 143.73 161.82 
L 143.73 161.82 
" clip-path="url(#p946765264a)" style="fill: none; stroke: #0000ff; stroke-linecap: square"/>
   </g>
   <g id="line2d_10">
    <path d="M 252.45 107.46 
L 251.602914 107.46528 
L 250.755959 107.48112 
L 249.909268 107.507517 
L 249.062972 107.544467 
L 248.217202 107.591965 
L 247.37209 107.650002 
L 246.527767 107.71857 
L 245.684365 107.797659 
L 244.842014 107.887255 
L 244.000845 107.987346 
L 243.16099 108.097915 
L 242.322578 108.218945 
L 241.48574 108.350418 
L 240.650606 108.492313 
L 239.817306 108.644608 
L 238.98597 108.807279 
L 238.156725 108.980302 
L 237.329703 109.163648 
L 236.50503 109.357291 
L 235.682835 109.561198 
L 234.863246 109.77534 
L 234.04639 109.999682 
L 233.232395 110.23419 
L 232.421386 110.478828 
L 231.61349 110.733556 
L 230.808832 110.998337 
L 230.007538 111.273128 
L 229.209731 111.557886 
L 228.415537 111.852569 
L 227.625077 112.157129 
L 226.838476 112.471519 
L 226.055856 112.795691 
L 225.277337 113.129595 
L 224.503041 113.473177 
L 223.733089 113.826386 
L 222.9676 114.189165 
L 222.206693 114.56146 
L 221.450486 114.943211 
L 220.699097 115.334359 
L 219.952642 115.734844 
L 219.211238 116.144604 
L 218.475 116.563574 
L 217.744042 116.99169 
L 217.018478 117.428885 
L 216.29842 117.875091 
L 215.583981 118.330239 
L 214.875272 118.794257 
L 214.172402 119.267075 
L 213.475481 119.748619 
L 212.784617 120.238813 
L 212.099918 120.737581 
L 211.42149 121.244846 
L 210.749439 121.760529 
L 210.083868 122.284551 
L 209.424882 122.816829 
L 208.772582 123.35728 
L 208.12707 123.905821 
L 207.488447 124.462367 
L 206.856812 125.026831 
L 206.232262 125.599125 
L 205.614896 126.179161 
L 205.004808 126.766848 
L 204.402094 127.362094 
L 203.806848 127.964808 
L 203.219161 128.574896 
L 202.639125 129.192262 
L 202.066831 129.816812 
L 201.502367 130.448447 
L 200.945821 131.08707 
L 200.39728 131.732582 
L 199.856829 132.384882 
L 199.324551 133.043868 
L 198.800529 133.709439 
L 198.284846 134.38149 
L 197.777581 135.059918 
L 197.278813 135.744617 
L 196.788619 136.435481 
L 196.307075 137.132402 
L 195.834257 137.835272 
L 195.370239 138.543981 
L 194.915091 139.25842 
L 194.468885 139.978478 
L 194.03169 140.704042 
L 193.603574 141.435 
L 193.184604 142.171238 
L 192.774844 142.912642 
L 192.374359 143.659097 
L 191.983211 144.410486 
L 191.60146 145.166693 
L 191.229165 145.9276 
L 190.866386 146.693089 
L 190.513177 147.463041 
L 190.169595 148.237337 
L 189.835691 149.015856 
L 189.511519 149.798476 
L 189.197129 150.585077 
L 188.892569 151.375537 
L 188.597886 152.169731 
L 188.313128 152.967538 
L 188.038337 153.768832 
L 187.773556 154.57349 
L 187.518828 155.381386 
L 187.27419 156.192395 
L 187.039682 157.00639 
L 186.81534 157.823246 
L 186.601198 158.642835 
L 186.397291 159.46503 
L 186.203648 160.289703 
L 186.020302 161.116725 
L 185.847279 161.94597 
L 185.684608 162.777306 
L 185.532313 163.610606 
L 185.390418 164.44574 
L 185.258945 165.282578 
L 185.137915 166.12099 
L 185.027346 166.960845 
L 184.927255 167.802014 
L 184.837659 168.644365 
L 184.75857 169.487767 
L 184.690002 170.33209 
L 184.631965 171.177202 
L 184.584467 172.022972 
L 184.547517 172.869268 
L 184.52112 173.715959 
L 184.50528 174.562914 
L 184.5 175.41 
" clip-path="url(#p946765264a)" style="fill: none; stroke: #0000ff; stroke-linecap: square"/>
   </g>
   <g id="line2d_11">
    <path d="M 252.45 107.46 
L 251.604798 107.470515 
L 250.760119 107.502052 
L 249.916486 107.554594 
L 249.074421 107.628106 
L 248.234445 107.722543 
L 247.397079 107.837848 
L 246.562841 107.973948 
L 245.732246 108.13076 
L 244.905809 108.308186 
L 244.084043 108.506116 
L 243.267454 108.724429 
L 242.456549 108.962988 
L 241.65183 109.221646 
L 240.853794 109.500244 
L 240.062936 109.798608 
L 239.279746 110.116554 
L 238.504707 110.453886 
L 237.7383 110.810394 
L 236.981 111.185857 
L 236.233274 111.580044 
L 235.495585 111.99271 
L 234.768391 112.4236 
L 234.052142 112.872447 
L 233.34728 113.338973 
L 232.654242 113.822891 
L 231.973457 114.323899 
L 231.305346 114.841688 
L 230.650324 115.375937 
L 230.008794 115.926317 
L 229.381156 116.492485 
L 228.767796 117.074092 
L 228.169094 117.670778 
L 227.585422 118.282173 
L 227.01714 118.907899 
L 226.464601 119.547569 
L 225.928145 120.200786 
L 225.408106 120.867147 
L 224.904805 121.546238 
L 224.418553 122.23764 
L 223.949652 122.940925 
L 223.498392 123.655657 
L 223.065053 124.381394 
L 222.649901 125.117686 
L 222.253195 125.864079 
L 221.87518 126.620109 
L 221.51609 127.385309 
L 221.176146 128.159206 
L 220.855561 128.94132 
L 220.554531 129.731167 
L 220.273244 130.528258 
L 220.011873 131.332101 
L 219.770581 132.142197 
L 219.549516 132.958044 
L 219.348815 133.779139 
L 219.168604 134.604973 
L 219.008992 135.435034 
L 218.870079 136.268808 
L 218.751951 137.105781 
L 218.654682 137.945433 
L 218.57833 138.787245 
L 218.522944 139.630697 
L 218.488558 140.475264 
L 218.475193 141.320426 
L 218.482858 142.165659 
L 218.511547 143.01044 
L 218.561243 143.854245 
L 218.631915 144.696553 
L 218.723519 145.536842 
L 218.835999 146.374593 
L 218.969285 147.209285 
L 219.123295 148.040404 
L 219.297933 148.867434 
L 219.493091 149.689864 
L 219.708648 150.507184 
L 219.944472 151.318889 
L 220.200415 152.124476 
L 220.47632 152.923446 
L 220.772015 153.715306 
L 221.087319 154.499564 
L 221.422034 155.275736 
L 221.775956 156.043341 
L 222.148863 156.801903 
L 222.540526 157.550954 
L 222.950702 158.29003 
L 223.379137 159.018673 
L 223.825566 159.736432 
L 224.289713 160.442864 
L 224.77129 161.137529 
L 225.27 161.82 
" clip-path="url(#p946765264a)" style="fill: none; stroke: #0000ff; stroke-linecap: square"/>
   </g>
   <g id="line2d_12">
    <path d="M 252.45 107.46 
L 251.92437 107.470169 
L 251.399527 107.50066 
L 250.876256 107.551429 
L 250.35534 107.622398 
L 249.837558 107.713462 
L 249.323686 107.824484 
L 248.814493 107.955299 
L 248.310741 108.10571 
L 247.813183 108.275493 
L 247.322564 108.464393 
L 246.839618 108.672128 
L 246.365069 108.898387 
L 245.899625 109.14283 
L 245.443985 109.405093 
L 244.998829 109.684783 
L 244.564824 109.981482 
L 244.142619 110.294744 
L 243.732847 110.624102 
L 243.33612 110.969063 
L 242.953032 111.32911 
L 242.584157 111.703705 
L 242.230046 112.092286 
L 241.891229 112.494273 
L 241.568214 112.909064 
L 241.261484 113.336038 
L 240.971498 113.774556 
L 240.698689 114.223962 
L 240.443467 114.683583 
L 240.206213 115.152732 
L 239.987281 115.630706 
L 239.787001 116.11679 
L 239.605671 116.610257 
L 239.443563 117.110369 
L 239.300919 117.616375 
L 239.177954 118.127521 
L 239.07485 118.64304 
L 238.991762 119.162161 
L 238.928815 119.684107 
L 238.886103 120.208097 
L 238.86369 120.733348 
L 238.861608 121.259072 
L 238.879862 121.784483 
L 238.918425 122.308795 
L 238.977237 122.831223 
L 239.056212 123.350986 
L 239.155231 123.867305 
L 239.274145 124.379408 
L 239.412778 124.886528 
L 239.570922 125.387907 
L 239.748339 125.882795 
L 239.944764 126.370449 
L 240.159904 126.850142 
L 240.393437 127.321155 
L 240.645012 127.782782 
L 240.914254 128.234334 
L 241.200759 128.675134 
L 241.504099 129.104523 
L 241.82382 129.521859 
L 242.159443 129.926516 
L 242.510466 130.317889 
L 242.876364 130.695392 
L 243.256589 131.058461 
L 243.650572 131.406552 
L 244.057724 131.739144 
L 244.477435 132.05574 
L 244.909078 132.355865 
L 245.352005 132.639071 
L 245.805555 132.904933 
L 246.269048 133.153055 
L 246.741791 133.383063 
L 247.223077 133.594615 
" clip-path="url(#p946765264a)" style="fill: none; stroke: #0000ff; stroke-linecap: square"/>
   </g>
   <g id="line2d_13">
    <path d="M 121.776923 81.325385 
L 129.91023 84.591788 
L 138.125089 87.647302 
L 146.416032 90.489894 
L 154.777543 93.117673 
L 163.204055 95.528889 
L 171.689962 97.721937 
L 180.229615 99.695359 
L 188.817332 101.44784 
L 197.447397 102.978215 
L 206.114067 104.285465 
L 214.811575 105.36872 
L 223.534131 106.22726 
L 232.275931 106.860511 
L 241.031156 107.268055 
L 249.793982 107.449618 
L 252.45 107.46 
L 252.45 107.46 
" clip-path="url(#p946765264a)" style="fill: none; stroke: #0000ff; stroke-linecap: square"/>
   </g>
   <g id="line2d_14">
    <path d="M 143.73 53.1 
L 146.991788 57.276833 
L 150.413944 61.323318 
L 153.991264 65.233301 
L 157.718309 69.000837 
L 161.589411 72.620196 
L 165.598682 76.085875 
L 169.740027 79.392604 
L 174.007148 82.535353 
L 178.393555 85.509344 
L 182.892579 88.310054 
L 187.497377 90.933225 
L 192.200948 93.374867 
L 196.996138 95.631267 
L 201.875656 97.698994 
L 206.832082 99.574903 
L 211.857877 101.256143 
L 216.945401 102.740156 
L 222.086916 104.024686 
L 227.274603 105.107779 
L 232.500574 105.987789 
L 237.756882 106.663376 
L 243.035534 107.133514 
L 248.328501 107.397488 
L 252.45 107.46 
L 252.45 107.46 
" clip-path="url(#p946765264a)" style="fill: none; stroke: #0000ff; stroke-linecap: square"/>
   </g>
   <g id="line2d_15">
    <path d="M 184.5 39.51 
L 184.50528 40.357086 
L 184.52112 41.204041 
L 184.547517 42.050732 
L 184.584467 42.897028 
L 184.631965 43.742798 
L 184.690002 44.58791 
L 184.75857 45.432233 
L 184.837659 46.275635 
L 184.927255 47.117986 
L 185.027346 47.959155 
L 185.137915 48.79901 
L 185.258945 49.637422 
L 185.390418 50.47426 
L 185.532313 51.309394 
L 185.684608 52.142694 
L 185.847279 52.97403 
L 186.020302 53.803275 
L 186.203648 54.630297 
L 186.397291 55.45497 
L 186.601198 56.277165 
L 186.81534 57.096754 
L 187.039682 57.91361 
L 187.27419 58.727605 
L 187.518828 59.538614 
L 187.773556 60.34651 
L 188.038337 61.151168 
L 188.313128 61.952462 
L 188.597886 62.750269 
L 188.892569 63.544463 
L 189.197129 64.334923 
L 189.511519 65.121524 
L 189.835691 65.904144 
L 190.169595 66.682663 
L 190.513177 67.456959 
L 190.866386 68.226911 
L 191.229165 68.9924 
L 191.60146 69.753307 
L 191.983211 70.509514 
L 192.374359 71.260903 
L 192.774844 72.007358 
L 193.184604 72.748762 
L 193.603574 73.485 
L 194.03169 74.215958 
L 194.468885 74.941522 
L 194.915091 75.66158 
L 195.370239 76.376019 
L 195.834257 77.084728 
L 196.307075 77.787598 
L 196.788619 78.484519 
L 197.278813 79.175383 
L 197.777581 79.860082 
L 198.284846 80.53851 
L 198.800529 81.210561 
L 199.324551 81.876132 
L 199.856829 82.535118 
L 200.39728 83.187418 
L 200.945821 83.83293 
L 201.502367 84.471553 
L 202.066831 85.103188 
L 202.639125 85.727738 
L 203.219161 86.345104 
L 203.806848 86.955192 
L 204.402094 87.557906 
L 205.004808 88.153152 
L 205.614896 88.740839 
L 206.232262 89.320875 
L 206.856812 89.893169 
L 207.488447 90.457633 
L 208.12707 91.014179 
L 208.772582 91.56272 
L 209.424882 92.103171 
L 210.083868 92.635449 
L 210.749439 93.159471 
L 211.42149 93.675154 
L 212.099918 94.182419 
L 212.784617 94.681187 
L 213.475481 95.171381 
L 214.172402 95.652925 
L 214.875272 96.125743 
L 215.583981 96.589761 
L 216.29842 97.044909 
L 217.018478 97.491115 
L 217.744042 97.92831 
L 218.475 98.356426 
L 219.211238 98.775396 
L 219.952642 99.185156 
L 220.699097 99.585641 
L 221.450486 99.976789 
L 222.206693 100.35854 
L 222.9676 100.730835 
L 223.733089 101.093614 
L 224.503041 101.446823 
L 225.277337 101.790405 
L 226.055856 102.124309 
L 226.838476 102.448481 
L 227.625077 102.762871 
L 228.415537 103.067431 
L 229.209731 103.362114 
L 230.007538 103.646872 
L 230.808832 103.921663 
L 231.61349 104.186444 
L 232.421386 104.441172 
L 233.232395 104.68581 
L 234.04639 104.920318 
L 234.863246 105.14466 
L 235.682835 105.358802 
L 236.50503 105.562709 
L 237.329703 105.756352 
L 238.156725 105.939698 
L 238.98597 106.112721 
L 239.817306 106.275392 
L 240.650606 106.427687 
L 241.48574 106.569582 
L 242.322578 106.701055 
L 243.16099 106.822085 
L 244.000845 106.932654 
L 244.842014 107.032745 
L 245.684365 107.122341 
L 246.527767 107.20143 
L 247.37209 107.269998 
L 248.217202 107.328035 
L 249.062972 107.375533 
L 249.909268 107.412483 
L 250.755959 107.43888 
L 251.602914 107.45472 
L 252.45 107.46 
" clip-path="url(#p946765264a)" style="fill: none; stroke: #0000ff; stroke-linecap: square"/>
   </g>
   <g id="line2d_16">
    <path d="M 225.27 53.1 
L 224.77129 53.782471 
L 224.289713 54.477136 
L 223.825566 55.183568 
L 223.379137 55.901327 
L 222.950702 56.62997 
L 222.540526 57.369046 
L 222.148863 58.118097 
L 221.775956 58.876659 
L 221.422034 59.644264 
L 221.087319 60.420436 
L 220.772015 61.204694 
L 220.47632 61.996554 
L 220.200415 62.795524 
L 219.944472 63.601111 
L 219.708648 64.412816 
L 219.493091 65.230136 
L 219.297933 66.052566 
L 219.123295 66.879596 
L 218.969285 67.710715 
L 218.835999 68.545407 
L 218.723519 69.383158 
L 218.631915 70.223447 
L 218.561243 71.065755 
L 218.511547 71.90956 
L 218.482858 72.754341 
L 218.475193 73.599574 
L 218.488558 74.444736 
L 218.522944 75.289303 
L 218.57833 76.132755 
L 218.654682 76.974567 
L 218.751951 77.814219 
L 218.870079 78.651192 
L 219.008992 79.484966 
L 219.168604 80.315027 
L 219.348815 81.140861 
L 219.549516 81.961956 
L 219.770581 82.777803 
L 220.011873 83.587899 
L 220.273244 84.391742 
L 220.554531 85.188833 
L 220.855561 85.97868 
L 221.176146 86.760794 
L 221.51609 87.534691 
L 221.87518 88.299891 
L 222.253195 89.055921 
L 222.649901 89.802314 
L 223.065053 90.538606 
L 223.498392 91.264343 
L 223.949652 91.979075 
L 224.418553 92.68236 
L 224.904805 93.373762 
L 225.408106 94.052853 
L 225.928145 94.719214 
L 226.464601 95.372431 
L 227.01714 96.012101 
L 227.585422 96.637827 
L 228.169094 97.249222 
L 228.767796 97.845908 
L 229.381156 98.427515 
L 230.008794 98.993683 
L 230.650324 99.544063 
L 231.305346 100.078312 
L 231.973457 100.596101 
L 232.654242 101.097109 
L 233.34728 101.581027 
L 234.052142 102.047553 
L 234.768391 102.4964 
L 235.495585 102.92729 
L 236.233274 103.339956 
L 236.981 103.734143 
L 237.7383 104.109606 
L 238.504707 104.466114 
L 239.279746 104.803446 
L 240.062936 105.121392 
L 240.853794 105.419756 
L 241.65183 105.698354 
L 242.456549 105.957012 
L 243.267454 106.195571 
L 244.084043 106.413884 
L 244.905809 106.611814 
L 245.732246 106.78924 
L 246.562841 106.946052 
L 247.397079 107.082152 
L 248.234445 107.197457 
L 249.074421 107.291894 
L 249.916486 107.365406 
L 250.760119 107.417948 
L 251.604798 107.449485 
L 252.45 107.46 
" clip-path="url(#p946765264a)" style="fill: none; stroke: #0000ff; stroke-linecap: square"/>
   </g>
   <g id="line2d_17">
    <path d="M 247.223077 81.325385 
L 246.741791 81.536937 
L 246.269048 81.766945 
L 245.805555 82.015067 
L 245.352005 82.280929 
L 244.909078 82.564135 
L 244.477435 82.86426 
L 244.057724 83.180856 
L 243.650572 83.513448 
L 243.256589 83.861539 
L 242.876364 84.224608 
L 242.510466 84.602111 
L 242.159443 84.993484 
L 241.82382 85.398141 
L 241.504099 85.815477 
L 241.200759 86.244866 
L 240.914254 86.685666 
L 240.645012 87.137218 
L 240.393437 87.598845 
L 240.159904 88.069858 
L 239.944764 88.549551 
L 239.748339 89.037205 
L 239.570922 89.532093 
L 239.412778 90.033472 
L 239.274145 90.540592 
L 239.155231 91.052695 
L 239.056212 91.569014 
L 238.977237 92.088777 
L 238.918425 92.611205 
L 238.879862 93.135517 
L 238.861608 93.660928 
L 238.86369 94.186652 
L 238.886103 94.711903 
L 238.928815 95.235893 
L 238.991762 95.757839 
L 239.07485 96.27696 
L 239.177954 96.792479 
L 239.300919 97.303625 
L 239.443563 97.809631 
L 239.605671 98.309743 
L 239.787001 98.80321 
L 239.987281 99.289294 
L 240.206213 99.767268 
L 240.443467 100.236417 
L 240.698689 100.696038 
L 240.971498 101.145444 
L 241.261484 101.583962 
L 241.568214 102.010936 
L 241.891229 102.425727 
L 242.230046 102.827714 
L 242.584157 103.216295 
L 242.953032 103.59089 
L 243.33612 103.950937 
L 243.732847 104.295898 
L 244.142619 104.625256 
L 244.564824 104.938518 
L 244.998829 105.235217 
L 245.443985 105.514907 
L 245.899625 105.77717 
L 246.365069 106.021613 
L 246.839618 106.247872 
L 247.322564 106.455607 
L 247.813183 106.644507 
L 248.310741 106.81429 
L 248.814493 106.964701 
L 249.323686 107.095516 
L 249.837558 107.206538 
L 250.35534 107.297602 
L 250.876256 107.368571 
L 251.399527 107.41934 
L 251.92437 107.449831 
L 252.45 107.46 
" clip-path="url(#p946765264a)" style="fill: none; stroke: #0000ff; stroke-linecap: square"/>
   </g>
   <g id="line2d_18">
    <path d="M 116.55 107.46 
L 123.345 107.46 
L 130.14 107.46 
L 136.935 107.46 
L 143.73 107.46 
L 150.525 107.46 
L 157.32 107.46 
L 164.115 107.46 
L 170.91 107.46 
L 177.705 107.46 
L 184.5 107.46 
L 191.295 107.46 
L 198.09 107.46 
L 204.885 107.46 
L 211.68 107.46 
L 218.475 107.46 
L 225.27 107.46 
L 232.065 107.46 
L 238.86 107.46 
L 245.655 107.46 
" clip-path="url(#p946765264a)" style="fill: none; stroke: #0000ff; stroke-width: 2; stroke-linecap: square"/>
   </g>
   <g id="line2d_19">
    <path d="M 0 0 
" clip-path="url(#p946765264a)" style="fill: none; stroke: #000000; stroke-width: 2; stroke-linecap: square"/>
   </g>
   <g id="line2d_20">
    <path d="M 184.5 107.46 
" clip-path="url(#p946765264a)" style="fill: none; stroke: #1f77b4; stroke-width: 1.5; stroke-linecap: square"/>
    <defs>
     <path id="m4250a88f72" d="M 0 1.25 
C 0.331504 1.25 0.649475 1.118292 0.883883 0.883883 
C 1.118292 0.649475 1.25 0.331504 1.25 0 
C 1.25 -0.331504 1.118292 -0.649475 0.883883 -0.883883 
C 0.649475 -1.118292 0.331504 -1.25 0 -1.25 
C -0.331504 -1.25 -0.649475 -1.118292 -0.883883 -0.883883 
C -1.118292 -0.649475 -1.25 -0.331504 -1.25 0 
C -1.25 0.331504 -1.118292 0.649475 -0.883883 0.883883 
C -0.649475 1.118292 -0.331504 1.25 0 1.25 
z
" style="stroke: #1f77b4"/>
    </defs>
    <g clip-path="url(#p946765264a)">
     <use xlink:href="#m4250a88f72" x="184.5" y="107.46" style="fill: #1f77b4; stroke: #1f77b4"/>
    </g>
   </g>
   <g id="text_1">
    <!-- 0.0 -->
    <g style="fill: #ff0000" transform="translate(117.909 104.0625) scale(0.08 -0.08)">
     <defs>
      <path id="NimbusSanL-Regu-30" d="M 1760 4544 
C 1338 4544 954 4358 717 4044 
C 422 3649 275 3043 275 2207 
C 275 683 787 -128 1760 -128 
C 2720 -128 3245 683 3245 2169 
C 3245 3049 3104 3636 2803 4044 
C 2566 4364 2189 4544 1760 4544 
z
M 1760 4044 
C 2368 4044 2669 3432 2669 2220 
C 2669 938 2374 339 1747 339 
C 1152 339 851 964 851 2201 
C 851 3438 1152 4044 1760 4044 
z
" transform="scale(0.015625)"/>
      <path id="NimbusSanL-Regu-2e" d="M 1222 665 
L 557 665 
L 557 0 
L 1222 0 
L 1222 665 
z
" transform="scale(0.015625)"/>
     </defs>
     <use xlink:href="#NimbusSanL-Regu-30" transform="scale(0.996264)"/>
     <use xlink:href="#NimbusSanL-Regu-2e" transform="translate(55.391677 0) scale(0.996264)"/>
     <use xlink:href="#NimbusSanL-Regu-30" transform="translate(83.086847 0) scale(0.996264)"/>
    </g>
   </g>
   <g id="text_2">
    <!-- 0.2 -->
    <g style="fill: #ff0000" transform="translate(140.559 104.0625) scale(0.08 -0.08)">
     <defs>
      <path id="NimbusSanL-Regu-32" d="M 3238 556 
L 851 556 
C 909 928 1114 1165 1670 1493 
L 2310 1839 
C 2944 2185 3270 2653 3270 3211 
C 3270 3589 3117 3942 2848 4185 
C 2579 4428 2246 4544 1818 4544 
C 1242 4544 813 4339 563 3955 
C 403 3711 333 3429 320 2967 
L 883 2967 
C 902 3275 941 3461 1018 3608 
C 1165 3884 1459 4051 1798 4051 
C 2310 4051 2694 3685 2694 3198 
C 2694 2839 2483 2531 2080 2300 
L 1491 1967 
C 544 1428 269 999 218 0 
L 3238 0 
L 3238 556 
z
" transform="scale(0.015625)"/>
     </defs>
     <use xlink:href="#NimbusSanL-Regu-30" transform="scale(0.996264)"/>
     <use xlink:href="#NimbusSanL-Regu-2e" transform="translate(55.391677 0) scale(0.996264)"/>
     <use xlink:href="#NimbusSanL-Regu-32" transform="translate(83.086847 0) scale(0.996264)"/>
    </g>
   </g>
   <g id="text_3">
    <!-- 0.5 -->
    <g style="fill: #ff0000" transform="translate(163.209 104.0625) scale(0.08 -0.08)">
     <defs>
      <path id="NimbusSanL-Regu-35" d="M 3046 4544 
L 704 4544 
L 365 2076 
L 883 2076 
C 1146 2387 1363 2496 1715 2496 
C 2323 2496 2707 2082 2707 1414 
C 2707 765 2330 371 1715 371 
C 1222 371 922 619 787 1128 
L 224 1128 
C 301 759 365 581 499 415 
C 755 70 1216 -128 1728 -128 
C 2643 -128 3283 536 3283 1490 
C 3283 2381 2688 2995 1818 2995 
C 1498 2995 1242 2912 979 2720 
L 1158 3987 
L 3046 3987 
L 3046 4544 
z
" transform="scale(0.015625)"/>
     </defs>
     <use xlink:href="#NimbusSanL-Regu-30" transform="scale(0.996264)"/>
     <use xlink:href="#NimbusSanL-Regu-2e" transform="translate(55.391677 0) scale(0.996264)"/>
     <use xlink:href="#NimbusSanL-Regu-35" transform="translate(83.086847 0) scale(0.996264)"/>
    </g>
   </g>
   <g id="text_4">
    <!-- 1.0 -->
    <g style="fill: #ff0000" transform="translate(185.859 104.0625) scale(0.08 -0.08)">
     <defs>
      <path id="NimbusSanL-Regu-31" d="M 1658 3232 
L 1658 0 
L 2221 0 
L 2221 4537 
L 1850 4537 
C 1651 3840 1523 3744 653 3635 
L 653 3232 
L 1658 3232 
z
" transform="scale(0.015625)"/>
     </defs>
     <use xlink:href="#NimbusSanL-Regu-31" transform="scale(0.996264)"/>
     <use xlink:href="#NimbusSanL-Regu-2e" transform="translate(55.391677 0) scale(0.996264)"/>
     <use xlink:href="#NimbusSanL-Regu-30" transform="translate(83.086847 0) scale(0.996264)"/>
    </g>
   </g>
   <g id="text_5">
    <!-- 2.0 -->
    <g style="fill: #ff0000" transform="translate(208.509 104.0625) scale(0.08 -0.08)">
     <use xlink:href="#NimbusSanL-Regu-32" transform="scale(0.996264)"/>
     <use xlink:href="#NimbusSanL-Regu-2e" transform="translate(55.391677 0) scale(0.996264)"/>
     <use xlink:href="#NimbusSanL-Regu-30" transform="translate(83.086847 0) scale(0.996264)"/>
    </g>
   </g>
   <g id="text_6">
    <!-- 5.0 -->
    <g style="fill: #ff0000" transform="translate(231.159 104.0625) scale(0.08 -0.08)">
     <use xlink:href="#NimbusSanL-Regu-35" transform="scale(0.996264)"/>
     <use xlink:href="#NimbusSanL-Regu-2e" transform="translate(55.391677 0) scale(0.996264)"/>
     <use xlink:href="#NimbusSanL-Regu-30" transform="translate(83.086847 0) scale(0.996264)"/>
    </g>
   </g>
   <g id="text_7">
    <!-- +j0.0 -->
    <g style="fill: #0000ff" transform="translate(99.047869 105.762417) scale(0.08 -0.08)">
     <defs>
      <path id="NimbusSanL-Regu-2b" d="M 3418 1728 
L 2093 1728 
L 2093 3052 
L 1645 3052 
L 1645 1728 
L 320 1728 
L 320 1279 
L 1645 1279 
L 1645 -64 
L 2093 -64 
L 2093 1279 
L 3418 1279 
L 3418 1728 
z
" transform="scale(0.015625)"/>
      <path id="NimbusSanL-Regu-6a" d="M 448 3357 
L 448 -498 
C 448 -832 339 -941 13 -941 
C -7 -941 -7 -941 -115 -935 
L -115 -1389 
C -51 -1402 -19 -1408 64 -1408 
C 666 -1408 979 -1165 979 -710 
L 979 3357 
L 448 3357 
z
M 979 4672 
L 448 4672 
L 448 3999 
L 979 3999 
L 979 4672 
z
" transform="scale(0.015625)"/>
     </defs>
     <use xlink:href="#NimbusSanL-Regu-2b" transform="scale(0.996264)"/>
     <use xlink:href="#NimbusSanL-Regu-6a" transform="translate(58.181493 0) scale(0.996264)"/>
     <use xlink:href="#NimbusSanL-Regu-30" transform="translate(80.298277 0) scale(0.996264)"/>
     <use xlink:href="#NimbusSanL-Regu-2e" transform="translate(135.689954 0) scale(0.996264)"/>
     <use xlink:href="#NimbusSanL-Regu-30" transform="translate(163.385124 0) scale(0.996264)"/>
    </g>
   </g>
   <g id="text_8">
    <!-- +j0.2 -->
    <g style="fill: #0000ff" transform="translate(104.274792 79.627802) scale(0.08 -0.08)">
     <use xlink:href="#NimbusSanL-Regu-2b" transform="scale(0.996264)"/>
     <use xlink:href="#NimbusSanL-Regu-6a" transform="translate(58.181493 0) scale(0.996264)"/>
     <use xlink:href="#NimbusSanL-Regu-30" transform="translate(80.298277 0) scale(0.996264)"/>
     <use xlink:href="#NimbusSanL-Regu-2e" transform="translate(135.689954 0) scale(0.996264)"/>
     <use xlink:href="#NimbusSanL-Regu-32" transform="translate(163.385124 0) scale(0.996264)"/>
    </g>
   </g>
   <g id="text_9">
    <!-- +j0.5 -->
    <g style="fill: #0000ff" transform="translate(126.227869 51.402417) scale(0.08 -0.08)">
     <use xlink:href="#NimbusSanL-Regu-2b" transform="scale(0.996264)"/>
     <use xlink:href="#NimbusSanL-Regu-6a" transform="translate(58.181493 0) scale(0.996264)"/>
     <use xlink:href="#NimbusSanL-Regu-30" transform="translate(80.298277 0) scale(0.996264)"/>
     <use xlink:href="#NimbusSanL-Regu-2e" transform="translate(135.689954 0) scale(0.996264)"/>
     <use xlink:href="#NimbusSanL-Regu-35" transform="translate(163.385124 0) scale(0.996264)"/>
    </g>
   </g>
   <g id="text_10">
    <!-- +j1.0 -->
    <g style="fill: #0000ff" transform="translate(175.748934 37.812417) scale(0.08 -0.08)">
     <use xlink:href="#NimbusSanL-Regu-2b" transform="scale(0.996264)"/>
     <use xlink:href="#NimbusSanL-Regu-6a" transform="translate(58.181493 0) scale(0.996264)"/>
     <use xlink:href="#NimbusSanL-Regu-31" transform="translate(80.298277 0) scale(0.996264)"/>
     <use xlink:href="#NimbusSanL-Regu-2e" transform="translate(135.689954 0) scale(0.996264)"/>
     <use xlink:href="#NimbusSanL-Regu-30" transform="translate(163.385124 0) scale(0.996264)"/>
    </g>
   </g>
   <g id="text_11">
    <!-- +j2.0 -->
    <g style="fill: #0000ff" transform="translate(225.27 51.402417) scale(0.08 -0.08)">
     <use xlink:href="#NimbusSanL-Regu-2b" transform="scale(0.996264)"/>
     <use xlink:href="#NimbusSanL-Regu-6a" transform="translate(58.181493 0) scale(0.996264)"/>
     <use xlink:href="#NimbusSanL-Regu-32" transform="translate(80.298277 0) scale(0.996264)"/>
     <use xlink:href="#NimbusSanL-Regu-2e" transform="translate(135.689954 0) scale(0.996264)"/>
     <use xlink:href="#NimbusSanL-Regu-30" transform="translate(163.385124 0) scale(0.996264)"/>
    </g>
   </g>
   <g id="text_12">
    <!-- +j5.0 -->
    <g style="fill: #0000ff" transform="translate(247.223077 79.627802) scale(0.08 -0.08)">
     <use xlink:href="#NimbusSanL-Regu-2b" transform="scale(0.996264)"/>
     <use xlink:href="#NimbusSanL-Regu-6a" transform="translate(58.181493 0) scale(0.996264)"/>
     <use xlink:href="#NimbusSanL-Regu-35" transform="translate(80.298277 0) scale(0.996264)"/>
     <use xlink:href="#NimbusSanL-Regu-2e" transform="translate(135.689954 0) scale(0.996264)"/>
     <use xlink:href="#NimbusSanL-Regu-30" transform="translate(163.385124 0) scale(0.996264)"/>
    </g>
   </g>
   <g id="text_13">
    <!-- -j0.2 -->
    <g style="fill: #0000ff" transform="translate(106.275286 139.273272) scale(0.08 -0.08)">
     <defs>
      <path id="NimbusSanL-Regu-2d" d="M 1818 1996 
L 294 1996 
L 294 1536 
L 1818 1536 
L 1818 1996 
z
" transform="scale(0.015625)"/>
     </defs>
     <use xlink:href="#NimbusSanL-Regu-2d" transform="scale(0.996264)"/>
     <use xlink:href="#NimbusSanL-Regu-6a" transform="translate(33.17523 0) scale(0.996264)"/>
     <use xlink:href="#NimbusSanL-Regu-30" transform="translate(55.292014 0) scale(0.996264)"/>
     <use xlink:href="#NimbusSanL-Regu-2e" transform="translate(110.683691 0) scale(0.996264)"/>
     <use xlink:href="#NimbusSanL-Regu-32" transform="translate(138.378861 0) scale(0.996264)"/>
    </g>
   </g>
   <g id="text_14">
    <!-- -j0.5 -->
    <g style="fill: #0000ff" transform="translate(128.228362 167.498656) scale(0.08 -0.08)">
     <use xlink:href="#NimbusSanL-Regu-2d" transform="scale(0.996264)"/>
     <use xlink:href="#NimbusSanL-Regu-6a" transform="translate(33.17523 0) scale(0.996264)"/>
     <use xlink:href="#NimbusSanL-Regu-30" transform="translate(55.292014 0) scale(0.996264)"/>
     <use xlink:href="#NimbusSanL-Regu-2e" transform="translate(110.683691 0) scale(0.996264)"/>
     <use xlink:href="#NimbusSanL-Regu-35" transform="translate(138.378861 0) scale(0.996264)"/>
    </g>
   </g>
   <g id="text_15">
    <!-- -j1.0 -->
    <g style="fill: #0000ff" transform="translate(176.749181 181.088656) scale(0.08 -0.08)">
     <use xlink:href="#NimbusSanL-Regu-2d" transform="scale(0.996264)"/>
     <use xlink:href="#NimbusSanL-Regu-6a" transform="translate(33.17523 0) scale(0.996264)"/>
     <use xlink:href="#NimbusSanL-Regu-31" transform="translate(55.292014 0) scale(0.996264)"/>
     <use xlink:href="#NimbusSanL-Regu-2e" transform="translate(110.683691 0) scale(0.996264)"/>
     <use xlink:href="#NimbusSanL-Regu-30" transform="translate(138.378861 0) scale(0.996264)"/>
    </g>
   </g>
   <g id="text_16">
    <!-- -j2.0 -->
    <g style="fill: #0000ff" transform="translate(225.27 167.498656) scale(0.08 -0.08)">
     <use xlink:href="#NimbusSanL-Regu-2d" transform="scale(0.996264)"/>
     <use xlink:href="#NimbusSanL-Regu-6a" transform="translate(33.17523 0) scale(0.996264)"/>
     <use xlink:href="#NimbusSanL-Regu-32" transform="translate(55.292014 0) scale(0.996264)"/>
     <use xlink:href="#NimbusSanL-Regu-2e" transform="translate(110.683691 0) scale(0.996264)"/>
     <use xlink:href="#NimbusSanL-Regu-30" transform="translate(138.378861 0) scale(0.996264)"/>
    </g>
   </g>
   <g id="text_17">
    <!-- -j5.0 -->
    <g style="fill: #0000ff" transform="translate(247.223077 139.273272) scale(0.08 -0.08)">
     <use xlink:href="#NimbusSanL-Regu-2d" transform="scale(0.996264)"/>
     <use xlink:href="#NimbusSanL-Regu-6a" transform="translate(33.17523 0) scale(0.996264)"/>
     <use xlink:href="#NimbusSanL-Regu-35" transform="translate(55.292014 0) scale(0.996264)"/>
     <use xlink:href="#NimbusSanL-Regu-2e" transform="translate(110.683691 0) scale(0.996264)"/>
     <use xlink:href="#NimbusSanL-Regu-30" transform="translate(138.378861 0) scale(0.996264)"/>
    </g>
   </g>
   <g id="text_18">
    <!-- $s_{11}$ -->
    <g transform="translate(178.193769 105.338014) scale(0.1 -0.1)">
     <defs>
      <path id="CMMI12-73" d="M 1459 1290 
C 1568 1271 1741 1233 1779 1227 
C 1862 1201 2150 1099 2150 793 
C 2150 595 1971 64 1229 64 
C 1094 64 614 83 486 447 
C 742 414 870 614 870 755 
C 870 889 781 960 653 960 
C 512 960 326 851 326 563 
C 326 176 710 -64 1222 -64 
C 2195 -64 2483 665 2483 998 
C 2483 1093 2483 1271 2278 1475 
C 2118 1627 1965 1659 1619 1729 
C 1446 1767 1171 1824 1171 2111 
C 1171 2239 1286 2687 1894 2687 
C 2163 2687 2426 2589 2490 2368 
C 2208 2368 2195 2124 2195 2118 
C 2195 1983 2317 1945 2374 1945 
C 2464 1945 2643 2015 2643 2284 
C 2643 2546 2400 2816 1901 2816 
C 1062 2816 838 2169 838 1907 
C 838 1424 1312 1322 1459 1290 
z
" transform="scale(0.015625)"/>
      <path id="CMR17-31" d="M 1702 4083 
C 1702 4217 1696 4224 1606 4224 
C 1357 3927 979 3833 621 3820 
C 602 3820 570 3820 563 3808 
C 557 3795 557 3782 557 3648 
C 755 3648 1088 3686 1344 3839 
L 1344 467 
C 1344 243 1331 166 781 166 
L 589 166 
L 589 0 
C 896 6 1216 12 1523 12 
C 1830 12 2150 6 2458 0 
L 2458 166 
L 2266 166 
C 1715 166 1702 236 1702 467 
L 1702 4083 
z
" transform="scale(0.015625)"/>
     </defs>
     <use xlink:href="#CMMI12-73" transform="scale(0.996264)"/>
     <use xlink:href="#CMR17-31" transform="translate(45.950048 -14.943915) scale(0.697382)"/>
     <use xlink:href="#CMR17-31" transform="translate(77.93323 -14.943915) scale(0.697382)"/>
    </g>
   </g>
   <g id="text_19">
    <!-- stab. circle, source plane -->
    <g transform="translate(116.55 32.715) scale(0.1 -0.1)">
     <defs>
      <path id="NimbusSanL-Regu-73" d="M 2803 2428 
C 2797 3084 2362 3456 1587 3456 
C 806 3456 301 3052 301 2434 
C 301 1912 570 1663 1363 1472 
L 1862 1351 
C 2234 1262 2381 1129 2381 887 
C 2381 574 2067 364 1600 364 
C 1312 364 1069 447 934 587 
C 851 683 813 778 781 1014 
L 218 1014 
C 243 243 678 -128 1555 -128 
C 2400 -128 2938 288 2938 931 
C 2938 1428 2656 1702 1990 1861 
L 1478 1982 
C 1043 2084 858 2224 858 2459 
C 858 2765 1133 2963 1568 2963 
C 1997 2963 2227 2778 2240 2428 
L 2803 2428 
z
" transform="scale(0.015625)"/>
      <path id="NimbusSanL-Regu-74" d="M 1626 3328 
L 1075 3328 
L 1075 4249 
L 544 4249 
L 544 3328 
L 90 3328 
L 90 2892 
L 544 2892 
L 544 402 
C 544 64 774 -128 1190 -128 
C 1318 -128 1446 -116 1626 -84 
L 1626 364 
C 1555 345 1472 339 1370 339 
C 1139 339 1075 402 1075 634 
L 1075 2892 
L 1626 2892 
L 1626 3328 
z
" transform="scale(0.015625)"/>
      <path id="NimbusSanL-Regu-61" d="M 3424 332 
C 3366 320 3341 320 3309 320 
C 3123 320 3021 415 3021 581 
L 3021 2542 
C 3021 3135 2586 3456 1760 3456 
C 1274 3456 870 3315 646 3065 
C 493 2893 429 2702 416 2370 
L 954 2370 
C 998 2778 1242 2963 1741 2963 
C 2221 2963 2490 2784 2490 2466 
L 2490 2326 
C 2490 2103 2355 2007 1933 1956 
C 1178 1861 1062 1835 858 1753 
C 467 1593 269 1294 269 861 
C 269 256 691 -128 1370 -128 
C 1792 -128 2131 19 2509 364 
C 2547 25 2714 -128 3059 -128 
C 3168 -128 3251 -116 3424 -71 
L 3424 332 
z
M 2490 1071 
C 2490 893 2438 785 2278 638 
C 2061 441 1798 339 1485 339 
C 1069 339 826 536 826 874 
C 826 1224 1062 1402 1632 1485 
C 2195 1562 2310 1587 2490 1670 
L 2490 1071 
z
" transform="scale(0.015625)"/>
      <path id="NimbusSanL-Regu-62" d="M 346 4672 
L 346 19 
L 826 19 
L 826 447 
C 1082 57 1421 -128 1888 -128 
C 2771 -128 3347 594 3347 1702 
C 3347 2784 2797 3456 1914 3456 
C 1453 3456 1126 3283 877 2905 
L 877 4672 
L 346 4672 
z
M 1811 2956 
C 2406 2956 2790 2440 2790 1644 
C 2790 887 2394 371 1811 371 
C 1248 371 877 880 877 1663 
C 877 2447 1248 2956 1811 2956 
z
" transform="scale(0.015625)"/>
      <path id="NimbusSanL-Regu-63" d="M 3014 2237 
C 2989 2561 2918 2771 2790 2956 
C 2560 3270 2157 3456 1690 3456 
C 787 3456 198 2740 198 1632 
C 198 555 774 -128 1683 -128 
C 2483 -128 2989 352 3053 1167 
L 2515 1167 
C 2426 632 2150 364 1696 364 
C 1107 364 755 842 755 1632 
C 755 2466 1101 2963 1683 2963 
C 2131 2963 2413 2701 2477 2237 
L 3014 2237 
z
" transform="scale(0.015625)"/>
      <path id="NimbusSanL-Regu-69" d="M 960 3358 
L 429 3358 
L 429 0 
L 960 0 
L 960 3358 
z
M 960 4672 
L 422 4672 
L 422 3999 
L 960 3999 
L 960 4672 
z
" transform="scale(0.015625)"/>
      <path id="NimbusSanL-Regu-72" d="M 442 3328 
L 442 0 
L 979 0 
L 979 1727 
C 979 2203 1101 2514 1357 2698 
C 1523 2819 1683 2857 2054 2863 
L 2054 3404 
C 1965 3449 1920 3456 1850 3456 
C 1504 3456 1242 3251 934 2750 
L 934 3328 
L 442 3328 
z
" transform="scale(0.015625)"/>
      <path id="NimbusSanL-Regu-6c" d="M 973 4672 
L 435 4672 
L 435 0 
L 973 0 
L 973 4672 
z
" transform="scale(0.015625)"/>
      <path id="NimbusSanL-Regu-65" d="M 3283 1484 
C 3283 1998 3245 2311 3149 2565 
C 2931 3123 2419 3456 1792 3456 
C 858 3456 256 2734 256 1619 
C 256 545 838 -128 1779 -128 
C 2547 -128 3078 307 3213 1018 
L 2675 1018 
C 2528 588 2227 364 1798 364 
C 1459 364 1171 514 992 787 
C 864 974 819 1161 813 1484 
L 3283 1484 
z
M 826 1920 
C 870 2552 1248 2963 1786 2963 
C 2310 2963 2714 2519 2714 1959 
C 2714 1946 2714 1933 2707 1920 
L 826 1920 
z
" transform="scale(0.015625)"/>
      <path id="NimbusSanL-Regu-2c" d="M 557 665 
L 557 0 
L 941 0 
L 941 -116 
C 941 -557 858 -685 557 -698 
L 557 -941 
C 1005 -941 1229 -653 1229 -103 
L 1229 665 
L 557 665 
z
" transform="scale(0.015625)"/>
      <path id="NimbusSanL-Regu-6f" d="M 1741 3456 
C 800 3456 230 2784 230 1663 
C 230 543 794 -128 1747 -128 
C 2688 -128 3264 543 3264 1638 
C 3264 2791 2707 3456 1741 3456 
z
M 1747 2963 
C 2349 2963 2707 2472 2707 1644 
C 2707 861 2336 364 1747 364 
C 1152 364 787 855 787 1663 
C 787 2466 1152 2963 1747 2963 
z
" transform="scale(0.015625)"/>
      <path id="NimbusSanL-Regu-75" d="M 3085 19 
L 3085 3328 
L 2554 3328 
L 2554 1454 
C 2554 780 2195 339 1638 339 
C 1216 339 947 591 947 988 
L 947 3328 
L 416 3328 
L 416 780 
C 416 230 832 -128 1485 -128 
C 1978 -128 2291 44 2605 484 
L 2605 19 
L 3085 19 
z
" transform="scale(0.015625)"/>
      <path id="NimbusSanL-Regu-70" d="M 346 -1408 
L 883 -1408 
L 883 371 
C 1165 25 1478 -128 1914 -128 
C 2778 -128 3347 568 3347 1632 
C 3347 2752 2797 3456 1907 3456 
C 1453 3456 1088 3251 838 2854 
L 838 3359 
L 346 3359 
L 346 -1408 
z
M 1818 2956 
C 2406 2956 2790 2440 2790 1644 
C 2790 887 2400 371 1818 371 
C 1254 371 883 880 883 1663 
C 883 2447 1254 2956 1818 2956 
z
" transform="scale(0.015625)"/>
      <path id="NimbusSanL-Regu-6e" d="M 448 3328 
L 448 0 
L 986 0 
L 986 1835 
C 986 2539 1344 2988 1894 2988 
C 2317 2988 2586 2732 2586 2328 
L 2586 0 
L 3117 0 
L 3117 2539 
C 3117 3097 2701 3456 2054 3456 
C 1555 3456 1235 3263 941 2796 
L 941 3328 
L 448 3328 
z
" transform="scale(0.015625)"/>
     </defs>
     <use xlink:href="#NimbusSanL-Regu-73" transform="scale(0.996264)"/>
     <use xlink:href="#NimbusSanL-Regu-74" transform="translate(49.8132 0) scale(0.996264)"/>
     <use xlink:href="#NimbusSanL-Regu-61" transform="translate(77.50837 0) scale(0.996264)"/>
     <use xlink:href="#NimbusSanL-Regu-62" transform="translate(132.900047 0) scale(0.996264)"/>
     <use xlink:href="#NimbusSanL-Regu-2e" transform="translate(184.30761 0) scale(0.996264)"/>
     <use xlink:href="#NimbusSanL-Regu-63" transform="translate(246.272432 0) scale(0.996264)"/>
     <use xlink:href="#NimbusSanL-Regu-69" transform="translate(296.085632 0) scale(0.996264)"/>
     <use xlink:href="#NimbusSanL-Regu-72" transform="translate(318.202417 0) scale(0.996264)"/>
     <use xlink:href="#NimbusSanL-Regu-63" transform="translate(351.377646 0) scale(0.996264)"/>
     <use xlink:href="#NimbusSanL-Regu-6c" transform="translate(401.190847 0) scale(0.996264)"/>
     <use xlink:href="#NimbusSanL-Regu-65" transform="translate(423.307631 0) scale(0.996264)"/>
     <use xlink:href="#NimbusSanL-Regu-2c" transform="translate(477.205915 0) scale(0.996264)"/>
     <use xlink:href="#NimbusSanL-Regu-73" transform="translate(532.596255 0) scale(0.996264)"/>
     <use xlink:href="#NimbusSanL-Regu-6f" transform="translate(582.409455 0) scale(0.996264)"/>
     <use xlink:href="#NimbusSanL-Regu-75" transform="translate(637.801132 0) scale(0.996264)"/>
     <use xlink:href="#NimbusSanL-Regu-72" transform="translate(693.192809 0) scale(0.996264)"/>
     <use xlink:href="#NimbusSanL-Regu-63" transform="translate(726.368039 0) scale(0.996264)"/>
     <use xlink:href="#NimbusSanL-Regu-65" transform="translate(776.181239 0) scale(0.996264)"/>
     <use xlink:href="#NimbusSanL-Regu-70" transform="translate(859.268086 0) scale(0.996264)"/>
     <use xlink:href="#NimbusSanL-Regu-6c" transform="translate(914.659763 0) scale(0.996264)"/>
     <use xlink:href="#NimbusSanL-Regu-61" transform="translate(936.776547 0) scale(0.996264)"/>
     <use xlink:href="#NimbusSanL-Regu-6e" transform="translate(992.168224 0) scale(0.996264)"/>
     <use xlink:href="#NimbusSanL-Regu-65" transform="translate(1047.559901 0) scale(0.996264)"/>
    </g>
   </g>
  </g>
 </g>
 <defs>
  <clipPath id="p946765264a">
   <rect x="45" y="25.92" width="279" height="163.08"/>
  </clipPath>
 </defs>
</svg>
